solid OpenSCAD_Model
  facet normal -0 0 1
    outer loop
      vertex 0 20 6
      vertex 10 0 6
      vertex 10 20 6
    endloop
  endfacet
  facet normal 0 0 1
    outer loop
      vertex 10 0 6
      vertex 0 20 6
      vertex 0 0 6
    endloop
  endfacet
  facet normal 1 -0 0
    outer loop
      vertex 10 0 6
      vertex 10 20 4
      vertex 10 20 6
    endloop
  endfacet
  facet normal 1 0 0
    outer loop
      vertex 10 20 4
      vertex 10 0 6
      vertex 10 0 4
    endloop
  endfacet
  facet normal 0 1 0
    outer loop
      vertex 22 20 4
      vertex 22 20 0
      vertex 10 20 4
    endloop
  endfacet
  facet normal 0 1 -0
    outer loop
      vertex 10 20 4
      vertex 0 20 6
      vertex 10 20 6
    endloop
  endfacet
  facet normal 0 1 0
    outer loop
      vertex 0 20 0
      vertex 10 20 4
      vertex 22 20 0
    endloop
  endfacet
  facet normal 0 1 0
    outer loop
      vertex 10 20 4
      vertex 0 20 0
      vertex 0 20 6
    endloop
  endfacet
  facet normal 0 0 -1
    outer loop
      vertex 22 0 0
      vertex 25 19 0
      vertex 25 1 0
    endloop
  endfacet
  facet normal 0 0 -1
    outer loop
      vertex 22 0 0
      vertex 22 20 0
      vertex 25 19 0
    endloop
  endfacet
  facet normal 0 0 -1
    outer loop
      vertex 0 0 0
      vertex 22 20 0
      vertex 22 0 0
    endloop
  endfacet
  facet normal -0 0 -1
    outer loop
      vertex 22 20 0
      vertex 0 0 0
      vertex 0 20 0
    endloop
  endfacet
  facet normal 0 -1 0
    outer loop
      vertex 0 0 6
      vertex 10 0 4
      vertex 10 0 6
    endloop
  endfacet
  facet normal 0 -1 0
    outer loop
      vertex 0 0 0
      vertex 10 0 4
      vertex 0 0 6
    endloop
  endfacet
  facet normal 0 -1 0
    outer loop
      vertex 22 0 0
      vertex 10 0 4
      vertex 0 0 0
    endloop
  endfacet
  facet normal 0 -1 0
    outer loop
      vertex 10 0 4
      vertex 22 0 0
      vertex 22 0 4
    endloop
  endfacet
  facet normal 1 -0 0
    outer loop
      vertex 25 1 3
      vertex 25 19 0
      vertex 25 19 3
    endloop
  endfacet
  facet normal 1 0 0
    outer loop
      vertex 25 19 0
      vertex 25 1 3
      vertex 25 1 0
    endloop
  endfacet
  facet normal -0 0 1
    outer loop
      vertex 10 20 4
      vertex 22 0 4
      vertex 22 20 4
    endloop
  endfacet
  facet normal 0 0 1
    outer loop
      vertex 22 0 4
      vertex 10 20 4
      vertex 10 0 4
    endloop
  endfacet
  facet normal 0.316228 -0.948683 0
    outer loop
      vertex 22 0 0
      vertex 25 1 3
      vertex 22 0 4
    endloop
  endfacet
  facet normal 0.316228 -0.948683 0
    outer loop
      vertex 25 1 3
      vertex 22 0 0
      vertex 25 1 0
    endloop
  endfacet
  facet normal 0.316228 0.948683 0
    outer loop
      vertex 22 20 0
      vertex 25 19 3
      vertex 25 19 0
    endloop
  endfacet
  facet normal 0.316228 0.948683 0
    outer loop
      vertex 25 19 3
      vertex 22 20 0
      vertex 22 20 4
    endloop
  endfacet
  facet normal 0.316228 0 0.948683
    outer loop
      vertex 22 20 4
      vertex 25 1 3
      vertex 25 19 3
    endloop
  endfacet
  facet normal 0.316228 0 0.948683
    outer loop
      vertex 25 1 3
      vertex 22 20 4
      vertex 22 0 4
    endloop
  endfacet
  facet normal -1 0 0
    outer loop
      vertex 0 0 0
      vertex 0 20 6
      vertex 0 20 0
    endloop
  endfacet
  facet normal -1 -0 0
    outer loop
      vertex 0 20 6
      vertex 0 0 0
      vertex 0 0 6
    endloop
  endfacet
  facet normal 0 0 -1
    outer loop
      vertex 4.1 -44 0
      vertex 8.1 -54 0
      vertex 4.1 -54 0
    endloop
  endfacet
  facet normal 0 0 -1
    outer loop
      vertex 8.1 -54 0
      vertex 4.1 -44 0
      vertex 8.1 -40 0
    endloop
  endfacet
  facet normal 0 0 -1
    outer loop
      vertex 4.1 -44 0
      vertex 4 -40 0
      vertex 8.1 -40 0
    endloop
  endfacet
  facet normal -0 0 -1
    outer loop
      vertex 4 -40 0
      vertex 5.72205e-07 -44 0
      vertex 4 -19.9 0
    endloop
  endfacet
  facet normal 0 0 -1
    outer loop
      vertex 5.72205e-07 -44 0
      vertex 4 -40 0
      vertex 4.1 -44 0
    endloop
  endfacet
  facet normal 0 0 -1
    outer loop
      vertex 4 -19.9 0
      vertex 8.1 -15.9 0
      vertex 8.1 -19.9 0
    endloop
  endfacet
  facet normal 0 0 -1
    outer loop
      vertex 4 -19.9 0
      vertex 5.72205e-07 -15.9 0
      vertex 8.1 -15.9 0
    endloop
  endfacet
  facet normal 0 0 -1
    outer loop
      vertex 5.72205e-07 -15.9 0
      vertex 4 -19.9 0
      vertex 5.72205e-07 -44 0
    endloop
  endfacet
  facet normal -1 0 0
    outer loop
      vertex 4.1 -44 0
      vertex 4.1 -47.503 7.40581
      vertex 4.1 -44 15
    endloop
  endfacet
  facet normal -1 0 0
    outer loop
      vertex 4.1 -44 0
      vertex 4.1 -47.5266 7.21893
      vertex 4.1 -47.503 7.40581
    endloop
  endfacet
  facet normal -1 0 0
    outer loop
      vertex 4.1 -44 0
      vertex 4.1 -47.5734 7.03647
      vertex 4.1 -47.5266 7.21893
    endloop
  endfacet
  facet normal -1 0 0
    outer loop
      vertex 4.1 -44 0
      vertex 4.1 -47.6428 6.86133
      vertex 4.1 -47.5734 7.03647
    endloop
  endfacet
  facet normal -1 0 0
    outer loop
      vertex 4.1 -44 0
      vertex 4.1 -47.7335 6.69626
      vertex 4.1 -47.6428 6.86133
    endloop
  endfacet
  facet normal -1 0 0
    outer loop
      vertex 4.1 -44 0
      vertex 4.1 -47.8442 6.54386
      vertex 4.1 -47.7335 6.69626
    endloop
  endfacet
  facet normal -1 0 0
    outer loop
      vertex 4.1 -44 0
      vertex 4.1 -47.9732 6.40655
      vertex 4.1 -47.8442 6.54386
    endloop
  endfacet
  facet normal -1 0 0
    outer loop
      vertex 4.1 -44 0
      vertex 4.1 -48.1183 6.28647
      vertex 4.1 -47.9732 6.40655
    endloop
  endfacet
  facet normal -1 0 0
    outer loop
      vertex 4.1 -44 0
      vertex 4.1 -48.2774 6.18554
      vertex 4.1 -48.1183 6.28647
    endloop
  endfacet
  facet normal -1 0 0
    outer loop
      vertex 4.1 -44 0
      vertex 4.1 -48.4478 6.10534
      vertex 4.1 -48.2774 6.18554
    endloop
  endfacet
  facet normal -1 0 0
    outer loop
      vertex 4.1 -44 0
      vertex 4.1 -48.627 6.04712
      vertex 4.1 -48.4478 6.10534
    endloop
  endfacet
  facet normal -1 0 0
    outer loop
      vertex 4.1 -44 0
      vertex 4.1 -48.812 6.01183
      vertex 4.1 -48.627 6.04712
    endloop
  endfacet
  facet normal -1 0 0
    outer loop
      vertex 4.1 -44 0
      vertex 4.1 -49 6
      vertex 4.1 -48.812 6.01183
    endloop
  endfacet
  facet normal -1 0 0
    outer loop
      vertex 4.1 -54 0
      vertex 4.1 -49 6
      vertex 4.1 -44 0
    endloop
  endfacet
  facet normal -1 -0 0
    outer loop
      vertex 4.1 -49 6
      vertex 4.1 -54 0
      vertex 4.1 -49.188 6.01183
    endloop
  endfacet
  facet normal -1 -0 0
    outer loop
      vertex 4.1 -49.188 6.01183
      vertex 4.1 -54 0
      vertex 4.1 -49.373 6.04712
    endloop
  endfacet
  facet normal -1 -0 0
    outer loop
      vertex 4.1 -49.373 6.04712
      vertex 4.1 -54 0
      vertex 4.1 -49.5522 6.10534
    endloop
  endfacet
  facet normal -1 -0 0
    outer loop
      vertex 4.1 -49.5522 6.10534
      vertex 4.1 -54 0
      vertex 4.1 -49.7226 6.18554
    endloop
  endfacet
  facet normal -1 -0 0
    outer loop
      vertex 4.1 -49.7226 6.18554
      vertex 4.1 -54 0
      vertex 4.1 -49.8817 6.28647
    endloop
  endfacet
  facet normal -1 -0 0
    outer loop
      vertex 4.1 -50.497 7.40581
      vertex 4.1 -54 0
      vertex 4.1 -50.497 7.59418
    endloop
  endfacet
  facet normal -1 -0 0
    outer loop
      vertex 4.1 -50.4734 7.21893
      vertex 4.1 -54 0
      vertex 4.1 -50.497 7.40581
    endloop
  endfacet
  facet normal -1 -0 0
    outer loop
      vertex 4.1 -50.4266 7.03647
      vertex 4.1 -54 0
      vertex 4.1 -50.4734 7.21893
    endloop
  endfacet
  facet normal -1 -0 0
    outer loop
      vertex 4.1 -50.3572 6.86133
      vertex 4.1 -54 0
      vertex 4.1 -50.4266 7.03647
    endloop
  endfacet
  facet normal -1 -0 0
    outer loop
      vertex 4.1 -50.2665 6.69626
      vertex 4.1 -54 0
      vertex 4.1 -50.3572 6.86133
    endloop
  endfacet
  facet normal -1 -0 0
    outer loop
      vertex 4.1 -50.1558 6.54386
      vertex 4.1 -54 0
      vertex 4.1 -50.2665 6.69626
    endloop
  endfacet
  facet normal -1 -0 0
    outer loop
      vertex 4.1 -50.0268 6.40655
      vertex 4.1 -54 0
      vertex 4.1 -50.1558 6.54386
    endloop
  endfacet
  facet normal -1 -0 0
    outer loop
      vertex 4.1 -49.8817 6.28647
      vertex 4.1 -54 0
      vertex 4.1 -50.0268 6.40655
    endloop
  endfacet
  facet normal -1 0 0
    outer loop
      vertex 4.1 -47.503 7.59418
      vertex 4.1 -44 15
      vertex 4.1 -47.503 7.40581
    endloop
  endfacet
  facet normal -1 0 0
    outer loop
      vertex 4.1 -47.5266 7.78107
      vertex 4.1 -44 15
      vertex 4.1 -47.503 7.59418
    endloop
  endfacet
  facet normal -1 0 0
    outer loop
      vertex 4.1 -47.5734 7.96352
      vertex 4.1 -44 15
      vertex 4.1 -47.5266 7.78107
    endloop
  endfacet
  facet normal -1 0 0
    outer loop
      vertex 4.1 -47.6428 8.13867
      vertex 4.1 -44 15
      vertex 4.1 -47.5734 7.96352
    endloop
  endfacet
  facet normal -1 0 0
    outer loop
      vertex 4.1 -47.7335 8.30374
      vertex 4.1 -44 15
      vertex 4.1 -47.6428 8.13867
    endloop
  endfacet
  facet normal -1 0 0
    outer loop
      vertex 4.1 -47.8442 8.45614
      vertex 4.1 -44 15
      vertex 4.1 -47.7335 8.30374
    endloop
  endfacet
  facet normal -1 0 0
    outer loop
      vertex 4.1 -47.9732 8.59345
      vertex 4.1 -44 15
      vertex 4.1 -47.8442 8.45614
    endloop
  endfacet
  facet normal -1 0 0
    outer loop
      vertex 4.1 -48.1183 8.71352
      vertex 4.1 -44 15
      vertex 4.1 -47.9732 8.59345
    endloop
  endfacet
  facet normal -1 0 0
    outer loop
      vertex 4.1 -48.2774 8.81446
      vertex 4.1 -44 15
      vertex 4.1 -48.1183 8.71352
    endloop
  endfacet
  facet normal -1 0 0
    outer loop
      vertex 4.1 -48.4478 8.89466
      vertex 4.1 -44 15
      vertex 4.1 -48.2774 8.81446
    endloop
  endfacet
  facet normal -1 0 0
    outer loop
      vertex 4.1 -48.627 8.95287
      vertex 4.1 -44 15
      vertex 4.1 -48.4478 8.89466
    endloop
  endfacet
  facet normal -1 0 0
    outer loop
      vertex 4.1 -48.812 8.98817
      vertex 4.1 -44 15
      vertex 4.1 -48.627 8.95287
    endloop
  endfacet
  facet normal -1 0 0
    outer loop
      vertex 4.1 -49 9
      vertex 4.1 -44 15
      vertex 4.1 -48.812 8.98817
    endloop
  endfacet
  facet normal -1 0 0
    outer loop
      vertex 4.1 -54 15
      vertex 4.1 -49 9
      vertex 4.1 -49.188 8.98817
    endloop
  endfacet
  facet normal -1 0 0
    outer loop
      vertex 4.1 -54 15
      vertex 4.1 -49.188 8.98817
      vertex 4.1 -49.373 8.95287
    endloop
  endfacet
  facet normal -1 0 0
    outer loop
      vertex 4.1 -54 15
      vertex 4.1 -49.373 8.95287
      vertex 4.1 -49.5522 8.89466
    endloop
  endfacet
  facet normal -1 0 0
    outer loop
      vertex 4.1 -54 15
      vertex 4.1 -49.5522 8.89466
      vertex 4.1 -49.7226 8.81446
    endloop
  endfacet
  facet normal -1 0 0
    outer loop
      vertex 4.1 -54 15
      vertex 4.1 -49.7226 8.81446
      vertex 4.1 -49.8817 8.71352
    endloop
  endfacet
  facet normal -1 0 0
    outer loop
      vertex 4.1 -54 15
      vertex 4.1 -49.8817 8.71352
      vertex 4.1 -50.0268 8.59345
    endloop
  endfacet
  facet normal -1 0 0
    outer loop
      vertex 4.1 -54 15
      vertex 4.1 -50.497 7.59418
      vertex 4.1 -54 0
    endloop
  endfacet
  facet normal -1 0 0
    outer loop
      vertex 4.1 -50.497 7.59418
      vertex 4.1 -54 15
      vertex 4.1 -50.4734 7.78107
    endloop
  endfacet
  facet normal -1 0 0
    outer loop
      vertex 4.1 -50.4734 7.78107
      vertex 4.1 -54 15
      vertex 4.1 -50.4266 7.96352
    endloop
  endfacet
  facet normal -1 0 0
    outer loop
      vertex 4.1 -49 9
      vertex 4.1 -54 15
      vertex 4.1 -44 15
    endloop
  endfacet
  facet normal -1 0 0
    outer loop
      vertex 4.1 -50.1558 8.45614
      vertex 4.1 -54 15
      vertex 4.1 -50.0268 8.59345
    endloop
  endfacet
  facet normal -1 0 0
    outer loop
      vertex 4.1 -50.2665 8.30374
      vertex 4.1 -54 15
      vertex 4.1 -50.1558 8.45614
    endloop
  endfacet
  facet normal -1 0 0
    outer loop
      vertex 4.1 -50.3572 8.13867
      vertex 4.1 -54 15
      vertex 4.1 -50.2665 8.30374
    endloop
  endfacet
  facet normal -1 0 0
    outer loop
      vertex 4.1 -50.4266 7.96352
      vertex 4.1 -54 15
      vertex 4.1 -50.3572 8.13867
    endloop
  endfacet
  facet normal 0 0 1
    outer loop
      vertex 8.1 -15.9 15
      vertex 4 -19.9 15
      vertex 8.1 -19.9 15
    endloop
  endfacet
  facet normal 0 0 1
    outer loop
      vertex 4 -19.9 15
      vertex 5.72205e-07 -15.9 15
      vertex 4 -40 15
    endloop
  endfacet
  facet normal -0 0 1
    outer loop
      vertex 5.72205e-07 -15.9 15
      vertex 4 -19.9 15
      vertex 8.1 -15.9 15
    endloop
  endfacet
  facet normal 0 0 1
    outer loop
      vertex 8.1 -40 15
      vertex 4.1 -44 15
      vertex 8.1 -54 15
    endloop
  endfacet
  facet normal -0 0 1
    outer loop
      vertex 4 -40 15
      vertex 4.1 -44 15
      vertex 8.1 -40 15
    endloop
  endfacet
  facet normal 0 0 1
    outer loop
      vertex 5.72205e-07 -44 15
      vertex 4 -40 15
      vertex 5.72205e-07 -15.9 15
    endloop
  endfacet
  facet normal 0 0 1
    outer loop
      vertex 4 -40 15
      vertex 5.72205e-07 -44 15
      vertex 4.1 -44 15
    endloop
  endfacet
  facet normal 0 0 1
    outer loop
      vertex 8.1 -54 15
      vertex 4.1 -44 15
      vertex 4.1 -54 15
    endloop
  endfacet
  facet normal 0 -1 0
    outer loop
      vertex 5.72205e-07 -44 0
      vertex 4.1 -44 15
      vertex 5.72205e-07 -44 15
    endloop
  endfacet
  facet normal 0 -1 -0
    outer loop
      vertex 4.1 -44 15
      vertex 5.72205e-07 -44 0
      vertex 4.1 -44 0
    endloop
  endfacet
  facet normal 1 0 0
    outer loop
      vertex 8.1 -40 15
      vertex 8.1 -47.503 7.59418
      vertex 8.1 -40 0
    endloop
  endfacet
  facet normal 1 0 0
    outer loop
      vertex 8.1 -40 15
      vertex 8.1 -47.5266 7.78107
      vertex 8.1 -47.503 7.59418
    endloop
  endfacet
  facet normal 1 0 0
    outer loop
      vertex 8.1 -40 15
      vertex 8.1 -47.5734 7.96352
      vertex 8.1 -47.5266 7.78107
    endloop
  endfacet
  facet normal 1 0 0
    outer loop
      vertex 8.1 -40 15
      vertex 8.1 -47.6428 8.13867
      vertex 8.1 -47.5734 7.96352
    endloop
  endfacet
  facet normal 1 0 0
    outer loop
      vertex 8.1 -40 15
      vertex 8.1 -47.7335 8.30374
      vertex 8.1 -47.6428 8.13867
    endloop
  endfacet
  facet normal 1 0 0
    outer loop
      vertex 8.1 -40 15
      vertex 8.1 -47.8442 8.45614
      vertex 8.1 -47.7335 8.30374
    endloop
  endfacet
  facet normal 1 0 0
    outer loop
      vertex 8.1 -40 15
      vertex 8.1 -47.9732 8.59345
      vertex 8.1 -47.8442 8.45614
    endloop
  endfacet
  facet normal 1 0 0
    outer loop
      vertex 8.1 -40 15
      vertex 8.1 -48.1183 8.71352
      vertex 8.1 -47.9732 8.59345
    endloop
  endfacet
  facet normal 1 0 0
    outer loop
      vertex 8.1 -40 15
      vertex 8.1 -48.2774 8.81446
      vertex 8.1 -48.1183 8.71352
    endloop
  endfacet
  facet normal 1 0 0
    outer loop
      vertex 8.1 -40 15
      vertex 8.1 -48.4478 8.89466
      vertex 8.1 -48.2774 8.81446
    endloop
  endfacet
  facet normal 1 0 0
    outer loop
      vertex 8.1 -40 15
      vertex 8.1 -48.627 8.95287
      vertex 8.1 -48.4478 8.89466
    endloop
  endfacet
  facet normal 1 -0 0
    outer loop
      vertex 8.1 -54 15
      vertex 8.1 -48.627 8.95287
      vertex 8.1 -40 15
    endloop
  endfacet
  facet normal 1 0 0
    outer loop
      vertex 8.1 -48.627 8.95287
      vertex 8.1 -54 15
      vertex 8.1 -48.812 8.98817
    endloop
  endfacet
  facet normal 1 0 0
    outer loop
      vertex 8.1 -48.812 8.98817
      vertex 8.1 -54 15
      vertex 8.1 -49 9
    endloop
  endfacet
  facet normal 1 0 0
    outer loop
      vertex 8.1 -49 9
      vertex 8.1 -54 15
      vertex 8.1 -49.188 8.98817
    endloop
  endfacet
  facet normal 1 0 0
    outer loop
      vertex 8.1 -49.188 8.98817
      vertex 8.1 -54 15
      vertex 8.1 -49.373 8.95287
    endloop
  endfacet
  facet normal 1 0 0
    outer loop
      vertex 8.1 -49.373 8.95287
      vertex 8.1 -54 15
      vertex 8.1 -49.5522 8.89466
    endloop
  endfacet
  facet normal 1 0 0
    outer loop
      vertex 8.1 -49.5522 8.89466
      vertex 8.1 -54 15
      vertex 8.1 -49.7226 8.81446
    endloop
  endfacet
  facet normal 1 0 0
    outer loop
      vertex 8.1 -50.497 7.59418
      vertex 8.1 -54 15
      vertex 8.1 -50.497 7.40581
    endloop
  endfacet
  facet normal 1 0 0
    outer loop
      vertex 8.1 -50.4734 7.78107
      vertex 8.1 -54 15
      vertex 8.1 -50.497 7.59418
    endloop
  endfacet
  facet normal 1 0 0
    outer loop
      vertex 8.1 -50.4266 7.96352
      vertex 8.1 -54 15
      vertex 8.1 -50.4734 7.78107
    endloop
  endfacet
  facet normal 1 0 0
    outer loop
      vertex 8.1 -50.3572 8.13867
      vertex 8.1 -54 15
      vertex 8.1 -50.4266 7.96352
    endloop
  endfacet
  facet normal 1 0 0
    outer loop
      vertex 8.1 -50.2665 8.30374
      vertex 8.1 -54 15
      vertex 8.1 -50.3572 8.13867
    endloop
  endfacet
  facet normal 1 0 0
    outer loop
      vertex 8.1 -50.1558 8.45614
      vertex 8.1 -54 15
      vertex 8.1 -50.2665 8.30374
    endloop
  endfacet
  facet normal 1 0 0
    outer loop
      vertex 8.1 -50.0268 8.59345
      vertex 8.1 -54 15
      vertex 8.1 -50.1558 8.45614
    endloop
  endfacet
  facet normal 1 0 0
    outer loop
      vertex 8.1 -49.8817 8.71352
      vertex 8.1 -54 15
      vertex 8.1 -50.0268 8.59345
    endloop
  endfacet
  facet normal 1 0 0
    outer loop
      vertex 8.1 -49.7226 8.81446
      vertex 8.1 -54 15
      vertex 8.1 -49.8817 8.71352
    endloop
  endfacet
  facet normal 1 -0 0
    outer loop
      vertex 8.1 -47.503 7.40581
      vertex 8.1 -40 0
      vertex 8.1 -47.503 7.59418
    endloop
  endfacet
  facet normal 1 -0 0
    outer loop
      vertex 8.1 -47.5266 7.21893
      vertex 8.1 -40 0
      vertex 8.1 -47.503 7.40581
    endloop
  endfacet
  facet normal 1 -0 0
    outer loop
      vertex 8.1 -47.5734 7.03647
      vertex 8.1 -40 0
      vertex 8.1 -47.5266 7.21893
    endloop
  endfacet
  facet normal 1 -0 0
    outer loop
      vertex 8.1 -47.6428 6.86133
      vertex 8.1 -40 0
      vertex 8.1 -47.5734 7.03647
    endloop
  endfacet
  facet normal 1 -0 0
    outer loop
      vertex 8.1 -47.7335 6.69626
      vertex 8.1 -40 0
      vertex 8.1 -47.6428 6.86133
    endloop
  endfacet
  facet normal 1 -0 0
    outer loop
      vertex 8.1 -47.8442 6.54386
      vertex 8.1 -40 0
      vertex 8.1 -47.7335 6.69626
    endloop
  endfacet
  facet normal 1 -0 0
    outer loop
      vertex 8.1 -47.9732 6.40655
      vertex 8.1 -40 0
      vertex 8.1 -47.8442 6.54386
    endloop
  endfacet
  facet normal 1 -0 0
    outer loop
      vertex 8.1 -48.1183 6.28647
      vertex 8.1 -40 0
      vertex 8.1 -47.9732 6.40655
    endloop
  endfacet
  facet normal 1 -0 0
    outer loop
      vertex 8.1 -48.2774 6.18554
      vertex 8.1 -40 0
      vertex 8.1 -48.1183 6.28647
    endloop
  endfacet
  facet normal 1 -0 0
    outer loop
      vertex 8.1 -48.4478 6.10534
      vertex 8.1 -40 0
      vertex 8.1 -48.2774 6.18554
    endloop
  endfacet
  facet normal 1 -0 0
    outer loop
      vertex 8.1 -48.627 6.04712
      vertex 8.1 -40 0
      vertex 8.1 -48.4478 6.10534
    endloop
  endfacet
  facet normal 1 0 0
    outer loop
      vertex 8.1 -54 0
      vertex 8.1 -48.627 6.04712
      vertex 8.1 -48.812 6.01183
    endloop
  endfacet
  facet normal 1 0 0
    outer loop
      vertex 8.1 -54 0
      vertex 8.1 -48.812 6.01183
      vertex 8.1 -49 6
    endloop
  endfacet
  facet normal 1 0 0
    outer loop
      vertex 8.1 -54 0
      vertex 8.1 -49 6
      vertex 8.1 -49.188 6.01183
    endloop
  endfacet
  facet normal 1 0 0
    outer loop
      vertex 8.1 -54 0
      vertex 8.1 -49.188 6.01183
      vertex 8.1 -49.373 6.04712
    endloop
  endfacet
  facet normal 1 0 0
    outer loop
      vertex 8.1 -54 0
      vertex 8.1 -49.373 6.04712
      vertex 8.1 -49.5522 6.10534
    endloop
  endfacet
  facet normal 1 0 0
    outer loop
      vertex 8.1 -54 0
      vertex 8.1 -49.5522 6.10534
      vertex 8.1 -49.7226 6.18554
    endloop
  endfacet
  facet normal 1 0 0
    outer loop
      vertex 8.1 -54 0
      vertex 8.1 -49.7226 6.18554
      vertex 8.1 -49.8817 6.28647
    endloop
  endfacet
  facet normal 1 0 0
    outer loop
      vertex 8.1 -54 0
      vertex 8.1 -50.497 7.40581
      vertex 8.1 -54 15
    endloop
  endfacet
  facet normal 1 0 0
    outer loop
      vertex 8.1 -50.497 7.40581
      vertex 8.1 -54 0
      vertex 8.1 -50.4734 7.21893
    endloop
  endfacet
  facet normal 1 0 0
    outer loop
      vertex 8.1 -50.4734 7.21893
      vertex 8.1 -54 0
      vertex 8.1 -50.4266 7.03647
    endloop
  endfacet
  facet normal 1 0 0
    outer loop
      vertex 8.1 -48.627 6.04712
      vertex 8.1 -54 0
      vertex 8.1 -40 0
    endloop
  endfacet
  facet normal 1 0 0
    outer loop
      vertex 8.1 -50.0268 6.40655
      vertex 8.1 -54 0
      vertex 8.1 -49.8817 6.28647
    endloop
  endfacet
  facet normal 1 0 0
    outer loop
      vertex 8.1 -50.1558 6.54386
      vertex 8.1 -54 0
      vertex 8.1 -50.0268 6.40655
    endloop
  endfacet
  facet normal 1 0 0
    outer loop
      vertex 8.1 -50.2665 6.69626
      vertex 8.1 -54 0
      vertex 8.1 -50.1558 6.54386
    endloop
  endfacet
  facet normal 1 0 0
    outer loop
      vertex 8.1 -50.3572 6.86133
      vertex 8.1 -54 0
      vertex 8.1 -50.2665 6.69626
    endloop
  endfacet
  facet normal 1 0 0
    outer loop
      vertex 8.1 -50.4266 7.03647
      vertex 8.1 -54 0
      vertex 8.1 -50.3572 6.86133
    endloop
  endfacet
  facet normal 0 -1 0
    outer loop
      vertex 4.1 -54 0
      vertex 8.1 -54 15
      vertex 4.1 -54 15
    endloop
  endfacet
  facet normal 0 -1 -0
    outer loop
      vertex 8.1 -54 15
      vertex 4.1 -54 0
      vertex 8.1 -54 0
    endloop
  endfacet
  facet normal 0 -0.187429 -0.982278
    outer loop
      vertex 4.1 -48.812 8.98817
      vertex 8.1 -48.627 8.95287
      vertex 8.1 -48.812 8.98817
    endloop
  endfacet
  facet normal -0 -0.187429 -0.982278
    outer loop
      vertex 8.1 -48.627 8.95287
      vertex 4.1 -48.812 8.98817
      vertex 4.1 -48.627 8.95287
    endloop
  endfacet
  facet normal 0 -0.0628013 -0.998026
    outer loop
      vertex 4.1 -49 9
      vertex 8.1 -48.812 8.98817
      vertex 8.1 -49 9
    endloop
  endfacet
  facet normal -0 -0.0628013 -0.998026
    outer loop
      vertex 8.1 -48.812 8.98817
      vertex 4.1 -49 9
      vertex 4.1 -48.812 8.98817
    endloop
  endfacet
  facet normal 0 -0.99212 0.125289
    outer loop
      vertex 4.1 -47.5266 7.21893
      vertex 8.1 -47.503 7.40581
      vertex 4.1 -47.503 7.40581
    endloop
  endfacet
  facet normal 0 -0.99212 0.125289
    outer loop
      vertex 8.1 -47.503 7.40581
      vertex 4.1 -47.5266 7.21893
      vertex 8.1 -47.5266 7.21893
    endloop
  endfacet
  facet normal 0 -0.80908 -0.587698
    outer loop
      vertex 4.1 -47.7335 8.30374
      vertex 8.1 -47.8442 8.45614
      vertex 4.1 -47.8442 8.45614
    endloop
  endfacet
  facet normal 0 -0.80908 -0.587698
    outer loop
      vertex 8.1 -47.8442 8.45614
      vertex 4.1 -47.7335 8.30374
      vertex 8.1 -47.7335 8.30374
    endloop
  endfacet
  facet normal 0 -0.637559 0.770402
    outer loop
      vertex 4.1 -47.9732 6.40655
      vertex 8.1 -48.1183 6.28647
      vertex 8.1 -47.9732 6.40655
    endloop
  endfacet
  facet normal 0 -0.637559 0.770402
    outer loop
      vertex 8.1 -48.1183 6.28647
      vertex 4.1 -47.9732 6.40655
      vertex 4.1 -48.1183 6.28647
    endloop
  endfacet
  facet normal -0 0.30899 0.951065
    outer loop
      vertex 4.1 -49.373 6.04712
      vertex 8.1 -49.5522 6.10534
      vertex 8.1 -49.373 6.04712
    endloop
  endfacet
  facet normal 0 0.30899 0.951065
    outer loop
      vertex 8.1 -49.5522 6.10534
      vertex 4.1 -49.373 6.04712
      vertex 4.1 -49.5522 6.10534
    endloop
  endfacet
  facet normal -0 0.187378 0.982288
    outer loop
      vertex 4.1 -49.188 6.01183
      vertex 8.1 -49.373 6.04712
      vertex 8.1 -49.188 6.01183
    endloop
  endfacet
  facet normal 0 0.187378 0.982288
    outer loop
      vertex 8.1 -49.373 6.04712
      vertex 4.1 -49.188 6.01183
      vertex 4.1 -49.373 6.04712
    endloop
  endfacet
  facet normal 0 0.968644 0.248452
    outer loop
      vertex 8.1 -50.4266 7.03647
      vertex 4.1 -50.4734 7.21893
      vertex 8.1 -50.4734 7.21893
    endloop
  endfacet
  facet normal 0 0.968644 0.248452
    outer loop
      vertex 4.1 -50.4734 7.21893
      vertex 8.1 -50.4266 7.03647
      vertex 4.1 -50.4266 7.03647
    endloop
  endfacet
  facet normal 0 1 -0
    outer loop
      vertex 8.1 -50.497 7.40581
      vertex 4.1 -50.497 7.59418
      vertex 8.1 -50.497 7.59418
    endloop
  endfacet
  facet normal 0 1 0
    outer loop
      vertex 4.1 -50.497 7.59418
      vertex 8.1 -50.497 7.40581
      vertex 4.1 -50.497 7.40581
    endloop
  endfacet
  facet normal 0 0.80908 0.587698
    outer loop
      vertex 8.1 -50.1558 6.54386
      vertex 4.1 -50.2665 6.69626
      vertex 8.1 -50.2665 6.69626
    endloop
  endfacet
  facet normal 0 0.80908 0.587698
    outer loop
      vertex 4.1 -50.2665 6.69626
      vertex 8.1 -50.1558 6.54386
      vertex 4.1 -50.1558 6.54386
    endloop
  endfacet
  facet normal 0 0.968641 -0.248465
    outer loop
      vertex 8.1 -50.4734 7.78107
      vertex 4.1 -50.4266 7.96352
      vertex 8.1 -50.4266 7.96352
    endloop
  endfacet
  facet normal 0 0.968641 -0.248465
    outer loop
      vertex 4.1 -50.4266 7.96352
      vertex 8.1 -50.4734 7.78107
      vertex 4.1 -50.4734 7.78107
    endloop
  endfacet
  facet normal 0 0.992121 -0.125283
    outer loop
      vertex 8.1 -50.497 7.59418
      vertex 4.1 -50.4734 7.78107
      vertex 8.1 -50.4734 7.78107
    endloop
  endfacet
  facet normal 0 0.992121 -0.125283
    outer loop
      vertex 4.1 -50.4734 7.78107
      vertex 8.1 -50.497 7.59418
      vertex 4.1 -50.497 7.59418
    endloop
  endfacet
  facet normal 0 0.308942 -0.951081
    outer loop
      vertex 4.1 -49.5522 8.89466
      vertex 8.1 -49.373 8.95287
      vertex 8.1 -49.5522 8.89466
    endloop
  endfacet
  facet normal 0 0.308942 -0.951081
    outer loop
      vertex 8.1 -49.373 8.95287
      vertex 4.1 -49.5522 8.89466
      vertex 4.1 -49.373 8.95287
    endloop
  endfacet
  facet normal 0 0.0628013 -0.998026
    outer loop
      vertex 4.1 -49.188 8.98817
      vertex 8.1 -49 9
      vertex 8.1 -49.188 8.98817
    endloop
  endfacet
  facet normal 0 0.0628013 -0.998026
    outer loop
      vertex 8.1 -49 9
      vertex 4.1 -49.188 8.98817
      vertex 4.1 -49 9
    endloop
  endfacet
  facet normal 0 -0.929673 0.368387
    outer loop
      vertex 4.1 -47.6428 6.86133
      vertex 8.1 -47.5734 7.03647
      vertex 4.1 -47.5734 7.03647
    endloop
  endfacet
  facet normal 0 -0.929673 0.368387
    outer loop
      vertex 8.1 -47.5734 7.03647
      vertex 4.1 -47.6428 6.86133
      vertex 8.1 -47.6428 6.86133
    endloop
  endfacet
  facet normal 0 -0.968644 0.248452
    outer loop
      vertex 4.1 -47.5734 7.03647
      vertex 8.1 -47.5266 7.21893
      vertex 4.1 -47.5266 7.21893
    endloop
  endfacet
  facet normal 0 -0.968644 0.248452
    outer loop
      vertex 8.1 -47.5266 7.21893
      vertex 4.1 -47.5734 7.03647
      vertex 8.1 -47.5734 7.03647
    endloop
  endfacet
  facet normal 0 -0.80908 0.587698
    outer loop
      vertex 4.1 -47.8442 6.54386
      vertex 8.1 -47.7335 6.69626
      vertex 4.1 -47.7335 6.69626
    endloop
  endfacet
  facet normal 0 -0.80908 0.587698
    outer loop
      vertex 8.1 -47.7335 6.69626
      vertex 4.1 -47.8442 6.54386
      vertex 8.1 -47.8442 6.54386
    endloop
  endfacet
  facet normal 0 -0.187378 0.982288
    outer loop
      vertex 4.1 -48.627 6.04712
      vertex 8.1 -48.812 6.01183
      vertex 8.1 -48.627 6.04712
    endloop
  endfacet
  facet normal 0 -0.187378 0.982288
    outer loop
      vertex 8.1 -48.812 6.01183
      vertex 4.1 -48.627 6.04712
      vertex 4.1 -48.812 6.01183
    endloop
  endfacet
  facet normal 0 -0.535683 0.844419
    outer loop
      vertex 4.1 -48.1183 6.28647
      vertex 8.1 -48.2774 6.18554
      vertex 8.1 -48.1183 6.28647
    endloop
  endfacet
  facet normal 0 -0.535683 0.844419
    outer loop
      vertex 8.1 -48.2774 6.18554
      vertex 4.1 -48.1183 6.28647
      vertex 4.1 -48.2774 6.18554
    endloop
  endfacet
  facet normal 0 -0.425848 0.904795
    outer loop
      vertex 4.1 -48.2774 6.18554
      vertex 8.1 -48.4478 6.10534
      vertex 8.1 -48.2774 6.18554
    endloop
  endfacet
  facet normal 0 -0.425848 0.904795
    outer loop
      vertex 8.1 -48.4478 6.10534
      vertex 4.1 -48.2774 6.18554
      vertex 4.1 -48.4478 6.10534
    endloop
  endfacet
  facet normal 0 -0.968641 -0.248465
    outer loop
      vertex 4.1 -47.5266 7.78107
      vertex 8.1 -47.5734 7.96352
      vertex 4.1 -47.5734 7.96352
    endloop
  endfacet
  facet normal 0 -0.968641 -0.248465
    outer loop
      vertex 8.1 -47.5734 7.96352
      vertex 4.1 -47.5266 7.78107
      vertex 8.1 -47.5266 7.78107
    endloop
  endfacet
  facet normal 0 -0.425848 -0.904795
    outer loop
      vertex 4.1 -48.4478 8.89466
      vertex 8.1 -48.2774 8.81446
      vertex 8.1 -48.4478 8.89466
    endloop
  endfacet
  facet normal -0 -0.425848 -0.904795
    outer loop
      vertex 8.1 -48.2774 8.81446
      vertex 4.1 -48.4478 8.89466
      vertex 4.1 -48.2774 8.81446
    endloop
  endfacet
  facet normal 0 -0.728817 -0.684709
    outer loop
      vertex 4.1 -47.8442 8.45614
      vertex 8.1 -47.9732 8.59345
      vertex 4.1 -47.9732 8.59345
    endloop
  endfacet
  facet normal 0 -0.728817 -0.684709
    outer loop
      vertex 8.1 -47.9732 8.59345
      vertex 4.1 -47.8442 8.45614
      vertex 8.1 -47.8442 8.45614
    endloop
  endfacet
  facet normal 0 -0.535721 -0.844395
    outer loop
      vertex 4.1 -48.2774 8.81446
      vertex 8.1 -48.1183 8.71352
      vertex 8.1 -48.2774 8.81446
    endloop
  endfacet
  facet normal -0 -0.535721 -0.844395
    outer loop
      vertex 8.1 -48.1183 8.71352
      vertex 4.1 -48.2774 8.81446
      vertex 4.1 -48.1183 8.71352
    endloop
  endfacet
  facet normal -0 0.535683 0.844419
    outer loop
      vertex 4.1 -49.7226 6.18554
      vertex 8.1 -49.8817 6.28647
      vertex 8.1 -49.7226 6.18554
    endloop
  endfacet
  facet normal 0 0.535683 0.844419
    outer loop
      vertex 8.1 -49.8817 6.28647
      vertex 4.1 -49.7226 6.18554
      vertex 4.1 -49.8817 6.28647
    endloop
  endfacet
  facet normal 0 0.728817 0.684709
    outer loop
      vertex 8.1 -50.0268 6.40655
      vertex 4.1 -50.1558 6.54386
      vertex 8.1 -50.1558 6.54386
    endloop
  endfacet
  facet normal 0 0.728817 0.684709
    outer loop
      vertex 4.1 -50.1558 6.54386
      vertex 8.1 -50.0268 6.40655
      vertex 4.1 -50.0268 6.40655
    endloop
  endfacet
  facet normal -0 0.637559 0.770402
    outer loop
      vertex 4.1 -49.8817 6.28647
      vertex 8.1 -50.0268 6.40655
      vertex 8.1 -49.8817 6.28647
    endloop
  endfacet
  facet normal 0 0.637559 0.770402
    outer loop
      vertex 8.1 -50.0268 6.40655
      vertex 4.1 -49.8817 6.28647
      vertex 4.1 -50.0268 6.40655
    endloop
  endfacet
  facet normal 0 0.99212 0.125289
    outer loop
      vertex 8.1 -50.4734 7.21893
      vertex 4.1 -50.497 7.40581
      vertex 8.1 -50.497 7.40581
    endloop
  endfacet
  facet normal 0 0.99212 0.125289
    outer loop
      vertex 4.1 -50.497 7.40581
      vertex 8.1 -50.4734 7.21893
      vertex 4.1 -50.4734 7.21893
    endloop
  endfacet
  facet normal 0 0.929673 0.368387
    outer loop
      vertex 8.1 -50.3572 6.86133
      vertex 4.1 -50.4266 7.03647
      vertex 8.1 -50.4266 7.03647
    endloop
  endfacet
  facet normal 0 0.929673 0.368387
    outer loop
      vertex 4.1 -50.4266 7.03647
      vertex 8.1 -50.3572 6.86133
      vertex 4.1 -50.3572 6.86133
    endloop
  endfacet
  facet normal 0 0.876414 0.481558
    outer loop
      vertex 8.1 -50.2665 6.69626
      vertex 4.1 -50.3572 6.86133
      vertex 8.1 -50.3572 6.86133
    endloop
  endfacet
  facet normal 0 0.876414 0.481558
    outer loop
      vertex 4.1 -50.3572 6.86133
      vertex 8.1 -50.2665 6.69626
      vertex 4.1 -50.2665 6.69626
    endloop
  endfacet
  facet normal 0 0.876414 -0.481558
    outer loop
      vertex 8.1 -50.3572 8.13867
      vertex 4.1 -50.2665 8.30374
      vertex 8.1 -50.2665 8.30374
    endloop
  endfacet
  facet normal 0 0.876414 -0.481558
    outer loop
      vertex 4.1 -50.2665 8.30374
      vertex 8.1 -50.3572 8.13867
      vertex 4.1 -50.3572 8.13867
    endloop
  endfacet
  facet normal 0 0.728817 -0.684709
    outer loop
      vertex 8.1 -50.1558 8.45614
      vertex 4.1 -50.0268 8.59345
      vertex 8.1 -50.0268 8.59345
    endloop
  endfacet
  facet normal 0 0.728817 -0.684709
    outer loop
      vertex 4.1 -50.0268 8.59345
      vertex 8.1 -50.1558 8.45614
      vertex 4.1 -50.1558 8.45614
    endloop
  endfacet
  facet normal 0 0.425848 -0.904795
    outer loop
      vertex 4.1 -49.7226 8.81446
      vertex 8.1 -49.5522 8.89466
      vertex 8.1 -49.7226 8.81446
    endloop
  endfacet
  facet normal 0 0.425848 -0.904795
    outer loop
      vertex 8.1 -49.5522 8.89466
      vertex 4.1 -49.7226 8.81446
      vertex 4.1 -49.5522 8.89466
    endloop
  endfacet
  facet normal 0 0.637528 -0.770428
    outer loop
      vertex 4.1 -50.0268 8.59345
      vertex 8.1 -49.8817 8.71352
      vertex 8.1 -50.0268 8.59345
    endloop
  endfacet
  facet normal 0 0.637528 -0.770428
    outer loop
      vertex 8.1 -49.8817 8.71352
      vertex 4.1 -50.0268 8.59345
      vertex 4.1 -49.8817 8.71352
    endloop
  endfacet
  facet normal 0 0.535721 -0.844395
    outer loop
      vertex 4.1 -49.8817 8.71352
      vertex 8.1 -49.7226 8.81446
      vertex 8.1 -49.8817 8.71352
    endloop
  endfacet
  facet normal 0 0.535721 -0.844395
    outer loop
      vertex 8.1 -49.7226 8.81446
      vertex 4.1 -49.8817 8.71352
      vertex 4.1 -49.7226 8.81446
    endloop
  endfacet
  facet normal 0 0.187429 -0.982278
    outer loop
      vertex 4.1 -49.373 8.95287
      vertex 8.1 -49.188 8.98817
      vertex 8.1 -49.373 8.95287
    endloop
  endfacet
  facet normal 0 0.187429 -0.982278
    outer loop
      vertex 8.1 -49.188 8.98817
      vertex 4.1 -49.373 8.95287
      vertex 4.1 -49.188 8.98817
    endloop
  endfacet
  facet normal 0 -0.0628013 0.998026
    outer loop
      vertex 4.1 -48.812 6.01183
      vertex 8.1 -49 6
      vertex 8.1 -48.812 6.01183
    endloop
  endfacet
  facet normal 0 -0.0628013 0.998026
    outer loop
      vertex 8.1 -49 6
      vertex 4.1 -48.812 6.01183
      vertex 4.1 -49 6
    endloop
  endfacet
  facet normal 0 -0.876414 0.481558
    outer loop
      vertex 4.1 -47.7335 6.69626
      vertex 8.1 -47.6428 6.86133
      vertex 4.1 -47.6428 6.86133
    endloop
  endfacet
  facet normal 0 -0.876414 0.481558
    outer loop
      vertex 8.1 -47.6428 6.86133
      vertex 4.1 -47.7335 6.69626
      vertex 8.1 -47.7335 6.69626
    endloop
  endfacet
  facet normal 0 -0.728817 0.684709
    outer loop
      vertex 4.1 -47.9732 6.40655
      vertex 8.1 -47.8442 6.54386
      vertex 4.1 -47.8442 6.54386
    endloop
  endfacet
  facet normal 0 -0.728817 0.684709
    outer loop
      vertex 8.1 -47.8442 6.54386
      vertex 4.1 -47.9732 6.40655
      vertex 8.1 -47.9732 6.40655
    endloop
  endfacet
  facet normal 0 -0.30899 0.951065
    outer loop
      vertex 4.1 -48.4478 6.10534
      vertex 8.1 -48.627 6.04712
      vertex 8.1 -48.4478 6.10534
    endloop
  endfacet
  facet normal 0 -0.30899 0.951065
    outer loop
      vertex 8.1 -48.627 6.04712
      vertex 4.1 -48.4478 6.10534
      vertex 4.1 -48.627 6.04712
    endloop
  endfacet
  facet normal -0 0.0628013 0.998026
    outer loop
      vertex 4.1 -49 6
      vertex 8.1 -49.188 6.01183
      vertex 8.1 -49 6
    endloop
  endfacet
  facet normal 0 0.0628013 0.998026
    outer loop
      vertex 8.1 -49.188 6.01183
      vertex 4.1 -49 6
      vertex 4.1 -49.188 6.01183
    endloop
  endfacet
  facet normal 0 -0.876414 -0.481558
    outer loop
      vertex 4.1 -47.6428 8.13867
      vertex 8.1 -47.7335 8.30374
      vertex 4.1 -47.7335 8.30374
    endloop
  endfacet
  facet normal 0 -0.876414 -0.481558
    outer loop
      vertex 8.1 -47.7335 8.30374
      vertex 4.1 -47.6428 8.13867
      vertex 8.1 -47.6428 8.13867
    endloop
  endfacet
  facet normal 0 -1 0
    outer loop
      vertex 4.1 -47.503 7.40581
      vertex 8.1 -47.503 7.59418
      vertex 4.1 -47.503 7.59418
    endloop
  endfacet
  facet normal 0 -1 -0
    outer loop
      vertex 8.1 -47.503 7.59418
      vertex 4.1 -47.503 7.40581
      vertex 8.1 -47.503 7.40581
    endloop
  endfacet
  facet normal 0 -0.92968 -0.368369
    outer loop
      vertex 4.1 -47.5734 7.96352
      vertex 8.1 -47.6428 8.13867
      vertex 4.1 -47.6428 8.13867
    endloop
  endfacet
  facet normal 0 -0.92968 -0.368369
    outer loop
      vertex 8.1 -47.6428 8.13867
      vertex 4.1 -47.5734 7.96352
      vertex 8.1 -47.5734 7.96352
    endloop
  endfacet
  facet normal 0 -0.637528 -0.770428
    outer loop
      vertex 4.1 -48.1183 8.71352
      vertex 8.1 -47.9732 8.59345
      vertex 8.1 -48.1183 8.71352
    endloop
  endfacet
  facet normal -0 -0.637528 -0.770428
    outer loop
      vertex 8.1 -47.9732 8.59345
      vertex 4.1 -48.1183 8.71352
      vertex 4.1 -47.9732 8.59345
    endloop
  endfacet
  facet normal 0 -0.308942 -0.951081
    outer loop
      vertex 4.1 -48.627 8.95287
      vertex 8.1 -48.4478 8.89466
      vertex 8.1 -48.627 8.95287
    endloop
  endfacet
  facet normal -0 -0.308942 -0.951081
    outer loop
      vertex 8.1 -48.4478 8.89466
      vertex 4.1 -48.627 8.95287
      vertex 4.1 -48.4478 8.89466
    endloop
  endfacet
  facet normal -0 0.425848 0.904795
    outer loop
      vertex 4.1 -49.5522 6.10534
      vertex 8.1 -49.7226 6.18554
      vertex 8.1 -49.5522 6.10534
    endloop
  endfacet
  facet normal 0 0.425848 0.904795
    outer loop
      vertex 8.1 -49.7226 6.18554
      vertex 4.1 -49.5522 6.10534
      vertex 4.1 -49.7226 6.18554
    endloop
  endfacet
  facet normal 0 0.92968 -0.368369
    outer loop
      vertex 8.1 -50.4266 7.96352
      vertex 4.1 -50.3572 8.13867
      vertex 8.1 -50.3572 8.13867
    endloop
  endfacet
  facet normal 0 0.92968 -0.368369
    outer loop
      vertex 4.1 -50.3572 8.13867
      vertex 8.1 -50.4266 7.96352
      vertex 4.1 -50.4266 7.96352
    endloop
  endfacet
  facet normal 0 0.80908 -0.587698
    outer loop
      vertex 8.1 -50.2665 8.30374
      vertex 4.1 -50.1558 8.45614
      vertex 8.1 -50.1558 8.45614
    endloop
  endfacet
  facet normal 0 0.80908 -0.587698
    outer loop
      vertex 4.1 -50.1558 8.45614
      vertex 8.1 -50.2665 8.30374
      vertex 4.1 -50.2665 8.30374
    endloop
  endfacet
  facet normal 0 -0.992121 -0.125283
    outer loop
      vertex 4.1 -47.503 7.59418
      vertex 8.1 -47.5266 7.78107
      vertex 4.1 -47.5266 7.78107
    endloop
  endfacet
  facet normal 0 -0.992121 -0.125283
    outer loop
      vertex 8.1 -47.5266 7.78107
      vertex 4.1 -47.503 7.59418
      vertex 8.1 -47.503 7.59418
    endloop
  endfacet
  facet normal 0 0 -1
    outer loop
      vertex 4.1 -15.9 0
      vertex 8.1 -5.9 0
      vertex 8.1 -15.9 0
    endloop
  endfacet
  facet normal -0 0 -1
    outer loop
      vertex 8.1 -5.9 0
      vertex 4.1 -15.9 0
      vertex 4.1 -5.9 0
    endloop
  endfacet
  facet normal -1 0 0
    outer loop
      vertex 4.1 -5.9 0
      vertex 4.1 -9.40296 7.40581
      vertex 4.1 -5.9 15
    endloop
  endfacet
  facet normal -1 0 0
    outer loop
      vertex 4.1 -5.9 0
      vertex 4.1 -9.42657 7.21893
      vertex 4.1 -9.40296 7.40581
    endloop
  endfacet
  facet normal -1 0 0
    outer loop
      vertex 4.1 -5.9 0
      vertex 4.1 -9.47342 7.03647
      vertex 4.1 -9.42657 7.21893
    endloop
  endfacet
  facet normal -1 0 0
    outer loop
      vertex 4.1 -5.9 0
      vertex 4.1 -9.54276 6.86133
      vertex 4.1 -9.47342 7.03647
    endloop
  endfacet
  facet normal -1 0 0
    outer loop
      vertex 4.1 -5.9 0
      vertex 4.1 -9.63351 6.69626
      vertex 4.1 -9.54276 6.86133
    endloop
  endfacet
  facet normal -1 0 0
    outer loop
      vertex 4.1 -5.9 0
      vertex 4.1 -9.74423 6.54386
      vertex 4.1 -9.63351 6.69626
    endloop
  endfacet
  facet normal -1 0 0
    outer loop
      vertex 4.1 -5.9 0
      vertex 4.1 -9.87318 6.40655
      vertex 4.1 -9.74423 6.54386
    endloop
  endfacet
  facet normal -1 0 0
    outer loop
      vertex 4.1 -5.9 0
      vertex 4.1 -10.0183 6.28647
      vertex 4.1 -9.87318 6.40655
    endloop
  endfacet
  facet normal -1 0 0
    outer loop
      vertex 4.1 -5.9 0
      vertex 4.1 -10.1774 6.18554
      vertex 4.1 -10.0183 6.28647
    endloop
  endfacet
  facet normal -1 0 0
    outer loop
      vertex 4.1 -5.9 0
      vertex 4.1 -10.3478 6.10534
      vertex 4.1 -10.1774 6.18554
    endloop
  endfacet
  facet normal -1 0 0
    outer loop
      vertex 4.1 -5.9 0
      vertex 4.1 -10.527 6.04712
      vertex 4.1 -10.3478 6.10534
    endloop
  endfacet
  facet normal -1 0 0
    outer loop
      vertex 4.1 -5.9 0
      vertex 4.1 -10.712 6.01183
      vertex 4.1 -10.527 6.04712
    endloop
  endfacet
  facet normal -1 0 0
    outer loop
      vertex 4.1 -5.9 0
      vertex 4.1 -10.9 6
      vertex 4.1 -10.712 6.01183
    endloop
  endfacet
  facet normal -1 0 0
    outer loop
      vertex 4.1 -15.9 0
      vertex 4.1 -10.9 6
      vertex 4.1 -5.9 0
    endloop
  endfacet
  facet normal -1 -0 0
    outer loop
      vertex 4.1 -10.9 6
      vertex 4.1 -15.9 0
      vertex 4.1 -11.088 6.01183
    endloop
  endfacet
  facet normal -1 -0 0
    outer loop
      vertex 4.1 -11.088 6.01183
      vertex 4.1 -15.9 0
      vertex 4.1 -11.273 6.04712
    endloop
  endfacet
  facet normal -1 -0 0
    outer loop
      vertex 4.1 -11.273 6.04712
      vertex 4.1 -15.9 0
      vertex 4.1 -11.4522 6.10534
    endloop
  endfacet
  facet normal -1 -0 0
    outer loop
      vertex 4.1 -11.4522 6.10534
      vertex 4.1 -15.9 0
      vertex 4.1 -11.6226 6.18554
    endloop
  endfacet
  facet normal -1 -0 0
    outer loop
      vertex 4.1 -11.6226 6.18554
      vertex 4.1 -15.9 0
      vertex 4.1 -11.7817 6.28647
    endloop
  endfacet
  facet normal -1 -0 0
    outer loop
      vertex 4.1 -12.397 7.40581
      vertex 4.1 -15.9 0
      vertex 4.1 -12.397 7.59418
    endloop
  endfacet
  facet normal -1 -0 0
    outer loop
      vertex 4.1 -12.3734 7.21893
      vertex 4.1 -15.9 0
      vertex 4.1 -12.397 7.40581
    endloop
  endfacet
  facet normal -1 -0 0
    outer loop
      vertex 4.1 -12.3266 7.03647
      vertex 4.1 -15.9 0
      vertex 4.1 -12.3734 7.21893
    endloop
  endfacet
  facet normal -1 -0 0
    outer loop
      vertex 4.1 -12.2572 6.86133
      vertex 4.1 -15.9 0
      vertex 4.1 -12.3266 7.03647
    endloop
  endfacet
  facet normal -1 -0 0
    outer loop
      vertex 4.1 -12.1665 6.69626
      vertex 4.1 -15.9 0
      vertex 4.1 -12.2572 6.86133
    endloop
  endfacet
  facet normal -1 -0 0
    outer loop
      vertex 4.1 -12.0558 6.54386
      vertex 4.1 -15.9 0
      vertex 4.1 -12.1665 6.69626
    endloop
  endfacet
  facet normal -1 -0 0
    outer loop
      vertex 4.1 -11.9268 6.40655
      vertex 4.1 -15.9 0
      vertex 4.1 -12.0558 6.54386
    endloop
  endfacet
  facet normal -1 -0 0
    outer loop
      vertex 4.1 -11.7817 6.28647
      vertex 4.1 -15.9 0
      vertex 4.1 -11.9268 6.40655
    endloop
  endfacet
  facet normal -1 0 0
    outer loop
      vertex 4.1 -9.40296 7.59418
      vertex 4.1 -5.9 15
      vertex 4.1 -9.40296 7.40581
    endloop
  endfacet
  facet normal -1 0 0
    outer loop
      vertex 4.1 -9.42657 7.78107
      vertex 4.1 -5.9 15
      vertex 4.1 -9.40296 7.59418
    endloop
  endfacet
  facet normal -1 0 0
    outer loop
      vertex 4.1 -9.47342 7.96352
      vertex 4.1 -5.9 15
      vertex 4.1 -9.42657 7.78107
    endloop
  endfacet
  facet normal -1 0 0
    outer loop
      vertex 4.1 -9.54276 8.13867
      vertex 4.1 -5.9 15
      vertex 4.1 -9.47342 7.96352
    endloop
  endfacet
  facet normal -1 0 0
    outer loop
      vertex 4.1 -9.63351 8.30374
      vertex 4.1 -5.9 15
      vertex 4.1 -9.54276 8.13867
    endloop
  endfacet
  facet normal -1 0 0
    outer loop
      vertex 4.1 -9.74423 8.45614
      vertex 4.1 -5.9 15
      vertex 4.1 -9.63351 8.30374
    endloop
  endfacet
  facet normal -1 0 0
    outer loop
      vertex 4.1 -9.87318 8.59345
      vertex 4.1 -5.9 15
      vertex 4.1 -9.74423 8.45614
    endloop
  endfacet
  facet normal -1 0 0
    outer loop
      vertex 4.1 -10.0183 8.71352
      vertex 4.1 -5.9 15
      vertex 4.1 -9.87318 8.59345
    endloop
  endfacet
  facet normal -1 0 0
    outer loop
      vertex 4.1 -10.1774 8.81446
      vertex 4.1 -5.9 15
      vertex 4.1 -10.0183 8.71352
    endloop
  endfacet
  facet normal -1 0 0
    outer loop
      vertex 4.1 -10.3478 8.89466
      vertex 4.1 -5.9 15
      vertex 4.1 -10.1774 8.81446
    endloop
  endfacet
  facet normal -1 0 0
    outer loop
      vertex 4.1 -10.527 8.95287
      vertex 4.1 -5.9 15
      vertex 4.1 -10.3478 8.89466
    endloop
  endfacet
  facet normal -1 0 0
    outer loop
      vertex 4.1 -10.712 8.98817
      vertex 4.1 -5.9 15
      vertex 4.1 -10.527 8.95287
    endloop
  endfacet
  facet normal -1 0 0
    outer loop
      vertex 4.1 -10.9 9
      vertex 4.1 -5.9 15
      vertex 4.1 -10.712 8.98817
    endloop
  endfacet
  facet normal -1 0 0
    outer loop
      vertex 4.1 -15.9 15
      vertex 4.1 -10.9 9
      vertex 4.1 -11.088 8.98817
    endloop
  endfacet
  facet normal -1 0 0
    outer loop
      vertex 4.1 -15.9 15
      vertex 4.1 -11.088 8.98817
      vertex 4.1 -11.273 8.95287
    endloop
  endfacet
  facet normal -1 0 0
    outer loop
      vertex 4.1 -15.9 15
      vertex 4.1 -11.273 8.95287
      vertex 4.1 -11.4522 8.89466
    endloop
  endfacet
  facet normal -1 0 0
    outer loop
      vertex 4.1 -15.9 15
      vertex 4.1 -11.4522 8.89466
      vertex 4.1 -11.6226 8.81446
    endloop
  endfacet
  facet normal -1 0 0
    outer loop
      vertex 4.1 -15.9 15
      vertex 4.1 -11.6226 8.81446
      vertex 4.1 -11.7817 8.71352
    endloop
  endfacet
  facet normal -1 0 0
    outer loop
      vertex 4.1 -15.9 15
      vertex 4.1 -11.7817 8.71352
      vertex 4.1 -11.9268 8.59345
    endloop
  endfacet
  facet normal -1 0 0
    outer loop
      vertex 4.1 -15.9 15
      vertex 4.1 -12.397 7.59418
      vertex 4.1 -15.9 0
    endloop
  endfacet
  facet normal -1 0 0
    outer loop
      vertex 4.1 -12.397 7.59418
      vertex 4.1 -15.9 15
      vertex 4.1 -12.3734 7.78107
    endloop
  endfacet
  facet normal -1 0 0
    outer loop
      vertex 4.1 -12.3734 7.78107
      vertex 4.1 -15.9 15
      vertex 4.1 -12.3266 7.96352
    endloop
  endfacet
  facet normal -1 0 0
    outer loop
      vertex 4.1 -10.9 9
      vertex 4.1 -15.9 15
      vertex 4.1 -5.9 15
    endloop
  endfacet
  facet normal -1 0 0
    outer loop
      vertex 4.1 -12.0558 8.45614
      vertex 4.1 -15.9 15
      vertex 4.1 -11.9268 8.59345
    endloop
  endfacet
  facet normal -1 0 0
    outer loop
      vertex 4.1 -12.1665 8.30374
      vertex 4.1 -15.9 15
      vertex 4.1 -12.0558 8.45614
    endloop
  endfacet
  facet normal -1 0 0
    outer loop
      vertex 4.1 -12.2572 8.13867
      vertex 4.1 -15.9 15
      vertex 4.1 -12.1665 8.30374
    endloop
  endfacet
  facet normal -1 0 0
    outer loop
      vertex 4.1 -12.3266 7.96352
      vertex 4.1 -15.9 15
      vertex 4.1 -12.2572 8.13867
    endloop
  endfacet
  facet normal -0 0 1
    outer loop
      vertex 4.1 -5.9 15
      vertex 8.1 -15.9 15
      vertex 8.1 -5.9 15
    endloop
  endfacet
  facet normal 0 0 1
    outer loop
      vertex 8.1 -15.9 15
      vertex 4.1 -5.9 15
      vertex 4.1 -15.9 15
    endloop
  endfacet
  facet normal 0 1 -0
    outer loop
      vertex 8.1 -5.9 0
      vertex 4.1 -5.9 15
      vertex 8.1 -5.9 15
    endloop
  endfacet
  facet normal 0 1 0
    outer loop
      vertex 4.1 -5.9 15
      vertex 8.1 -5.9 0
      vertex 4.1 -5.9 0
    endloop
  endfacet
  facet normal 1 0 0
    outer loop
      vertex 8.1 -5.9 15
      vertex 8.1 -9.40296 7.59418
      vertex 8.1 -5.9 0
    endloop
  endfacet
  facet normal 1 0 0
    outer loop
      vertex 8.1 -5.9 15
      vertex 8.1 -9.42657 7.78107
      vertex 8.1 -9.40296 7.59418
    endloop
  endfacet
  facet normal 1 0 0
    outer loop
      vertex 8.1 -5.9 15
      vertex 8.1 -9.47342 7.96352
      vertex 8.1 -9.42657 7.78107
    endloop
  endfacet
  facet normal 1 0 0
    outer loop
      vertex 8.1 -5.9 15
      vertex 8.1 -9.54276 8.13867
      vertex 8.1 -9.47342 7.96352
    endloop
  endfacet
  facet normal 1 0 0
    outer loop
      vertex 8.1 -5.9 15
      vertex 8.1 -9.63351 8.30374
      vertex 8.1 -9.54276 8.13867
    endloop
  endfacet
  facet normal 1 0 0
    outer loop
      vertex 8.1 -5.9 15
      vertex 8.1 -9.74423 8.45614
      vertex 8.1 -9.63351 8.30374
    endloop
  endfacet
  facet normal 1 0 0
    outer loop
      vertex 8.1 -5.9 15
      vertex 8.1 -9.87318 8.59345
      vertex 8.1 -9.74423 8.45614
    endloop
  endfacet
  facet normal 1 0 0
    outer loop
      vertex 8.1 -5.9 15
      vertex 8.1 -10.0183 8.71352
      vertex 8.1 -9.87318 8.59345
    endloop
  endfacet
  facet normal 1 0 0
    outer loop
      vertex 8.1 -5.9 15
      vertex 8.1 -10.1774 8.81446
      vertex 8.1 -10.0183 8.71352
    endloop
  endfacet
  facet normal 1 0 0
    outer loop
      vertex 8.1 -5.9 15
      vertex 8.1 -10.3478 8.89466
      vertex 8.1 -10.1774 8.81446
    endloop
  endfacet
  facet normal 1 0 0
    outer loop
      vertex 8.1 -5.9 15
      vertex 8.1 -10.527 8.95287
      vertex 8.1 -10.3478 8.89466
    endloop
  endfacet
  facet normal 1 0 0
    outer loop
      vertex 8.1 -5.9 15
      vertex 8.1 -10.712 8.98817
      vertex 8.1 -10.527 8.95287
    endloop
  endfacet
  facet normal 1 0 0
    outer loop
      vertex 8.1 -5.9 15
      vertex 8.1 -10.9 9
      vertex 8.1 -10.712 8.98817
    endloop
  endfacet
  facet normal 1 -0 0
    outer loop
      vertex 8.1 -15.9 15
      vertex 8.1 -10.9 9
      vertex 8.1 -5.9 15
    endloop
  endfacet
  facet normal 1 0 0
    outer loop
      vertex 8.1 -10.9 9
      vertex 8.1 -15.9 15
      vertex 8.1 -11.088 8.98817
    endloop
  endfacet
  facet normal 1 0 0
    outer loop
      vertex 8.1 -11.088 8.98817
      vertex 8.1 -15.9 15
      vertex 8.1 -11.273 8.95287
    endloop
  endfacet
  facet normal 1 0 0
    outer loop
      vertex 8.1 -11.273 8.95287
      vertex 8.1 -15.9 15
      vertex 8.1 -11.4522 8.89466
    endloop
  endfacet
  facet normal 1 0 0
    outer loop
      vertex 8.1 -11.4522 8.89466
      vertex 8.1 -15.9 15
      vertex 8.1 -11.6226 8.81446
    endloop
  endfacet
  facet normal 1 0 0
    outer loop
      vertex 8.1 -11.6226 8.81446
      vertex 8.1 -15.9 15
      vertex 8.1 -11.7817 8.71352
    endloop
  endfacet
  facet normal 1 0 0
    outer loop
      vertex 8.1 -12.397 7.59418
      vertex 8.1 -15.9 15
      vertex 8.1 -12.397 7.40581
    endloop
  endfacet
  facet normal 1 0 0
    outer loop
      vertex 8.1 -12.3734 7.78107
      vertex 8.1 -15.9 15
      vertex 8.1 -12.397 7.59418
    endloop
  endfacet
  facet normal 1 0 0
    outer loop
      vertex 8.1 -12.3266 7.96352
      vertex 8.1 -15.9 15
      vertex 8.1 -12.3734 7.78107
    endloop
  endfacet
  facet normal 1 0 0
    outer loop
      vertex 8.1 -12.2572 8.13867
      vertex 8.1 -15.9 15
      vertex 8.1 -12.3266 7.96352
    endloop
  endfacet
  facet normal 1 0 0
    outer loop
      vertex 8.1 -12.1665 8.30374
      vertex 8.1 -15.9 15
      vertex 8.1 -12.2572 8.13867
    endloop
  endfacet
  facet normal 1 0 0
    outer loop
      vertex 8.1 -12.0558 8.45614
      vertex 8.1 -15.9 15
      vertex 8.1 -12.1665 8.30374
    endloop
  endfacet
  facet normal 1 0 0
    outer loop
      vertex 8.1 -11.9268 8.59345
      vertex 8.1 -15.9 15
      vertex 8.1 -12.0558 8.45614
    endloop
  endfacet
  facet normal 1 0 0
    outer loop
      vertex 8.1 -11.7817 8.71352
      vertex 8.1 -15.9 15
      vertex 8.1 -11.9268 8.59345
    endloop
  endfacet
  facet normal 1 -0 0
    outer loop
      vertex 8.1 -9.40296 7.40581
      vertex 8.1 -5.9 0
      vertex 8.1 -9.40296 7.59418
    endloop
  endfacet
  facet normal 1 -0 0
    outer loop
      vertex 8.1 -9.42657 7.21893
      vertex 8.1 -5.9 0
      vertex 8.1 -9.40296 7.40581
    endloop
  endfacet
  facet normal 1 -0 0
    outer loop
      vertex 8.1 -9.47342 7.03647
      vertex 8.1 -5.9 0
      vertex 8.1 -9.42657 7.21893
    endloop
  endfacet
  facet normal 1 -0 0
    outer loop
      vertex 8.1 -9.54276 6.86133
      vertex 8.1 -5.9 0
      vertex 8.1 -9.47342 7.03647
    endloop
  endfacet
  facet normal 1 -0 0
    outer loop
      vertex 8.1 -9.63351 6.69626
      vertex 8.1 -5.9 0
      vertex 8.1 -9.54276 6.86133
    endloop
  endfacet
  facet normal 1 -0 0
    outer loop
      vertex 8.1 -9.74423 6.54386
      vertex 8.1 -5.9 0
      vertex 8.1 -9.63351 6.69626
    endloop
  endfacet
  facet normal 1 -0 0
    outer loop
      vertex 8.1 -9.87318 6.40655
      vertex 8.1 -5.9 0
      vertex 8.1 -9.74423 6.54386
    endloop
  endfacet
  facet normal 1 -0 0
    outer loop
      vertex 8.1 -10.0183 6.28647
      vertex 8.1 -5.9 0
      vertex 8.1 -9.87318 6.40655
    endloop
  endfacet
  facet normal 1 -0 0
    outer loop
      vertex 8.1 -10.1774 6.18554
      vertex 8.1 -5.9 0
      vertex 8.1 -10.0183 6.28647
    endloop
  endfacet
  facet normal 1 -0 0
    outer loop
      vertex 8.1 -10.3478 6.10534
      vertex 8.1 -5.9 0
      vertex 8.1 -10.1774 6.18554
    endloop
  endfacet
  facet normal 1 -0 0
    outer loop
      vertex 8.1 -10.527 6.04712
      vertex 8.1 -5.9 0
      vertex 8.1 -10.3478 6.10534
    endloop
  endfacet
  facet normal 1 -0 0
    outer loop
      vertex 8.1 -10.712 6.01183
      vertex 8.1 -5.9 0
      vertex 8.1 -10.527 6.04712
    endloop
  endfacet
  facet normal 1 -0 0
    outer loop
      vertex 8.1 -10.9 6
      vertex 8.1 -5.9 0
      vertex 8.1 -10.712 6.01183
    endloop
  endfacet
  facet normal 1 0 0
    outer loop
      vertex 8.1 -15.9 0
      vertex 8.1 -10.9 6
      vertex 8.1 -11.088 6.01183
    endloop
  endfacet
  facet normal 1 0 0
    outer loop
      vertex 8.1 -15.9 0
      vertex 8.1 -11.088 6.01183
      vertex 8.1 -11.273 6.04712
    endloop
  endfacet
  facet normal 1 0 0
    outer loop
      vertex 8.1 -15.9 0
      vertex 8.1 -11.273 6.04712
      vertex 8.1 -11.4522 6.10534
    endloop
  endfacet
  facet normal 1 0 0
    outer loop
      vertex 8.1 -15.9 0
      vertex 8.1 -11.4522 6.10534
      vertex 8.1 -11.6226 6.18554
    endloop
  endfacet
  facet normal 1 0 0
    outer loop
      vertex 8.1 -15.9 0
      vertex 8.1 -11.6226 6.18554
      vertex 8.1 -11.7817 6.28647
    endloop
  endfacet
  facet normal 1 0 0
    outer loop
      vertex 8.1 -15.9 0
      vertex 8.1 -11.7817 6.28647
      vertex 8.1 -11.9268 6.40655
    endloop
  endfacet
  facet normal 1 0 0
    outer loop
      vertex 8.1 -15.9 0
      vertex 8.1 -12.397 7.40581
      vertex 8.1 -15.9 15
    endloop
  endfacet
  facet normal 1 0 0
    outer loop
      vertex 8.1 -12.397 7.40581
      vertex 8.1 -15.9 0
      vertex 8.1 -12.3734 7.21893
    endloop
  endfacet
  facet normal 1 0 0
    outer loop
      vertex 8.1 -12.3734 7.21893
      vertex 8.1 -15.9 0
      vertex 8.1 -12.3266 7.03647
    endloop
  endfacet
  facet normal 1 0 0
    outer loop
      vertex 8.1 -10.9 6
      vertex 8.1 -15.9 0
      vertex 8.1 -5.9 0
    endloop
  endfacet
  facet normal 1 0 0
    outer loop
      vertex 8.1 -12.0558 6.54386
      vertex 8.1 -15.9 0
      vertex 8.1 -11.9268 6.40655
    endloop
  endfacet
  facet normal 1 0 0
    outer loop
      vertex 8.1 -12.1665 6.69626
      vertex 8.1 -15.9 0
      vertex 8.1 -12.0558 6.54386
    endloop
  endfacet
  facet normal 1 0 0
    outer loop
      vertex 8.1 -12.2572 6.86133
      vertex 8.1 -15.9 0
      vertex 8.1 -12.1665 6.69626
    endloop
  endfacet
  facet normal 1 0 0
    outer loop
      vertex 8.1 -12.3266 7.03647
      vertex 8.1 -15.9 0
      vertex 8.1 -12.2572 6.86133
    endloop
  endfacet
  facet normal 0 -1 0
    outer loop
      vertex 4.1 -15.9 0
      vertex 8.1 -15.9 15
      vertex 4.1 -15.9 15
    endloop
  endfacet
  facet normal 0 -1 -0
    outer loop
      vertex 8.1 -15.9 15
      vertex 4.1 -15.9 0
      vertex 8.1 -15.9 0
    endloop
  endfacet
  facet normal 0 -0.187429 -0.982278
    outer loop
      vertex 4.1 -10.712 8.98817
      vertex 8.1 -10.527 8.95287
      vertex 8.1 -10.712 8.98817
    endloop
  endfacet
  facet normal -0 -0.187429 -0.982278
    outer loop
      vertex 8.1 -10.527 8.95287
      vertex 4.1 -10.712 8.98817
      vertex 4.1 -10.527 8.95287
    endloop
  endfacet
  facet normal 0 -0.0628013 -0.998026
    outer loop
      vertex 4.1 -10.9 9
      vertex 8.1 -10.712 8.98817
      vertex 8.1 -10.9 9
    endloop
  endfacet
  facet normal -0 -0.0628013 -0.998026
    outer loop
      vertex 8.1 -10.712 8.98817
      vertex 4.1 -10.9 9
      vertex 4.1 -10.712 8.98817
    endloop
  endfacet
  facet normal 0 -0.992114 0.125341
    outer loop
      vertex 4.1 -9.42657 7.21893
      vertex 8.1 -9.40296 7.40581
      vertex 4.1 -9.40296 7.40581
    endloop
  endfacet
  facet normal 0 -0.992114 0.125341
    outer loop
      vertex 8.1 -9.40296 7.40581
      vertex 4.1 -9.42657 7.21893
      vertex 8.1 -9.42657 7.21893
    endloop
  endfacet
  facet normal 0 -0.80903 -0.587768
    outer loop
      vertex 4.1 -9.63351 8.30374
      vertex 8.1 -9.74423 8.45614
      vertex 4.1 -9.74423 8.45614
    endloop
  endfacet
  facet normal 0 -0.80903 -0.587768
    outer loop
      vertex 8.1 -9.74423 8.45614
      vertex 4.1 -9.63351 8.30374
      vertex 8.1 -9.63351 8.30374
    endloop
  endfacet
  facet normal 0 -0.637507 0.770445
    outer loop
      vertex 4.1 -9.87318 6.40655
      vertex 8.1 -10.0183 6.28647
      vertex 8.1 -9.87318 6.40655
    endloop
  endfacet
  facet normal 0 -0.637507 0.770445
    outer loop
      vertex 8.1 -10.0183 6.28647
      vertex 4.1 -9.87318 6.40655
      vertex 4.1 -10.0183 6.28647
    endloop
  endfacet
  facet normal -0 0.30899 0.951065
    outer loop
      vertex 4.1 -11.273 6.04712
      vertex 8.1 -11.4522 6.10534
      vertex 8.1 -11.273 6.04712
    endloop
  endfacet
  facet normal 0 0.30899 0.951065
    outer loop
      vertex 8.1 -11.4522 6.10534
      vertex 4.1 -11.273 6.04712
      vertex 4.1 -11.4522 6.10534
    endloop
  endfacet
  facet normal -0 0.187378 0.982288
    outer loop
      vertex 4.1 -11.088 6.01183
      vertex 8.1 -11.273 6.04712
      vertex 8.1 -11.088 6.01183
    endloop
  endfacet
  facet normal 0 0.187378 0.982288
    outer loop
      vertex 8.1 -11.273 6.04712
      vertex 4.1 -11.088 6.01183
      vertex 4.1 -11.273 6.04712
    endloop
  endfacet
  facet normal 0 0.968644 0.248452
    outer loop
      vertex 8.1 -12.3266 7.03647
      vertex 4.1 -12.3734 7.21893
      vertex 8.1 -12.3734 7.21893
    endloop
  endfacet
  facet normal 0 0.968644 0.248452
    outer loop
      vertex 4.1 -12.3734 7.21893
      vertex 8.1 -12.3266 7.03647
      vertex 4.1 -12.3266 7.03647
    endloop
  endfacet
  facet normal 0 1 -0
    outer loop
      vertex 8.1 -12.397 7.40581
      vertex 4.1 -12.397 7.59418
      vertex 8.1 -12.397 7.59418
    endloop
  endfacet
  facet normal 0 1 0
    outer loop
      vertex 4.1 -12.397 7.59418
      vertex 8.1 -12.397 7.40581
      vertex 4.1 -12.397 7.40581
    endloop
  endfacet
  facet normal 0 0.80908 0.587698
    outer loop
      vertex 8.1 -12.0558 6.54386
      vertex 4.1 -12.1665 6.69626
      vertex 8.1 -12.1665 6.69626
    endloop
  endfacet
  facet normal 0 0.80908 0.587698
    outer loop
      vertex 4.1 -12.1665 6.69626
      vertex 8.1 -12.0558 6.54386
      vertex 4.1 -12.0558 6.54386
    endloop
  endfacet
  facet normal 0 0.968641 -0.248465
    outer loop
      vertex 8.1 -12.3734 7.78107
      vertex 4.1 -12.3266 7.96352
      vertex 8.1 -12.3266 7.96352
    endloop
  endfacet
  facet normal 0 0.968641 -0.248465
    outer loop
      vertex 4.1 -12.3266 7.96352
      vertex 8.1 -12.3734 7.78107
      vertex 4.1 -12.3734 7.78107
    endloop
  endfacet
  facet normal 0 0.992121 -0.125283
    outer loop
      vertex 8.1 -12.397 7.59418
      vertex 4.1 -12.3734 7.78107
      vertex 8.1 -12.3734 7.78107
    endloop
  endfacet
  facet normal 0 0.992121 -0.125283
    outer loop
      vertex 4.1 -12.3734 7.78107
      vertex 8.1 -12.397 7.59418
      vertex 4.1 -12.397 7.59418
    endloop
  endfacet
  facet normal 0 0.308942 -0.951081
    outer loop
      vertex 4.1 -11.4522 8.89466
      vertex 8.1 -11.273 8.95287
      vertex 8.1 -11.4522 8.89466
    endloop
  endfacet
  facet normal 0 0.308942 -0.951081
    outer loop
      vertex 8.1 -11.273 8.95287
      vertex 4.1 -11.4522 8.89466
      vertex 4.1 -11.273 8.95287
    endloop
  endfacet
  facet normal 0 0.0628013 -0.998026
    outer loop
      vertex 4.1 -11.088 8.98817
      vertex 8.1 -10.9 9
      vertex 8.1 -11.088 8.98817
    endloop
  endfacet
  facet normal 0 0.0628013 -0.998026
    outer loop
      vertex 8.1 -10.9 9
      vertex 4.1 -11.088 8.98817
      vertex 4.1 -10.9 9
    endloop
  endfacet
  facet normal 0 -0.929782 0.368112
    outer loop
      vertex 4.1 -9.54276 6.86133
      vertex 8.1 -9.47342 7.03647
      vertex 4.1 -9.47342 7.03647
    endloop
  endfacet
  facet normal 0 -0.929782 0.368112
    outer loop
      vertex 8.1 -9.47342 7.03647
      vertex 4.1 -9.54276 6.86133
      vertex 8.1 -9.54276 6.86133
    endloop
  endfacet
  facet normal 0 -0.96858 0.248701
    outer loop
      vertex 4.1 -9.47342 7.03647
      vertex 8.1 -9.42657 7.21893
      vertex 4.1 -9.42657 7.21893
    endloop
  endfacet
  facet normal 0 -0.96858 0.248701
    outer loop
      vertex 8.1 -9.42657 7.21893
      vertex 4.1 -9.47342 7.03647
      vertex 8.1 -9.47342 7.03647
    endloop
  endfacet
  facet normal 0 -0.80903 0.587768
    outer loop
      vertex 4.1 -9.74423 6.54386
      vertex 8.1 -9.63351 6.69626
      vertex 4.1 -9.63351 6.69626
    endloop
  endfacet
  facet normal 0 -0.80903 0.587768
    outer loop
      vertex 8.1 -9.63351 6.69626
      vertex 4.1 -9.74423 6.54386
      vertex 8.1 -9.74423 6.54386
    endloop
  endfacet
  facet normal 0 -0.187378 0.982288
    outer loop
      vertex 4.1 -10.527 6.04712
      vertex 8.1 -10.712 6.01183
      vertex 8.1 -10.527 6.04712
    endloop
  endfacet
  facet normal 0 -0.187378 0.982288
    outer loop
      vertex 8.1 -10.712 6.01183
      vertex 4.1 -10.527 6.04712
      vertex 4.1 -10.712 6.01183
    endloop
  endfacet
  facet normal 0 -0.535683 0.844419
    outer loop
      vertex 4.1 -10.0183 6.28647
      vertex 8.1 -10.1774 6.18554
      vertex 8.1 -10.0183 6.28647
    endloop
  endfacet
  facet normal 0 -0.535683 0.844419
    outer loop
      vertex 8.1 -10.1774 6.18554
      vertex 4.1 -10.0183 6.28647
      vertex 4.1 -10.1774 6.18554
    endloop
  endfacet
  facet normal 0 -0.425848 0.904795
    outer loop
      vertex 4.1 -10.1774 6.18554
      vertex 8.1 -10.3478 6.10534
      vertex 8.1 -10.1774 6.18554
    endloop
  endfacet
  facet normal 0 -0.425848 0.904795
    outer loop
      vertex 8.1 -10.3478 6.10534
      vertex 4.1 -10.1774 6.18554
      vertex 4.1 -10.3478 6.10534
    endloop
  endfacet
  facet normal 0 -0.968577 -0.248714
    outer loop
      vertex 4.1 -9.42657 7.78107
      vertex 8.1 -9.47342 7.96352
      vertex 4.1 -9.47342 7.96352
    endloop
  endfacet
  facet normal 0 -0.968577 -0.248714
    outer loop
      vertex 8.1 -9.47342 7.96352
      vertex 4.1 -9.42657 7.78107
      vertex 8.1 -9.42657 7.78107
    endloop
  endfacet
  facet normal 0 -0.425848 -0.904795
    outer loop
      vertex 4.1 -10.3478 8.89466
      vertex 8.1 -10.1774 8.81446
      vertex 8.1 -10.3478 8.89466
    endloop
  endfacet
  facet normal -0 -0.425848 -0.904795
    outer loop
      vertex 8.1 -10.1774 8.81446
      vertex 4.1 -10.3478 8.89466
      vertex 4.1 -10.1774 8.81446
    endloop
  endfacet
  facet normal 0 -0.728949 -0.684568
    outer loop
      vertex 4.1 -9.74423 8.45614
      vertex 8.1 -9.87318 8.59345
      vertex 4.1 -9.87318 8.59345
    endloop
  endfacet
  facet normal 0 -0.728949 -0.684568
    outer loop
      vertex 8.1 -9.87318 8.59345
      vertex 4.1 -9.74423 8.45614
      vertex 8.1 -9.74423 8.45614
    endloop
  endfacet
  facet normal 0 -0.535721 -0.844395
    outer loop
      vertex 4.1 -10.1774 8.81446
      vertex 8.1 -10.0183 8.71352
      vertex 8.1 -10.1774 8.81446
    endloop
  endfacet
  facet normal -0 -0.535721 -0.844395
    outer loop
      vertex 8.1 -10.0183 8.71352
      vertex 4.1 -10.1774 8.81446
      vertex 4.1 -10.0183 8.71352
    endloop
  endfacet
  facet normal -0 0.535683 0.844419
    outer loop
      vertex 4.1 -11.6226 6.18554
      vertex 8.1 -11.7817 6.28647
      vertex 8.1 -11.6226 6.18554
    endloop
  endfacet
  facet normal 0 0.535683 0.844419
    outer loop
      vertex 8.1 -11.7817 6.28647
      vertex 4.1 -11.6226 6.18554
      vertex 4.1 -11.7817 6.28647
    endloop
  endfacet
  facet normal 0 0.728817 0.684709
    outer loop
      vertex 8.1 -11.9268 6.40655
      vertex 4.1 -12.0558 6.54386
      vertex 8.1 -12.0558 6.54386
    endloop
  endfacet
  facet normal 0 0.728817 0.684709
    outer loop
      vertex 4.1 -12.0558 6.54386
      vertex 8.1 -11.9268 6.40655
      vertex 4.1 -11.9268 6.40655
    endloop
  endfacet
  facet normal -0 0.637559 0.770402
    outer loop
      vertex 4.1 -11.7817 6.28647
      vertex 8.1 -11.9268 6.40655
      vertex 8.1 -11.7817 6.28647
    endloop
  endfacet
  facet normal 0 0.637559 0.770402
    outer loop
      vertex 8.1 -11.9268 6.40655
      vertex 4.1 -11.7817 6.28647
      vertex 4.1 -11.9268 6.40655
    endloop
  endfacet
  facet normal 0 0.99212 0.125289
    outer loop
      vertex 8.1 -12.3734 7.21893
      vertex 4.1 -12.397 7.40581
      vertex 8.1 -12.397 7.40581
    endloop
  endfacet
  facet normal 0 0.99212 0.125289
    outer loop
      vertex 4.1 -12.397 7.40581
      vertex 8.1 -12.3734 7.21893
      vertex 4.1 -12.3734 7.21893
    endloop
  endfacet
  facet normal 0 0.929673 0.368387
    outer loop
      vertex 8.1 -12.2572 6.86133
      vertex 4.1 -12.3266 7.03647
      vertex 8.1 -12.3266 7.03647
    endloop
  endfacet
  facet normal 0 0.929673 0.368387
    outer loop
      vertex 4.1 -12.3266 7.03647
      vertex 8.1 -12.2572 6.86133
      vertex 4.1 -12.2572 6.86133
    endloop
  endfacet
  facet normal 0 0.876414 0.481558
    outer loop
      vertex 8.1 -12.1665 6.69626
      vertex 4.1 -12.2572 6.86133
      vertex 8.1 -12.2572 6.86133
    endloop
  endfacet
  facet normal 0 0.876414 0.481558
    outer loop
      vertex 4.1 -12.2572 6.86133
      vertex 8.1 -12.1665 6.69626
      vertex 4.1 -12.1665 6.69626
    endloop
  endfacet
  facet normal 0 0.876414 -0.481558
    outer loop
      vertex 8.1 -12.2572 8.13867
      vertex 4.1 -12.1665 8.30374
      vertex 8.1 -12.1665 8.30374
    endloop
  endfacet
  facet normal 0 0.876414 -0.481558
    outer loop
      vertex 4.1 -12.1665 8.30374
      vertex 8.1 -12.2572 8.13867
      vertex 4.1 -12.2572 8.13867
    endloop
  endfacet
  facet normal 0 0.728817 -0.684709
    outer loop
      vertex 8.1 -12.0558 8.45614
      vertex 4.1 -11.9268 8.59345
      vertex 8.1 -11.9268 8.59345
    endloop
  endfacet
  facet normal 0 0.728817 -0.684709
    outer loop
      vertex 4.1 -11.9268 8.59345
      vertex 8.1 -12.0558 8.45614
      vertex 4.1 -12.0558 8.45614
    endloop
  endfacet
  facet normal 0 0.425848 -0.904795
    outer loop
      vertex 4.1 -11.6226 8.81446
      vertex 8.1 -11.4522 8.89466
      vertex 8.1 -11.6226 8.81446
    endloop
  endfacet
  facet normal 0 0.425848 -0.904795
    outer loop
      vertex 8.1 -11.4522 8.89466
      vertex 4.1 -11.6226 8.81446
      vertex 4.1 -11.4522 8.89466
    endloop
  endfacet
  facet normal 0 0.637528 -0.770428
    outer loop
      vertex 4.1 -11.9268 8.59345
      vertex 8.1 -11.7817 8.71352
      vertex 8.1 -11.9268 8.59345
    endloop
  endfacet
  facet normal 0 0.637528 -0.770428
    outer loop
      vertex 8.1 -11.7817 8.71352
      vertex 4.1 -11.9268 8.59345
      vertex 4.1 -11.7817 8.71352
    endloop
  endfacet
  facet normal 0 0.535721 -0.844395
    outer loop
      vertex 4.1 -11.7817 8.71352
      vertex 8.1 -11.6226 8.81446
      vertex 8.1 -11.7817 8.71352
    endloop
  endfacet
  facet normal 0 0.535721 -0.844395
    outer loop
      vertex 8.1 -11.6226 8.81446
      vertex 4.1 -11.7817 8.71352
      vertex 4.1 -11.6226 8.81446
    endloop
  endfacet
  facet normal 0 0.187429 -0.982278
    outer loop
      vertex 4.1 -11.273 8.95287
      vertex 8.1 -11.088 8.98817
      vertex 8.1 -11.273 8.95287
    endloop
  endfacet
  facet normal 0 0.187429 -0.982278
    outer loop
      vertex 8.1 -11.088 8.98817
      vertex 4.1 -11.273 8.95287
      vertex 4.1 -11.088 8.98817
    endloop
  endfacet
  facet normal 0 -0.0628013 0.998026
    outer loop
      vertex 4.1 -10.712 6.01183
      vertex 8.1 -10.9 6
      vertex 8.1 -10.712 6.01183
    endloop
  endfacet
  facet normal 0 -0.0628013 0.998026
    outer loop
      vertex 8.1 -10.9 6
      vertex 4.1 -10.712 6.01183
      vertex 4.1 -10.9 6
    endloop
  endfacet
  facet normal 0 -0.876302 0.481762
    outer loop
      vertex 4.1 -9.63351 6.69626
      vertex 8.1 -9.54276 6.86133
      vertex 4.1 -9.54276 6.86133
    endloop
  endfacet
  facet normal 0 -0.876302 0.481762
    outer loop
      vertex 8.1 -9.54276 6.86133
      vertex 4.1 -9.63351 6.69626
      vertex 8.1 -9.63351 6.69626
    endloop
  endfacet
  facet normal 0 -0.728949 0.684568
    outer loop
      vertex 4.1 -9.87318 6.40655
      vertex 8.1 -9.74423 6.54386
      vertex 4.1 -9.74423 6.54386
    endloop
  endfacet
  facet normal 0 -0.728949 0.684568
    outer loop
      vertex 8.1 -9.74423 6.54386
      vertex 4.1 -9.87318 6.40655
      vertex 8.1 -9.87318 6.40655
    endloop
  endfacet
  facet normal 0 -0.30899 0.951065
    outer loop
      vertex 4.1 -10.3478 6.10534
      vertex 8.1 -10.527 6.04712
      vertex 8.1 -10.3478 6.10534
    endloop
  endfacet
  facet normal 0 -0.30899 0.951065
    outer loop
      vertex 8.1 -10.527 6.04712
      vertex 4.1 -10.3478 6.10534
      vertex 4.1 -10.527 6.04712
    endloop
  endfacet
  facet normal -0 0.0628013 0.998026
    outer loop
      vertex 4.1 -10.9 6
      vertex 8.1 -11.088 6.01183
      vertex 8.1 -10.9 6
    endloop
  endfacet
  facet normal 0 0.0628013 0.998026
    outer loop
      vertex 8.1 -11.088 6.01183
      vertex 4.1 -10.9 6
      vertex 4.1 -11.088 6.01183
    endloop
  endfacet
  facet normal 0 -0.876302 -0.481762
    outer loop
      vertex 4.1 -9.54276 8.13867
      vertex 8.1 -9.63351 8.30374
      vertex 4.1 -9.63351 8.30374
    endloop
  endfacet
  facet normal 0 -0.876302 -0.481762
    outer loop
      vertex 8.1 -9.63351 8.30374
      vertex 4.1 -9.54276 8.13867
      vertex 8.1 -9.54276 8.13867
    endloop
  endfacet
  facet normal 0 -1 0
    outer loop
      vertex 4.1 -9.40296 7.40581
      vertex 8.1 -9.40296 7.59418
      vertex 4.1 -9.40296 7.59418
    endloop
  endfacet
  facet normal 0 -1 -0
    outer loop
      vertex 8.1 -9.40296 7.59418
      vertex 4.1 -9.40296 7.40581
      vertex 8.1 -9.40296 7.40581
    endloop
  endfacet
  facet normal 0 -0.929789 -0.368093
    outer loop
      vertex 4.1 -9.47342 7.96352
      vertex 8.1 -9.54276 8.13867
      vertex 4.1 -9.54276 8.13867
    endloop
  endfacet
  facet normal 0 -0.929789 -0.368093
    outer loop
      vertex 8.1 -9.54276 8.13867
      vertex 4.1 -9.47342 7.96352
      vertex 8.1 -9.47342 7.96352
    endloop
  endfacet
  facet normal 0 -0.637475 -0.770471
    outer loop
      vertex 4.1 -10.0183 8.71352
      vertex 8.1 -9.87318 8.59345
      vertex 8.1 -10.0183 8.71352
    endloop
  endfacet
  facet normal -0 -0.637475 -0.770471
    outer loop
      vertex 8.1 -9.87318 8.59345
      vertex 4.1 -10.0183 8.71352
      vertex 4.1 -9.87318 8.59345
    endloop
  endfacet
  facet normal 0 -0.308942 -0.951081
    outer loop
      vertex 4.1 -10.527 8.95287
      vertex 8.1 -10.3478 8.89466
      vertex 8.1 -10.527 8.95287
    endloop
  endfacet
  facet normal -0 -0.308942 -0.951081
    outer loop
      vertex 8.1 -10.3478 8.89466
      vertex 4.1 -10.527 8.95287
      vertex 4.1 -10.3478 8.89466
    endloop
  endfacet
  facet normal -0 0.425848 0.904795
    outer loop
      vertex 4.1 -11.4522 6.10534
      vertex 8.1 -11.6226 6.18554
      vertex 8.1 -11.4522 6.10534
    endloop
  endfacet
  facet normal 0 0.425848 0.904795
    outer loop
      vertex 8.1 -11.6226 6.18554
      vertex 4.1 -11.4522 6.10534
      vertex 4.1 -11.6226 6.18554
    endloop
  endfacet
  facet normal 0 0.92968 -0.368369
    outer loop
      vertex 8.1 -12.3266 7.96352
      vertex 4.1 -12.2572 8.13867
      vertex 8.1 -12.2572 8.13867
    endloop
  endfacet
  facet normal 0 0.92968 -0.368369
    outer loop
      vertex 4.1 -12.2572 8.13867
      vertex 8.1 -12.3266 7.96352
      vertex 4.1 -12.3266 7.96352
    endloop
  endfacet
  facet normal 0 0.80908 -0.587698
    outer loop
      vertex 8.1 -12.1665 8.30374
      vertex 4.1 -12.0558 8.45614
      vertex 8.1 -12.0558 8.45614
    endloop
  endfacet
  facet normal 0 0.80908 -0.587698
    outer loop
      vertex 4.1 -12.0558 8.45614
      vertex 8.1 -12.1665 8.30374
      vertex 4.1 -12.1665 8.30374
    endloop
  endfacet
  facet normal 0 -0.992115 -0.125335
    outer loop
      vertex 4.1 -9.40296 7.59418
      vertex 8.1 -9.42657 7.78107
      vertex 4.1 -9.42657 7.78107
    endloop
  endfacet
  facet normal 0 -0.992115 -0.125335
    outer loop
      vertex 8.1 -9.42657 7.78107
      vertex 4.1 -9.40296 7.59418
      vertex 8.1 -9.40296 7.59418
    endloop
  endfacet
  facet normal -1 0 0
    outer loop
      vertex 5.72205e-07 -44 0
      vertex 5.72205e-07 -15.9 15
      vertex 5.72205e-07 -15.9 0
    endloop
  endfacet
  facet normal -1 -0 0
    outer loop
      vertex 5.72205e-07 -15.9 15
      vertex 5.72205e-07 -44 0
      vertex 5.72205e-07 -44 15
    endloop
  endfacet
  facet normal 0 1 -0
    outer loop
      vertex 8.1 -40 0
      vertex 4 -40 15
      vertex 8.1 -40 15
    endloop
  endfacet
  facet normal 0 1 0
    outer loop
      vertex 4 -40 15
      vertex 8.1 -40 0
      vertex 4 -40 0
    endloop
  endfacet
  facet normal 1 -0 0
    outer loop
      vertex 4 -40 15
      vertex 4 -19.9 0
      vertex 4 -19.9 15
    endloop
  endfacet
  facet normal 1 0 0
    outer loop
      vertex 4 -19.9 0
      vertex 4 -40 15
      vertex 4 -40 0
    endloop
  endfacet
  facet normal 0 -1 0
    outer loop
      vertex 4 -19.9 0
      vertex 8.1 -19.9 15
      vertex 4 -19.9 15
    endloop
  endfacet
  facet normal 0 -1 -0
    outer loop
      vertex 8.1 -19.9 15
      vertex 4 -19.9 0
      vertex 8.1 -19.9 0
    endloop
  endfacet
  facet normal 0 1 -0
    outer loop
      vertex 8.1 -15.9 0
      vertex 5.72205e-07 -15.9 15
      vertex 8.1 -15.9 15
    endloop
  endfacet
  facet normal 0 1 0
    outer loop
      vertex 5.72205e-07 -15.9 15
      vertex 8.1 -15.9 0
      vertex 5.72205e-07 -15.9 0
    endloop
  endfacet
  facet normal 1 -0 0
    outer loop
      vertex 8.1 -19.9 15
      vertex 8.1 -15.9 0
      vertex 8.1 -15.9 15
    endloop
  endfacet
  facet normal 1 0 0
    outer loop
      vertex 8.1 -15.9 0
      vertex 8.1 -19.9 15
      vertex 8.1 -19.9 0
    endloop
  endfacet
endsolid OpenSCAD_Model
