solid OpenSCAD_Model
  facet normal -0 0 1
    outer loop
      vertex 0 20 5
      vertex 10 0 5
      vertex 10 20 5
    endloop
  endfacet
  facet normal 0 0 1
    outer loop
      vertex 10 0 5
      vertex 0 20 5
      vertex 0 0 5
    endloop
  endfacet
  facet normal 1 -0 0
    outer loop
      vertex 10 0 5
      vertex 10 20 3
      vertex 10 20 5
    endloop
  endfacet
  facet normal 1 0 0
    outer loop
      vertex 10 20 3
      vertex 10 0 5
      vertex 10 0 3
    endloop
  endfacet
  facet normal 0 1 0
    outer loop
      vertex 22 20 3
      vertex 22 20 0
      vertex 10 20 3
    endloop
  endfacet
  facet normal 0 1 -0
    outer loop
      vertex 10 20 3
      vertex 0 20 5
      vertex 10 20 5
    endloop
  endfacet
  facet normal 0 1 0
    outer loop
      vertex 0 20 0
      vertex 10 20 3
      vertex 22 20 0
    endloop
  endfacet
  facet normal 0 1 0
    outer loop
      vertex 10 20 3
      vertex 0 20 0
      vertex 0 20 5
    endloop
  endfacet
  facet normal 0 0 -1
    outer loop
      vertex 22 0 0
      vertex 25 19 0
      vertex 25 1 0
    endloop
  endfacet
  facet normal 0 0 -1
    outer loop
      vertex 22 0 0
      vertex 22 20 0
      vertex 25 19 0
    endloop
  endfacet
  facet normal 0 0 -1
    outer loop
      vertex 0 0 0
      vertex 22 20 0
      vertex 22 0 0
    endloop
  endfacet
  facet normal -0 0 -1
    outer loop
      vertex 22 20 0
      vertex 0 0 0
      vertex 0 20 0
    endloop
  endfacet
  facet normal 0 -1 0
    outer loop
      vertex 0 0 5
      vertex 10 0 3
      vertex 10 0 5
    endloop
  endfacet
  facet normal 0 -1 0
    outer loop
      vertex 0 0 0
      vertex 10 0 3
      vertex 0 0 5
    endloop
  endfacet
  facet normal 0 -1 0
    outer loop
      vertex 22 0 0
      vertex 10 0 3
      vertex 0 0 0
    endloop
  endfacet
  facet normal 0 -1 0
    outer loop
      vertex 10 0 3
      vertex 22 0 0
      vertex 22 0 3
    endloop
  endfacet
  facet normal 1 -0 0
    outer loop
      vertex 25 1 2
      vertex 25 19 0
      vertex 25 19 2
    endloop
  endfacet
  facet normal 1 0 0
    outer loop
      vertex 25 19 0
      vertex 25 1 2
      vertex 25 1 0
    endloop
  endfacet
  facet normal -0 0 1
    outer loop
      vertex 10 20 3
      vertex 22 0 3
      vertex 22 20 3
    endloop
  endfacet
  facet normal 0 0 1
    outer loop
      vertex 22 0 3
      vertex 10 20 3
      vertex 10 0 3
    endloop
  endfacet
  facet normal 0.316228 -0.948683 0
    outer loop
      vertex 22 0 0
      vertex 25 1 2
      vertex 22 0 3
    endloop
  endfacet
  facet normal 0.316228 -0.948683 0
    outer loop
      vertex 25 1 2
      vertex 22 0 0
      vertex 25 1 0
    endloop
  endfacet
  facet normal 0.316228 0.948683 0
    outer loop
      vertex 22 20 0
      vertex 25 19 2
      vertex 25 19 0
    endloop
  endfacet
  facet normal 0.316228 0.948683 0
    outer loop
      vertex 25 19 2
      vertex 22 20 0
      vertex 22 20 3
    endloop
  endfacet
  facet normal 0.316228 0 0.948683
    outer loop
      vertex 22 20 3
      vertex 25 1 2
      vertex 25 19 2
    endloop
  endfacet
  facet normal 0.316228 0 0.948683
    outer loop
      vertex 25 1 2
      vertex 22 20 3
      vertex 22 0 3
    endloop
  endfacet
  facet normal -1 0 0
    outer loop
      vertex 0 0 0
      vertex 0 20 5
      vertex 0 20 0
    endloop
  endfacet
  facet normal -1 -0 0
    outer loop
      vertex 0 20 5
      vertex 0 0 0
      vertex 0 0 5
    endloop
  endfacet
  facet normal 0 0 -1
    outer loop
      vertex 3.1 -43 0
      vertex 6.1 -53 0
      vertex 3.1 -53 0
    endloop
  endfacet
  facet normal 0 0 -1
    outer loop
      vertex 6.1 -53 0
      vertex 3.1 -43 0
      vertex 6.1 -40 0
    endloop
  endfacet
  facet normal 0 0 -1
    outer loop
      vertex 3.1 -43 0
      vertex 3 -40 0
      vertex 6.1 -40 0
    endloop
  endfacet
  facet normal -0 0 -1
    outer loop
      vertex 3 -40 0
      vertex 5.72205e-07 -43 0
      vertex 3 -19.9 0
    endloop
  endfacet
  facet normal 0 0 -1
    outer loop
      vertex 5.72205e-07 -43 0
      vertex 3 -40 0
      vertex 3.1 -43 0
    endloop
  endfacet
  facet normal 0 0 -1
    outer loop
      vertex 3 -19.9 0
      vertex 6.1 -16.9 0
      vertex 6.1 -19.9 0
    endloop
  endfacet
  facet normal 0 0 -1
    outer loop
      vertex 3 -19.9 0
      vertex 5.72205e-07 -16.9 0
      vertex 6.1 -16.9 0
    endloop
  endfacet
  facet normal 0 0 -1
    outer loop
      vertex 5.72205e-07 -16.9 0
      vertex 3 -19.9 0
      vertex 5.72205e-07 -43 0
    endloop
  endfacet
  facet normal -1 0 0
    outer loop
      vertex 3.1 -43 0
      vertex 3.1 -46.503 7.40581
      vertex 3.1 -43 15
    endloop
  endfacet
  facet normal -1 0 0
    outer loop
      vertex 3.1 -43 0
      vertex 3.1 -46.5266 7.21893
      vertex 3.1 -46.503 7.40581
    endloop
  endfacet
  facet normal -1 0 0
    outer loop
      vertex 3.1 -43 0
      vertex 3.1 -46.5734 7.03647
      vertex 3.1 -46.5266 7.21893
    endloop
  endfacet
  facet normal -1 0 0
    outer loop
      vertex 3.1 -43 0
      vertex 3.1 -46.6428 6.86133
      vertex 3.1 -46.5734 7.03647
    endloop
  endfacet
  facet normal -1 0 0
    outer loop
      vertex 3.1 -43 0
      vertex 3.1 -46.7335 6.69626
      vertex 3.1 -46.6428 6.86133
    endloop
  endfacet
  facet normal -1 0 0
    outer loop
      vertex 3.1 -43 0
      vertex 3.1 -46.8442 6.54386
      vertex 3.1 -46.7335 6.69626
    endloop
  endfacet
  facet normal -1 0 0
    outer loop
      vertex 3.1 -43 0
      vertex 3.1 -46.9732 6.40655
      vertex 3.1 -46.8442 6.54386
    endloop
  endfacet
  facet normal -1 0 0
    outer loop
      vertex 3.1 -43 0
      vertex 3.1 -47.1183 6.28647
      vertex 3.1 -46.9732 6.40655
    endloop
  endfacet
  facet normal -1 0 0
    outer loop
      vertex 3.1 -43 0
      vertex 3.1 -47.2774 6.18554
      vertex 3.1 -47.1183 6.28647
    endloop
  endfacet
  facet normal -1 0 0
    outer loop
      vertex 3.1 -43 0
      vertex 3.1 -47.4478 6.10534
      vertex 3.1 -47.2774 6.18554
    endloop
  endfacet
  facet normal -1 0 0
    outer loop
      vertex 3.1 -43 0
      vertex 3.1 -47.627 6.04712
      vertex 3.1 -47.4478 6.10534
    endloop
  endfacet
  facet normal -1 0 0
    outer loop
      vertex 3.1 -43 0
      vertex 3.1 -47.812 6.01183
      vertex 3.1 -47.627 6.04712
    endloop
  endfacet
  facet normal -1 0 0
    outer loop
      vertex 3.1 -43 0
      vertex 3.1 -48 6
      vertex 3.1 -47.812 6.01183
    endloop
  endfacet
  facet normal -1 0 0
    outer loop
      vertex 3.1 -53 0
      vertex 3.1 -48 6
      vertex 3.1 -43 0
    endloop
  endfacet
  facet normal -1 -0 0
    outer loop
      vertex 3.1 -48 6
      vertex 3.1 -53 0
      vertex 3.1 -48.188 6.01183
    endloop
  endfacet
  facet normal -1 -0 0
    outer loop
      vertex 3.1 -48.188 6.01183
      vertex 3.1 -53 0
      vertex 3.1 -48.373 6.04712
    endloop
  endfacet
  facet normal -1 -0 0
    outer loop
      vertex 3.1 -48.373 6.04712
      vertex 3.1 -53 0
      vertex 3.1 -48.5522 6.10534
    endloop
  endfacet
  facet normal -1 -0 0
    outer loop
      vertex 3.1 -48.5522 6.10534
      vertex 3.1 -53 0
      vertex 3.1 -48.7226 6.18554
    endloop
  endfacet
  facet normal -1 -0 0
    outer loop
      vertex 3.1 -48.7226 6.18554
      vertex 3.1 -53 0
      vertex 3.1 -48.8817 6.28647
    endloop
  endfacet
  facet normal -1 -0 0
    outer loop
      vertex 3.1 -49.497 7.40581
      vertex 3.1 -53 0
      vertex 3.1 -49.497 7.59418
    endloop
  endfacet
  facet normal -1 -0 0
    outer loop
      vertex 3.1 -49.4734 7.21893
      vertex 3.1 -53 0
      vertex 3.1 -49.497 7.40581
    endloop
  endfacet
  facet normal -1 -0 0
    outer loop
      vertex 3.1 -49.4266 7.03647
      vertex 3.1 -53 0
      vertex 3.1 -49.4734 7.21893
    endloop
  endfacet
  facet normal -1 -0 0
    outer loop
      vertex 3.1 -49.3572 6.86133
      vertex 3.1 -53 0
      vertex 3.1 -49.4266 7.03647
    endloop
  endfacet
  facet normal -1 -0 0
    outer loop
      vertex 3.1 -49.2665 6.69626
      vertex 3.1 -53 0
      vertex 3.1 -49.3572 6.86133
    endloop
  endfacet
  facet normal -1 -0 0
    outer loop
      vertex 3.1 -49.1558 6.54386
      vertex 3.1 -53 0
      vertex 3.1 -49.2665 6.69626
    endloop
  endfacet
  facet normal -1 -0 0
    outer loop
      vertex 3.1 -49.0268 6.40655
      vertex 3.1 -53 0
      vertex 3.1 -49.1558 6.54386
    endloop
  endfacet
  facet normal -1 -0 0
    outer loop
      vertex 3.1 -48.8817 6.28647
      vertex 3.1 -53 0
      vertex 3.1 -49.0268 6.40655
    endloop
  endfacet
  facet normal -1 0 0
    outer loop
      vertex 3.1 -46.503 7.59418
      vertex 3.1 -43 15
      vertex 3.1 -46.503 7.40581
    endloop
  endfacet
  facet normal -1 0 0
    outer loop
      vertex 3.1 -46.5266 7.78107
      vertex 3.1 -43 15
      vertex 3.1 -46.503 7.59418
    endloop
  endfacet
  facet normal -1 0 0
    outer loop
      vertex 3.1 -46.5734 7.96352
      vertex 3.1 -43 15
      vertex 3.1 -46.5266 7.78107
    endloop
  endfacet
  facet normal -1 0 0
    outer loop
      vertex 3.1 -46.6428 8.13867
      vertex 3.1 -43 15
      vertex 3.1 -46.5734 7.96352
    endloop
  endfacet
  facet normal -1 0 0
    outer loop
      vertex 3.1 -46.7335 8.30374
      vertex 3.1 -43 15
      vertex 3.1 -46.6428 8.13867
    endloop
  endfacet
  facet normal -1 0 0
    outer loop
      vertex 3.1 -46.8442 8.45614
      vertex 3.1 -43 15
      vertex 3.1 -46.7335 8.30374
    endloop
  endfacet
  facet normal -1 0 0
    outer loop
      vertex 3.1 -46.9732 8.59345
      vertex 3.1 -43 15
      vertex 3.1 -46.8442 8.45614
    endloop
  endfacet
  facet normal -1 0 0
    outer loop
      vertex 3.1 -47.1183 8.71352
      vertex 3.1 -43 15
      vertex 3.1 -46.9732 8.59345
    endloop
  endfacet
  facet normal -1 0 0
    outer loop
      vertex 3.1 -47.2774 8.81446
      vertex 3.1 -43 15
      vertex 3.1 -47.1183 8.71352
    endloop
  endfacet
  facet normal -1 0 0
    outer loop
      vertex 3.1 -47.4478 8.89466
      vertex 3.1 -43 15
      vertex 3.1 -47.2774 8.81446
    endloop
  endfacet
  facet normal -1 0 0
    outer loop
      vertex 3.1 -47.627 8.95287
      vertex 3.1 -43 15
      vertex 3.1 -47.4478 8.89466
    endloop
  endfacet
  facet normal -1 0 0
    outer loop
      vertex 3.1 -47.812 8.98817
      vertex 3.1 -43 15
      vertex 3.1 -47.627 8.95287
    endloop
  endfacet
  facet normal -1 0 0
    outer loop
      vertex 3.1 -48 9
      vertex 3.1 -43 15
      vertex 3.1 -47.812 8.98817
    endloop
  endfacet
  facet normal -1 0 0
    outer loop
      vertex 3.1 -53 15
      vertex 3.1 -48 9
      vertex 3.1 -48.188 8.98817
    endloop
  endfacet
  facet normal -1 0 0
    outer loop
      vertex 3.1 -53 15
      vertex 3.1 -48.188 8.98817
      vertex 3.1 -48.373 8.95287
    endloop
  endfacet
  facet normal -1 0 0
    outer loop
      vertex 3.1 -53 15
      vertex 3.1 -48.373 8.95287
      vertex 3.1 -48.5522 8.89466
    endloop
  endfacet
  facet normal -1 0 0
    outer loop
      vertex 3.1 -53 15
      vertex 3.1 -48.5522 8.89466
      vertex 3.1 -48.7226 8.81446
    endloop
  endfacet
  facet normal -1 0 0
    outer loop
      vertex 3.1 -53 15
      vertex 3.1 -48.7226 8.81446
      vertex 3.1 -48.8817 8.71352
    endloop
  endfacet
  facet normal -1 0 0
    outer loop
      vertex 3.1 -53 15
      vertex 3.1 -48.8817 8.71352
      vertex 3.1 -49.0268 8.59345
    endloop
  endfacet
  facet normal -1 0 0
    outer loop
      vertex 3.1 -53 15
      vertex 3.1 -49.497 7.59418
      vertex 3.1 -53 0
    endloop
  endfacet
  facet normal -1 0 0
    outer loop
      vertex 3.1 -49.497 7.59418
      vertex 3.1 -53 15
      vertex 3.1 -49.4734 7.78107
    endloop
  endfacet
  facet normal -1 0 0
    outer loop
      vertex 3.1 -49.4734 7.78107
      vertex 3.1 -53 15
      vertex 3.1 -49.4266 7.96352
    endloop
  endfacet
  facet normal -1 0 0
    outer loop
      vertex 3.1 -48 9
      vertex 3.1 -53 15
      vertex 3.1 -43 15
    endloop
  endfacet
  facet normal -1 0 0
    outer loop
      vertex 3.1 -49.1558 8.45614
      vertex 3.1 -53 15
      vertex 3.1 -49.0268 8.59345
    endloop
  endfacet
  facet normal -1 0 0
    outer loop
      vertex 3.1 -49.2665 8.30374
      vertex 3.1 -53 15
      vertex 3.1 -49.1558 8.45614
    endloop
  endfacet
  facet normal -1 0 0
    outer loop
      vertex 3.1 -49.3572 8.13867
      vertex 3.1 -53 15
      vertex 3.1 -49.2665 8.30374
    endloop
  endfacet
  facet normal -1 0 0
    outer loop
      vertex 3.1 -49.4266 7.96352
      vertex 3.1 -53 15
      vertex 3.1 -49.3572 8.13867
    endloop
  endfacet
  facet normal 0 0 1
    outer loop
      vertex 6.1 -16.9 15
      vertex 3 -19.9 15
      vertex 6.1 -19.9 15
    endloop
  endfacet
  facet normal 0 0 1
    outer loop
      vertex 3 -19.9 15
      vertex 5.72205e-07 -16.9 15
      vertex 3 -40 15
    endloop
  endfacet
  facet normal -0 0 1
    outer loop
      vertex 5.72205e-07 -16.9 15
      vertex 3 -19.9 15
      vertex 6.1 -16.9 15
    endloop
  endfacet
  facet normal 0 0 1
    outer loop
      vertex 6.1 -40 15
      vertex 3.1 -43 15
      vertex 6.1 -53 15
    endloop
  endfacet
  facet normal -0 0 1
    outer loop
      vertex 3 -40 15
      vertex 3.1 -43 15
      vertex 6.1 -40 15
    endloop
  endfacet
  facet normal 0 0 1
    outer loop
      vertex 5.72205e-07 -43 15
      vertex 3 -40 15
      vertex 5.72205e-07 -16.9 15
    endloop
  endfacet
  facet normal 0 0 1
    outer loop
      vertex 3 -40 15
      vertex 5.72205e-07 -43 15
      vertex 3.1 -43 15
    endloop
  endfacet
  facet normal 0 0 1
    outer loop
      vertex 6.1 -53 15
      vertex 3.1 -43 15
      vertex 3.1 -53 15
    endloop
  endfacet
  facet normal 0 -1 0
    outer loop
      vertex 5.72205e-07 -43 0
      vertex 3.1 -43 15
      vertex 5.72205e-07 -43 15
    endloop
  endfacet
  facet normal 0 -1 -0
    outer loop
      vertex 3.1 -43 15
      vertex 5.72205e-07 -43 0
      vertex 3.1 -43 0
    endloop
  endfacet
  facet normal 1 0 0
    outer loop
      vertex 6.1 -40 15
      vertex 6.1 -46.503 7.59418
      vertex 6.1 -40 0
    endloop
  endfacet
  facet normal 1 0 0
    outer loop
      vertex 6.1 -40 15
      vertex 6.1 -46.5266 7.78107
      vertex 6.1 -46.503 7.59418
    endloop
  endfacet
  facet normal 1 0 0
    outer loop
      vertex 6.1 -40 15
      vertex 6.1 -46.5734 7.96352
      vertex 6.1 -46.5266 7.78107
    endloop
  endfacet
  facet normal 1 0 0
    outer loop
      vertex 6.1 -40 15
      vertex 6.1 -46.6428 8.13867
      vertex 6.1 -46.5734 7.96352
    endloop
  endfacet
  facet normal 1 0 0
    outer loop
      vertex 6.1 -40 15
      vertex 6.1 -46.7335 8.30374
      vertex 6.1 -46.6428 8.13867
    endloop
  endfacet
  facet normal 1 0 0
    outer loop
      vertex 6.1 -40 15
      vertex 6.1 -46.8442 8.45614
      vertex 6.1 -46.7335 8.30374
    endloop
  endfacet
  facet normal 1 0 0
    outer loop
      vertex 6.1 -40 15
      vertex 6.1 -46.9732 8.59345
      vertex 6.1 -46.8442 8.45614
    endloop
  endfacet
  facet normal 1 0 0
    outer loop
      vertex 6.1 -40 15
      vertex 6.1 -47.1183 8.71352
      vertex 6.1 -46.9732 8.59345
    endloop
  endfacet
  facet normal 1 0 0
    outer loop
      vertex 6.1 -40 15
      vertex 6.1 -47.2774 8.81446
      vertex 6.1 -47.1183 8.71352
    endloop
  endfacet
  facet normal 1 0 0
    outer loop
      vertex 6.1 -40 15
      vertex 6.1 -47.4478 8.89466
      vertex 6.1 -47.2774 8.81446
    endloop
  endfacet
  facet normal 1 0 0
    outer loop
      vertex 6.1 -40 15
      vertex 6.1 -47.627 8.95287
      vertex 6.1 -47.4478 8.89466
    endloop
  endfacet
  facet normal 1 0 0
    outer loop
      vertex 6.1 -40 15
      vertex 6.1 -47.812 8.98817
      vertex 6.1 -47.627 8.95287
    endloop
  endfacet
  facet normal 1 -0 0
    outer loop
      vertex 6.1 -53 15
      vertex 6.1 -47.812 8.98817
      vertex 6.1 -40 15
    endloop
  endfacet
  facet normal 1 0 0
    outer loop
      vertex 6.1 -47.812 8.98817
      vertex 6.1 -53 15
      vertex 6.1 -48 9
    endloop
  endfacet
  facet normal 1 0 0
    outer loop
      vertex 6.1 -48 9
      vertex 6.1 -53 15
      vertex 6.1 -48.188 8.98817
    endloop
  endfacet
  facet normal 1 0 0
    outer loop
      vertex 6.1 -48.188 8.98817
      vertex 6.1 -53 15
      vertex 6.1 -48.373 8.95287
    endloop
  endfacet
  facet normal 1 0 0
    outer loop
      vertex 6.1 -48.373 8.95287
      vertex 6.1 -53 15
      vertex 6.1 -48.5522 8.89466
    endloop
  endfacet
  facet normal 1 0 0
    outer loop
      vertex 6.1 -48.5522 8.89466
      vertex 6.1 -53 15
      vertex 6.1 -48.7226 8.81446
    endloop
  endfacet
  facet normal 1 0 0
    outer loop
      vertex 6.1 -49.497 7.59418
      vertex 6.1 -53 15
      vertex 6.1 -49.497 7.40581
    endloop
  endfacet
  facet normal 1 0 0
    outer loop
      vertex 6.1 -49.4734 7.78107
      vertex 6.1 -53 15
      vertex 6.1 -49.497 7.59418
    endloop
  endfacet
  facet normal 1 0 0
    outer loop
      vertex 6.1 -49.4266 7.96352
      vertex 6.1 -53 15
      vertex 6.1 -49.4734 7.78107
    endloop
  endfacet
  facet normal 1 0 0
    outer loop
      vertex 6.1 -49.3572 8.13867
      vertex 6.1 -53 15
      vertex 6.1 -49.4266 7.96352
    endloop
  endfacet
  facet normal 1 0 0
    outer loop
      vertex 6.1 -49.2665 8.30374
      vertex 6.1 -53 15
      vertex 6.1 -49.3572 8.13867
    endloop
  endfacet
  facet normal 1 0 0
    outer loop
      vertex 6.1 -49.1558 8.45614
      vertex 6.1 -53 15
      vertex 6.1 -49.2665 8.30374
    endloop
  endfacet
  facet normal 1 0 0
    outer loop
      vertex 6.1 -49.0268 8.59345
      vertex 6.1 -53 15
      vertex 6.1 -49.1558 8.45614
    endloop
  endfacet
  facet normal 1 0 0
    outer loop
      vertex 6.1 -48.8817 8.71352
      vertex 6.1 -53 15
      vertex 6.1 -49.0268 8.59345
    endloop
  endfacet
  facet normal 1 0 0
    outer loop
      vertex 6.1 -48.7226 8.81446
      vertex 6.1 -53 15
      vertex 6.1 -48.8817 8.71352
    endloop
  endfacet
  facet normal 1 -0 0
    outer loop
      vertex 6.1 -46.503 7.40581
      vertex 6.1 -40 0
      vertex 6.1 -46.503 7.59418
    endloop
  endfacet
  facet normal 1 -0 0
    outer loop
      vertex 6.1 -46.5266 7.21893
      vertex 6.1 -40 0
      vertex 6.1 -46.503 7.40581
    endloop
  endfacet
  facet normal 1 -0 0
    outer loop
      vertex 6.1 -46.5734 7.03647
      vertex 6.1 -40 0
      vertex 6.1 -46.5266 7.21893
    endloop
  endfacet
  facet normal 1 -0 0
    outer loop
      vertex 6.1 -46.6428 6.86133
      vertex 6.1 -40 0
      vertex 6.1 -46.5734 7.03647
    endloop
  endfacet
  facet normal 1 -0 0
    outer loop
      vertex 6.1 -46.7335 6.69626
      vertex 6.1 -40 0
      vertex 6.1 -46.6428 6.86133
    endloop
  endfacet
  facet normal 1 -0 0
    outer loop
      vertex 6.1 -46.8442 6.54386
      vertex 6.1 -40 0
      vertex 6.1 -46.7335 6.69626
    endloop
  endfacet
  facet normal 1 -0 0
    outer loop
      vertex 6.1 -46.9732 6.40655
      vertex 6.1 -40 0
      vertex 6.1 -46.8442 6.54386
    endloop
  endfacet
  facet normal 1 -0 0
    outer loop
      vertex 6.1 -47.1183 6.28647
      vertex 6.1 -40 0
      vertex 6.1 -46.9732 6.40655
    endloop
  endfacet
  facet normal 1 -0 0
    outer loop
      vertex 6.1 -47.2774 6.18554
      vertex 6.1 -40 0
      vertex 6.1 -47.1183 6.28647
    endloop
  endfacet
  facet normal 1 -0 0
    outer loop
      vertex 6.1 -47.4478 6.10534
      vertex 6.1 -40 0
      vertex 6.1 -47.2774 6.18554
    endloop
  endfacet
  facet normal 1 -0 0
    outer loop
      vertex 6.1 -47.627 6.04712
      vertex 6.1 -40 0
      vertex 6.1 -47.4478 6.10534
    endloop
  endfacet
  facet normal 1 -0 0
    outer loop
      vertex 6.1 -47.812 6.01183
      vertex 6.1 -40 0
      vertex 6.1 -47.627 6.04712
    endloop
  endfacet
  facet normal 1 0 0
    outer loop
      vertex 6.1 -53 0
      vertex 6.1 -47.812 6.01183
      vertex 6.1 -48 6
    endloop
  endfacet
  facet normal 1 0 0
    outer loop
      vertex 6.1 -53 0
      vertex 6.1 -48 6
      vertex 6.1 -48.188 6.01183
    endloop
  endfacet
  facet normal 1 0 0
    outer loop
      vertex 6.1 -53 0
      vertex 6.1 -48.188 6.01183
      vertex 6.1 -48.373 6.04712
    endloop
  endfacet
  facet normal 1 0 0
    outer loop
      vertex 6.1 -53 0
      vertex 6.1 -48.373 6.04712
      vertex 6.1 -48.5522 6.10534
    endloop
  endfacet
  facet normal 1 0 0
    outer loop
      vertex 6.1 -53 0
      vertex 6.1 -48.5522 6.10534
      vertex 6.1 -48.7226 6.18554
    endloop
  endfacet
  facet normal 1 0 0
    outer loop
      vertex 6.1 -53 0
      vertex 6.1 -48.7226 6.18554
      vertex 6.1 -48.8817 6.28647
    endloop
  endfacet
  facet normal 1 0 0
    outer loop
      vertex 6.1 -53 0
      vertex 6.1 -49.497 7.40581
      vertex 6.1 -53 15
    endloop
  endfacet
  facet normal 1 0 0
    outer loop
      vertex 6.1 -49.497 7.40581
      vertex 6.1 -53 0
      vertex 6.1 -49.4734 7.21893
    endloop
  endfacet
  facet normal 1 0 0
    outer loop
      vertex 6.1 -49.4734 7.21893
      vertex 6.1 -53 0
      vertex 6.1 -49.4266 7.03647
    endloop
  endfacet
  facet normal 1 0 0
    outer loop
      vertex 6.1 -47.812 6.01183
      vertex 6.1 -53 0
      vertex 6.1 -40 0
    endloop
  endfacet
  facet normal 1 0 0
    outer loop
      vertex 6.1 -49.0268 6.40655
      vertex 6.1 -53 0
      vertex 6.1 -48.8817 6.28647
    endloop
  endfacet
  facet normal 1 0 0
    outer loop
      vertex 6.1 -49.1558 6.54386
      vertex 6.1 -53 0
      vertex 6.1 -49.0268 6.40655
    endloop
  endfacet
  facet normal 1 0 0
    outer loop
      vertex 6.1 -49.2665 6.69626
      vertex 6.1 -53 0
      vertex 6.1 -49.1558 6.54386
    endloop
  endfacet
  facet normal 1 0 0
    outer loop
      vertex 6.1 -49.3572 6.86133
      vertex 6.1 -53 0
      vertex 6.1 -49.2665 6.69626
    endloop
  endfacet
  facet normal 1 0 0
    outer loop
      vertex 6.1 -49.4266 7.03647
      vertex 6.1 -53 0
      vertex 6.1 -49.3572 6.86133
    endloop
  endfacet
  facet normal 0 -1 0
    outer loop
      vertex 3.1 -53 0
      vertex 6.1 -53 15
      vertex 3.1 -53 15
    endloop
  endfacet
  facet normal 0 -1 -0
    outer loop
      vertex 6.1 -53 15
      vertex 3.1 -53 0
      vertex 6.1 -53 0
    endloop
  endfacet
  facet normal 0 -0.187429 -0.982278
    outer loop
      vertex 3.1 -47.812 8.98817
      vertex 6.1 -47.627 8.95287
      vertex 6.1 -47.812 8.98817
    endloop
  endfacet
  facet normal -0 -0.187429 -0.982278
    outer loop
      vertex 6.1 -47.627 8.95287
      vertex 3.1 -47.812 8.98817
      vertex 3.1 -47.627 8.95287
    endloop
  endfacet
  facet normal 0 -0.0628013 -0.998026
    outer loop
      vertex 3.1 -48 9
      vertex 6.1 -47.812 8.98817
      vertex 6.1 -48 9
    endloop
  endfacet
  facet normal -0 -0.0628013 -0.998026
    outer loop
      vertex 6.1 -47.812 8.98817
      vertex 3.1 -48 9
      vertex 3.1 -47.812 8.98817
    endloop
  endfacet
  facet normal 0 -0.99212 0.125289
    outer loop
      vertex 3.1 -46.5266 7.21893
      vertex 6.1 -46.503 7.40581
      vertex 3.1 -46.503 7.40581
    endloop
  endfacet
  facet normal 0 -0.99212 0.125289
    outer loop
      vertex 6.1 -46.503 7.40581
      vertex 3.1 -46.5266 7.21893
      vertex 6.1 -46.5266 7.21893
    endloop
  endfacet
  facet normal 0 -0.80908 -0.587698
    outer loop
      vertex 3.1 -46.7335 8.30374
      vertex 6.1 -46.8442 8.45614
      vertex 3.1 -46.8442 8.45614
    endloop
  endfacet
  facet normal 0 -0.80908 -0.587698
    outer loop
      vertex 6.1 -46.8442 8.45614
      vertex 3.1 -46.7335 8.30374
      vertex 6.1 -46.7335 8.30374
    endloop
  endfacet
  facet normal 0 -0.637559 0.770402
    outer loop
      vertex 3.1 -46.9732 6.40655
      vertex 6.1 -47.1183 6.28647
      vertex 6.1 -46.9732 6.40655
    endloop
  endfacet
  facet normal 0 -0.637559 0.770402
    outer loop
      vertex 6.1 -47.1183 6.28647
      vertex 3.1 -46.9732 6.40655
      vertex 3.1 -47.1183 6.28647
    endloop
  endfacet
  facet normal 0 -0.535721 -0.844395
    outer loop
      vertex 3.1 -47.2774 8.81446
      vertex 6.1 -47.1183 8.71352
      vertex 6.1 -47.2774 8.81446
    endloop
  endfacet
  facet normal -0 -0.535721 -0.844395
    outer loop
      vertex 6.1 -47.1183 8.71352
      vertex 3.1 -47.2774 8.81446
      vertex 3.1 -47.1183 8.71352
    endloop
  endfacet
  facet normal -0 0.30899 0.951065
    outer loop
      vertex 3.1 -48.373 6.04712
      vertex 6.1 -48.5522 6.10534
      vertex 6.1 -48.373 6.04712
    endloop
  endfacet
  facet normal 0 0.30899 0.951065
    outer loop
      vertex 6.1 -48.5522 6.10534
      vertex 3.1 -48.373 6.04712
      vertex 3.1 -48.5522 6.10534
    endloop
  endfacet
  facet normal -0 0.187378 0.982288
    outer loop
      vertex 3.1 -48.188 6.01183
      vertex 6.1 -48.373 6.04712
      vertex 6.1 -48.188 6.01183
    endloop
  endfacet
  facet normal 0 0.187378 0.982288
    outer loop
      vertex 6.1 -48.373 6.04712
      vertex 3.1 -48.188 6.01183
      vertex 3.1 -48.373 6.04712
    endloop
  endfacet
  facet normal 0 0.968644 0.248452
    outer loop
      vertex 6.1 -49.4266 7.03647
      vertex 3.1 -49.4734 7.21893
      vertex 6.1 -49.4734 7.21893
    endloop
  endfacet
  facet normal 0 0.968644 0.248452
    outer loop
      vertex 3.1 -49.4734 7.21893
      vertex 6.1 -49.4266 7.03647
      vertex 3.1 -49.4266 7.03647
    endloop
  endfacet
  facet normal 0 0.968641 -0.248465
    outer loop
      vertex 6.1 -49.4734 7.78107
      vertex 3.1 -49.4266 7.96352
      vertex 6.1 -49.4266 7.96352
    endloop
  endfacet
  facet normal 0 0.968641 -0.248465
    outer loop
      vertex 3.1 -49.4266 7.96352
      vertex 6.1 -49.4734 7.78107
      vertex 3.1 -49.4734 7.78107
    endloop
  endfacet
  facet normal 0 0.992121 -0.125283
    outer loop
      vertex 6.1 -49.497 7.59418
      vertex 3.1 -49.4734 7.78107
      vertex 6.1 -49.4734 7.78107
    endloop
  endfacet
  facet normal 0 0.992121 -0.125283
    outer loop
      vertex 3.1 -49.4734 7.78107
      vertex 6.1 -49.497 7.59418
      vertex 3.1 -49.497 7.59418
    endloop
  endfacet
  facet normal 0 0.308942 -0.951081
    outer loop
      vertex 3.1 -48.5522 8.89466
      vertex 6.1 -48.373 8.95287
      vertex 6.1 -48.5522 8.89466
    endloop
  endfacet
  facet normal 0 0.308942 -0.951081
    outer loop
      vertex 6.1 -48.373 8.95287
      vertex 3.1 -48.5522 8.89466
      vertex 3.1 -48.373 8.95287
    endloop
  endfacet
  facet normal 0 -0.929673 0.368387
    outer loop
      vertex 3.1 -46.6428 6.86133
      vertex 6.1 -46.5734 7.03647
      vertex 3.1 -46.5734 7.03647
    endloop
  endfacet
  facet normal 0 -0.929673 0.368387
    outer loop
      vertex 6.1 -46.5734 7.03647
      vertex 3.1 -46.6428 6.86133
      vertex 6.1 -46.6428 6.86133
    endloop
  endfacet
  facet normal 0 -0.968644 0.248452
    outer loop
      vertex 3.1 -46.5734 7.03647
      vertex 6.1 -46.5266 7.21893
      vertex 3.1 -46.5266 7.21893
    endloop
  endfacet
  facet normal 0 -0.968644 0.248452
    outer loop
      vertex 6.1 -46.5266 7.21893
      vertex 3.1 -46.5734 7.03647
      vertex 6.1 -46.5734 7.03647
    endloop
  endfacet
  facet normal 0 -0.80908 0.587698
    outer loop
      vertex 3.1 -46.8442 6.54386
      vertex 6.1 -46.7335 6.69626
      vertex 3.1 -46.7335 6.69626
    endloop
  endfacet
  facet normal 0 -0.80908 0.587698
    outer loop
      vertex 6.1 -46.7335 6.69626
      vertex 3.1 -46.8442 6.54386
      vertex 6.1 -46.8442 6.54386
    endloop
  endfacet
  facet normal 0 -0.30899 0.951065
    outer loop
      vertex 3.1 -47.4478 6.10534
      vertex 6.1 -47.627 6.04712
      vertex 6.1 -47.4478 6.10534
    endloop
  endfacet
  facet normal 0 -0.30899 0.951065
    outer loop
      vertex 6.1 -47.627 6.04712
      vertex 3.1 -47.4478 6.10534
      vertex 3.1 -47.627 6.04712
    endloop
  endfacet
  facet normal 0 -0.535683 0.844419
    outer loop
      vertex 3.1 -47.1183 6.28647
      vertex 6.1 -47.2774 6.18554
      vertex 6.1 -47.1183 6.28647
    endloop
  endfacet
  facet normal 0 -0.535683 0.844419
    outer loop
      vertex 6.1 -47.2774 6.18554
      vertex 3.1 -47.1183 6.28647
      vertex 3.1 -47.2774 6.18554
    endloop
  endfacet
  facet normal 0 -0.187378 0.982288
    outer loop
      vertex 3.1 -47.627 6.04712
      vertex 6.1 -47.812 6.01183
      vertex 6.1 -47.627 6.04712
    endloop
  endfacet
  facet normal 0 -0.187378 0.982288
    outer loop
      vertex 6.1 -47.812 6.01183
      vertex 3.1 -47.627 6.04712
      vertex 3.1 -47.812 6.01183
    endloop
  endfacet
  facet normal 0 -0.968641 -0.248465
    outer loop
      vertex 3.1 -46.5266 7.78107
      vertex 6.1 -46.5734 7.96352
      vertex 3.1 -46.5734 7.96352
    endloop
  endfacet
  facet normal 0 -0.968641 -0.248465
    outer loop
      vertex 6.1 -46.5734 7.96352
      vertex 3.1 -46.5266 7.78107
      vertex 6.1 -46.5266 7.78107
    endloop
  endfacet
  facet normal 0 -0.425848 -0.904795
    outer loop
      vertex 3.1 -47.4478 8.89466
      vertex 6.1 -47.2774 8.81446
      vertex 6.1 -47.4478 8.89466
    endloop
  endfacet
  facet normal -0 -0.425848 -0.904795
    outer loop
      vertex 6.1 -47.2774 8.81446
      vertex 3.1 -47.4478 8.89466
      vertex 3.1 -47.2774 8.81446
    endloop
  endfacet
  facet normal -0 0.535683 0.844419
    outer loop
      vertex 3.1 -48.7226 6.18554
      vertex 6.1 -48.8817 6.28647
      vertex 6.1 -48.7226 6.18554
    endloop
  endfacet
  facet normal 0 0.535683 0.844419
    outer loop
      vertex 6.1 -48.8817 6.28647
      vertex 3.1 -48.7226 6.18554
      vertex 3.1 -48.8817 6.28647
    endloop
  endfacet
  facet normal 0 0.728817 0.684709
    outer loop
      vertex 6.1 -49.0268 6.40655
      vertex 3.1 -49.1558 6.54386
      vertex 6.1 -49.1558 6.54386
    endloop
  endfacet
  facet normal 0 0.728817 0.684709
    outer loop
      vertex 3.1 -49.1558 6.54386
      vertex 6.1 -49.0268 6.40655
      vertex 3.1 -49.0268 6.40655
    endloop
  endfacet
  facet normal -0 0.637559 0.770402
    outer loop
      vertex 3.1 -48.8817 6.28647
      vertex 6.1 -49.0268 6.40655
      vertex 6.1 -48.8817 6.28647
    endloop
  endfacet
  facet normal 0 0.637559 0.770402
    outer loop
      vertex 6.1 -49.0268 6.40655
      vertex 3.1 -48.8817 6.28647
      vertex 3.1 -49.0268 6.40655
    endloop
  endfacet
  facet normal 0 0.99212 0.125289
    outer loop
      vertex 6.1 -49.4734 7.21893
      vertex 3.1 -49.497 7.40581
      vertex 6.1 -49.497 7.40581
    endloop
  endfacet
  facet normal 0 0.99212 0.125289
    outer loop
      vertex 3.1 -49.497 7.40581
      vertex 6.1 -49.4734 7.21893
      vertex 3.1 -49.4734 7.21893
    endloop
  endfacet
  facet normal 0 0.929673 0.368387
    outer loop
      vertex 6.1 -49.3572 6.86133
      vertex 3.1 -49.4266 7.03647
      vertex 6.1 -49.4266 7.03647
    endloop
  endfacet
  facet normal 0 0.929673 0.368387
    outer loop
      vertex 3.1 -49.4266 7.03647
      vertex 6.1 -49.3572 6.86133
      vertex 3.1 -49.3572 6.86133
    endloop
  endfacet
  facet normal 0 0.80908 0.587698
    outer loop
      vertex 6.1 -49.1558 6.54386
      vertex 3.1 -49.2665 6.69626
      vertex 6.1 -49.2665 6.69626
    endloop
  endfacet
  facet normal 0 0.80908 0.587698
    outer loop
      vertex 3.1 -49.2665 6.69626
      vertex 6.1 -49.1558 6.54386
      vertex 3.1 -49.1558 6.54386
    endloop
  endfacet
  facet normal 0 0.876414 -0.481558
    outer loop
      vertex 6.1 -49.3572 8.13867
      vertex 3.1 -49.2665 8.30374
      vertex 6.1 -49.2665 8.30374
    endloop
  endfacet
  facet normal 0 0.876414 -0.481558
    outer loop
      vertex 3.1 -49.2665 8.30374
      vertex 6.1 -49.3572 8.13867
      vertex 3.1 -49.3572 8.13867
    endloop
  endfacet
  facet normal 0 0.728817 -0.684709
    outer loop
      vertex 6.1 -49.1558 8.45614
      vertex 3.1 -49.0268 8.59345
      vertex 6.1 -49.0268 8.59345
    endloop
  endfacet
  facet normal 0 0.728817 -0.684709
    outer loop
      vertex 3.1 -49.0268 8.59345
      vertex 6.1 -49.1558 8.45614
      vertex 3.1 -49.1558 8.45614
    endloop
  endfacet
  facet normal 0 0.80908 -0.587698
    outer loop
      vertex 6.1 -49.2665 8.30374
      vertex 3.1 -49.1558 8.45614
      vertex 6.1 -49.1558 8.45614
    endloop
  endfacet
  facet normal 0 0.80908 -0.587698
    outer loop
      vertex 3.1 -49.1558 8.45614
      vertex 6.1 -49.2665 8.30374
      vertex 3.1 -49.2665 8.30374
    endloop
  endfacet
  facet normal 0 0.425848 -0.904795
    outer loop
      vertex 3.1 -48.7226 8.81446
      vertex 6.1 -48.5522 8.89466
      vertex 6.1 -48.7226 8.81446
    endloop
  endfacet
  facet normal 0 0.425848 -0.904795
    outer loop
      vertex 6.1 -48.5522 8.89466
      vertex 3.1 -48.7226 8.81446
      vertex 3.1 -48.5522 8.89466
    endloop
  endfacet
  facet normal 0 0.637528 -0.770428
    outer loop
      vertex 3.1 -49.0268 8.59345
      vertex 6.1 -48.8817 8.71352
      vertex 6.1 -49.0268 8.59345
    endloop
  endfacet
  facet normal 0 0.637528 -0.770428
    outer loop
      vertex 6.1 -48.8817 8.71352
      vertex 3.1 -49.0268 8.59345
      vertex 3.1 -48.8817 8.71352
    endloop
  endfacet
  facet normal 0 0.535721 -0.844395
    outer loop
      vertex 3.1 -48.8817 8.71352
      vertex 6.1 -48.7226 8.81446
      vertex 6.1 -48.8817 8.71352
    endloop
  endfacet
  facet normal 0 0.535721 -0.844395
    outer loop
      vertex 6.1 -48.7226 8.81446
      vertex 3.1 -48.8817 8.71352
      vertex 3.1 -48.7226 8.81446
    endloop
  endfacet
  facet normal 0 0.187429 -0.982278
    outer loop
      vertex 3.1 -48.373 8.95287
      vertex 6.1 -48.188 8.98817
      vertex 6.1 -48.373 8.95287
    endloop
  endfacet
  facet normal 0 0.187429 -0.982278
    outer loop
      vertex 6.1 -48.188 8.98817
      vertex 3.1 -48.373 8.95287
      vertex 3.1 -48.188 8.98817
    endloop
  endfacet
  facet normal 0 -0.876414 0.481558
    outer loop
      vertex 3.1 -46.7335 6.69626
      vertex 6.1 -46.6428 6.86133
      vertex 3.1 -46.6428 6.86133
    endloop
  endfacet
  facet normal 0 -0.876414 0.481558
    outer loop
      vertex 6.1 -46.6428 6.86133
      vertex 3.1 -46.7335 6.69626
      vertex 6.1 -46.7335 6.69626
    endloop
  endfacet
  facet normal 0 -0.425848 0.904795
    outer loop
      vertex 3.1 -47.2774 6.18554
      vertex 6.1 -47.4478 6.10534
      vertex 6.1 -47.2774 6.18554
    endloop
  endfacet
  facet normal 0 -0.425848 0.904795
    outer loop
      vertex 6.1 -47.4478 6.10534
      vertex 3.1 -47.2774 6.18554
      vertex 3.1 -47.4478 6.10534
    endloop
  endfacet
  facet normal 0 -0.0628013 0.998026
    outer loop
      vertex 3.1 -47.812 6.01183
      vertex 6.1 -48 6
      vertex 6.1 -47.812 6.01183
    endloop
  endfacet
  facet normal 0 -0.0628013 0.998026
    outer loop
      vertex 6.1 -48 6
      vertex 3.1 -47.812 6.01183
      vertex 3.1 -48 6
    endloop
  endfacet
  facet normal 0 -1 0
    outer loop
      vertex 3.1 -46.503 7.40581
      vertex 6.1 -46.503 7.59418
      vertex 3.1 -46.503 7.59418
    endloop
  endfacet
  facet normal 0 -1 -0
    outer loop
      vertex 6.1 -46.503 7.59418
      vertex 3.1 -46.503 7.40581
      vertex 6.1 -46.503 7.40581
    endloop
  endfacet
  facet normal 0 -0.92968 -0.368369
    outer loop
      vertex 3.1 -46.5734 7.96352
      vertex 6.1 -46.6428 8.13867
      vertex 3.1 -46.6428 8.13867
    endloop
  endfacet
  facet normal 0 -0.92968 -0.368369
    outer loop
      vertex 6.1 -46.6428 8.13867
      vertex 3.1 -46.5734 7.96352
      vertex 6.1 -46.5734 7.96352
    endloop
  endfacet
  facet normal 0 -0.637528 -0.770428
    outer loop
      vertex 3.1 -47.1183 8.71352
      vertex 6.1 -46.9732 8.59345
      vertex 6.1 -47.1183 8.71352
    endloop
  endfacet
  facet normal -0 -0.637528 -0.770428
    outer loop
      vertex 6.1 -46.9732 8.59345
      vertex 3.1 -47.1183 8.71352
      vertex 3.1 -46.9732 8.59345
    endloop
  endfacet
  facet normal 0 -0.728817 -0.684709
    outer loop
      vertex 3.1 -46.8442 8.45614
      vertex 6.1 -46.9732 8.59345
      vertex 3.1 -46.9732 8.59345
    endloop
  endfacet
  facet normal 0 -0.728817 -0.684709
    outer loop
      vertex 6.1 -46.9732 8.59345
      vertex 3.1 -46.8442 8.45614
      vertex 6.1 -46.8442 8.45614
    endloop
  endfacet
  facet normal 0 -0.308942 -0.951081
    outer loop
      vertex 3.1 -47.627 8.95287
      vertex 6.1 -47.4478 8.89466
      vertex 6.1 -47.627 8.95287
    endloop
  endfacet
  facet normal -0 -0.308942 -0.951081
    outer loop
      vertex 6.1 -47.4478 8.89466
      vertex 3.1 -47.627 8.95287
      vertex 3.1 -47.4478 8.89466
    endloop
  endfacet
  facet normal -0 0.425848 0.904795
    outer loop
      vertex 3.1 -48.5522 6.10534
      vertex 6.1 -48.7226 6.18554
      vertex 6.1 -48.5522 6.10534
    endloop
  endfacet
  facet normal 0 0.425848 0.904795
    outer loop
      vertex 6.1 -48.7226 6.18554
      vertex 3.1 -48.5522 6.10534
      vertex 3.1 -48.7226 6.18554
    endloop
  endfacet
  facet normal 0 1 -0
    outer loop
      vertex 6.1 -49.497 7.40581
      vertex 3.1 -49.497 7.59418
      vertex 6.1 -49.497 7.59418
    endloop
  endfacet
  facet normal 0 1 0
    outer loop
      vertex 3.1 -49.497 7.59418
      vertex 6.1 -49.497 7.40581
      vertex 3.1 -49.497 7.40581
    endloop
  endfacet
  facet normal 0 0.876414 0.481558
    outer loop
      vertex 6.1 -49.2665 6.69626
      vertex 3.1 -49.3572 6.86133
      vertex 6.1 -49.3572 6.86133
    endloop
  endfacet
  facet normal 0 0.876414 0.481558
    outer loop
      vertex 3.1 -49.3572 6.86133
      vertex 6.1 -49.2665 6.69626
      vertex 3.1 -49.2665 6.69626
    endloop
  endfacet
  facet normal 0 0.92968 -0.368369
    outer loop
      vertex 6.1 -49.4266 7.96352
      vertex 3.1 -49.3572 8.13867
      vertex 6.1 -49.3572 8.13867
    endloop
  endfacet
  facet normal 0 0.92968 -0.368369
    outer loop
      vertex 3.1 -49.3572 8.13867
      vertex 6.1 -49.4266 7.96352
      vertex 3.1 -49.4266 7.96352
    endloop
  endfacet
  facet normal 0 0.0628013 -0.998026
    outer loop
      vertex 3.1 -48.188 8.98817
      vertex 6.1 -48 9
      vertex 6.1 -48.188 8.98817
    endloop
  endfacet
  facet normal 0 0.0628013 -0.998026
    outer loop
      vertex 6.1 -48 9
      vertex 3.1 -48.188 8.98817
      vertex 3.1 -48 9
    endloop
  endfacet
  facet normal 0 -0.728817 0.684709
    outer loop
      vertex 3.1 -46.9732 6.40655
      vertex 6.1 -46.8442 6.54386
      vertex 3.1 -46.8442 6.54386
    endloop
  endfacet
  facet normal 0 -0.728817 0.684709
    outer loop
      vertex 6.1 -46.8442 6.54386
      vertex 3.1 -46.9732 6.40655
      vertex 6.1 -46.9732 6.40655
    endloop
  endfacet
  facet normal -0 0.0628013 0.998026
    outer loop
      vertex 3.1 -48 6
      vertex 6.1 -48.188 6.01183
      vertex 6.1 -48 6
    endloop
  endfacet
  facet normal 0 0.0628013 0.998026
    outer loop
      vertex 6.1 -48.188 6.01183
      vertex 3.1 -48 6
      vertex 3.1 -48.188 6.01183
    endloop
  endfacet
  facet normal 0 -0.992121 -0.125283
    outer loop
      vertex 3.1 -46.503 7.59418
      vertex 6.1 -46.5266 7.78107
      vertex 3.1 -46.5266 7.78107
    endloop
  endfacet
  facet normal 0 -0.992121 -0.125283
    outer loop
      vertex 6.1 -46.5266 7.78107
      vertex 3.1 -46.503 7.59418
      vertex 6.1 -46.503 7.59418
    endloop
  endfacet
  facet normal 0 -0.876414 -0.481558
    outer loop
      vertex 3.1 -46.6428 8.13867
      vertex 6.1 -46.7335 8.30374
      vertex 3.1 -46.7335 8.30374
    endloop
  endfacet
  facet normal 0 -0.876414 -0.481558
    outer loop
      vertex 6.1 -46.7335 8.30374
      vertex 3.1 -46.6428 8.13867
      vertex 6.1 -46.6428 8.13867
    endloop
  endfacet
  facet normal 0 0 -1
    outer loop
      vertex 3.1 -16.9 0
      vertex 6.1 -6.9 0
      vertex 6.1 -16.9 0
    endloop
  endfacet
  facet normal -0 0 -1
    outer loop
      vertex 6.1 -6.9 0
      vertex 3.1 -16.9 0
      vertex 3.1 -6.9 0
    endloop
  endfacet
  facet normal -1 0 0
    outer loop
      vertex 3.1 -6.9 0
      vertex 3.1 -10.403 7.40581
      vertex 3.1 -6.9 15
    endloop
  endfacet
  facet normal -1 0 0
    outer loop
      vertex 3.1 -6.9 0
      vertex 3.1 -10.4266 7.21893
      vertex 3.1 -10.403 7.40581
    endloop
  endfacet
  facet normal -1 0 0
    outer loop
      vertex 3.1 -6.9 0
      vertex 3.1 -10.4734 7.03647
      vertex 3.1 -10.4266 7.21893
    endloop
  endfacet
  facet normal -1 0 0
    outer loop
      vertex 3.1 -6.9 0
      vertex 3.1 -10.5428 6.86133
      vertex 3.1 -10.4734 7.03647
    endloop
  endfacet
  facet normal -1 0 0
    outer loop
      vertex 3.1 -6.9 0
      vertex 3.1 -10.6335 6.69626
      vertex 3.1 -10.5428 6.86133
    endloop
  endfacet
  facet normal -1 0 0
    outer loop
      vertex 3.1 -6.9 0
      vertex 3.1 -10.7442 6.54386
      vertex 3.1 -10.6335 6.69626
    endloop
  endfacet
  facet normal -1 0 0
    outer loop
      vertex 3.1 -6.9 0
      vertex 3.1 -10.8732 6.40655
      vertex 3.1 -10.7442 6.54386
    endloop
  endfacet
  facet normal -1 0 0
    outer loop
      vertex 3.1 -6.9 0
      vertex 3.1 -11.0183 6.28647
      vertex 3.1 -10.8732 6.40655
    endloop
  endfacet
  facet normal -1 0 0
    outer loop
      vertex 3.1 -6.9 0
      vertex 3.1 -11.1774 6.18554
      vertex 3.1 -11.0183 6.28647
    endloop
  endfacet
  facet normal -1 0 0
    outer loop
      vertex 3.1 -6.9 0
      vertex 3.1 -11.3478 6.10534
      vertex 3.1 -11.1774 6.18554
    endloop
  endfacet
  facet normal -1 0 0
    outer loop
      vertex 3.1 -6.9 0
      vertex 3.1 -11.527 6.04712
      vertex 3.1 -11.3478 6.10534
    endloop
  endfacet
  facet normal -1 0 0
    outer loop
      vertex 3.1 -6.9 0
      vertex 3.1 -11.712 6.01183
      vertex 3.1 -11.527 6.04712
    endloop
  endfacet
  facet normal -1 0 0
    outer loop
      vertex 3.1 -6.9 0
      vertex 3.1 -11.9 6
      vertex 3.1 -11.712 6.01183
    endloop
  endfacet
  facet normal -1 0 0
    outer loop
      vertex 3.1 -16.9 0
      vertex 3.1 -11.9 6
      vertex 3.1 -6.9 0
    endloop
  endfacet
  facet normal -1 -0 0
    outer loop
      vertex 3.1 -11.9 6
      vertex 3.1 -16.9 0
      vertex 3.1 -12.088 6.01183
    endloop
  endfacet
  facet normal -1 -0 0
    outer loop
      vertex 3.1 -12.088 6.01183
      vertex 3.1 -16.9 0
      vertex 3.1 -12.273 6.04712
    endloop
  endfacet
  facet normal -1 -0 0
    outer loop
      vertex 3.1 -12.273 6.04712
      vertex 3.1 -16.9 0
      vertex 3.1 -12.4522 6.10534
    endloop
  endfacet
  facet normal -1 -0 0
    outer loop
      vertex 3.1 -12.4522 6.10534
      vertex 3.1 -16.9 0
      vertex 3.1 -12.6226 6.18554
    endloop
  endfacet
  facet normal -1 -0 0
    outer loop
      vertex 3.1 -12.6226 6.18554
      vertex 3.1 -16.9 0
      vertex 3.1 -12.7817 6.28647
    endloop
  endfacet
  facet normal -1 -0 0
    outer loop
      vertex 3.1 -13.397 7.40581
      vertex 3.1 -16.9 0
      vertex 3.1 -13.397 7.59418
    endloop
  endfacet
  facet normal -1 -0 0
    outer loop
      vertex 3.1 -13.3734 7.21893
      vertex 3.1 -16.9 0
      vertex 3.1 -13.397 7.40581
    endloop
  endfacet
  facet normal -1 -0 0
    outer loop
      vertex 3.1 -13.3266 7.03647
      vertex 3.1 -16.9 0
      vertex 3.1 -13.3734 7.21893
    endloop
  endfacet
  facet normal -1 -0 0
    outer loop
      vertex 3.1 -13.2572 6.86133
      vertex 3.1 -16.9 0
      vertex 3.1 -13.3266 7.03647
    endloop
  endfacet
  facet normal -1 -0 0
    outer loop
      vertex 3.1 -13.1665 6.69626
      vertex 3.1 -16.9 0
      vertex 3.1 -13.2572 6.86133
    endloop
  endfacet
  facet normal -1 -0 0
    outer loop
      vertex 3.1 -13.0558 6.54386
      vertex 3.1 -16.9 0
      vertex 3.1 -13.1665 6.69626
    endloop
  endfacet
  facet normal -1 -0 0
    outer loop
      vertex 3.1 -12.9268 6.40655
      vertex 3.1 -16.9 0
      vertex 3.1 -13.0558 6.54386
    endloop
  endfacet
  facet normal -1 -0 0
    outer loop
      vertex 3.1 -12.7817 6.28647
      vertex 3.1 -16.9 0
      vertex 3.1 -12.9268 6.40655
    endloop
  endfacet
  facet normal -1 0 0
    outer loop
      vertex 3.1 -10.403 7.59418
      vertex 3.1 -6.9 15
      vertex 3.1 -10.403 7.40581
    endloop
  endfacet
  facet normal -1 0 0
    outer loop
      vertex 3.1 -10.4266 7.78107
      vertex 3.1 -6.9 15
      vertex 3.1 -10.403 7.59418
    endloop
  endfacet
  facet normal -1 0 0
    outer loop
      vertex 3.1 -10.4734 7.96352
      vertex 3.1 -6.9 15
      vertex 3.1 -10.4266 7.78107
    endloop
  endfacet
  facet normal -1 0 0
    outer loop
      vertex 3.1 -10.5428 8.13867
      vertex 3.1 -6.9 15
      vertex 3.1 -10.4734 7.96352
    endloop
  endfacet
  facet normal -1 0 0
    outer loop
      vertex 3.1 -10.6335 8.30374
      vertex 3.1 -6.9 15
      vertex 3.1 -10.5428 8.13867
    endloop
  endfacet
  facet normal -1 0 0
    outer loop
      vertex 3.1 -10.7442 8.45614
      vertex 3.1 -6.9 15
      vertex 3.1 -10.6335 8.30374
    endloop
  endfacet
  facet normal -1 0 0
    outer loop
      vertex 3.1 -10.8732 8.59345
      vertex 3.1 -6.9 15
      vertex 3.1 -10.7442 8.45614
    endloop
  endfacet
  facet normal -1 0 0
    outer loop
      vertex 3.1 -11.0183 8.71352
      vertex 3.1 -6.9 15
      vertex 3.1 -10.8732 8.59345
    endloop
  endfacet
  facet normal -1 0 0
    outer loop
      vertex 3.1 -11.1774 8.81446
      vertex 3.1 -6.9 15
      vertex 3.1 -11.0183 8.71352
    endloop
  endfacet
  facet normal -1 0 0
    outer loop
      vertex 3.1 -11.3478 8.89466
      vertex 3.1 -6.9 15
      vertex 3.1 -11.1774 8.81446
    endloop
  endfacet
  facet normal -1 0 0
    outer loop
      vertex 3.1 -11.527 8.95287
      vertex 3.1 -6.9 15
      vertex 3.1 -11.3478 8.89466
    endloop
  endfacet
  facet normal -1 0 0
    outer loop
      vertex 3.1 -11.712 8.98817
      vertex 3.1 -6.9 15
      vertex 3.1 -11.527 8.95287
    endloop
  endfacet
  facet normal -1 0 0
    outer loop
      vertex 3.1 -11.9 9
      vertex 3.1 -6.9 15
      vertex 3.1 -11.712 8.98817
    endloop
  endfacet
  facet normal -1 0 0
    outer loop
      vertex 3.1 -16.9 15
      vertex 3.1 -11.9 9
      vertex 3.1 -12.088 8.98817
    endloop
  endfacet
  facet normal -1 0 0
    outer loop
      vertex 3.1 -16.9 15
      vertex 3.1 -12.088 8.98817
      vertex 3.1 -12.273 8.95287
    endloop
  endfacet
  facet normal -1 0 0
    outer loop
      vertex 3.1 -16.9 15
      vertex 3.1 -12.273 8.95287
      vertex 3.1 -12.4522 8.89466
    endloop
  endfacet
  facet normal -1 0 0
    outer loop
      vertex 3.1 -16.9 15
      vertex 3.1 -12.4522 8.89466
      vertex 3.1 -12.6226 8.81446
    endloop
  endfacet
  facet normal -1 0 0
    outer loop
      vertex 3.1 -16.9 15
      vertex 3.1 -12.6226 8.81446
      vertex 3.1 -12.7817 8.71352
    endloop
  endfacet
  facet normal -1 0 0
    outer loop
      vertex 3.1 -16.9 15
      vertex 3.1 -12.7817 8.71352
      vertex 3.1 -12.9268 8.59345
    endloop
  endfacet
  facet normal -1 0 0
    outer loop
      vertex 3.1 -16.9 15
      vertex 3.1 -13.397 7.59418
      vertex 3.1 -16.9 0
    endloop
  endfacet
  facet normal -1 0 0
    outer loop
      vertex 3.1 -13.397 7.59418
      vertex 3.1 -16.9 15
      vertex 3.1 -13.3734 7.78107
    endloop
  endfacet
  facet normal -1 0 0
    outer loop
      vertex 3.1 -13.3734 7.78107
      vertex 3.1 -16.9 15
      vertex 3.1 -13.3266 7.96352
    endloop
  endfacet
  facet normal -1 0 0
    outer loop
      vertex 3.1 -11.9 9
      vertex 3.1 -16.9 15
      vertex 3.1 -6.9 15
    endloop
  endfacet
  facet normal -1 0 0
    outer loop
      vertex 3.1 -13.0558 8.45614
      vertex 3.1 -16.9 15
      vertex 3.1 -12.9268 8.59345
    endloop
  endfacet
  facet normal -1 0 0
    outer loop
      vertex 3.1 -13.1665 8.30374
      vertex 3.1 -16.9 15
      vertex 3.1 -13.0558 8.45614
    endloop
  endfacet
  facet normal -1 0 0
    outer loop
      vertex 3.1 -13.2572 8.13867
      vertex 3.1 -16.9 15
      vertex 3.1 -13.1665 8.30374
    endloop
  endfacet
  facet normal -1 0 0
    outer loop
      vertex 3.1 -13.3266 7.96352
      vertex 3.1 -16.9 15
      vertex 3.1 -13.2572 8.13867
    endloop
  endfacet
  facet normal -0 0 1
    outer loop
      vertex 3.1 -6.9 15
      vertex 6.1 -16.9 15
      vertex 6.1 -6.9 15
    endloop
  endfacet
  facet normal 0 0 1
    outer loop
      vertex 6.1 -16.9 15
      vertex 3.1 -6.9 15
      vertex 3.1 -16.9 15
    endloop
  endfacet
  facet normal 0 1 -0
    outer loop
      vertex 6.1 -6.9 0
      vertex 3.1 -6.9 15
      vertex 6.1 -6.9 15
    endloop
  endfacet
  facet normal 0 1 0
    outer loop
      vertex 3.1 -6.9 15
      vertex 6.1 -6.9 0
      vertex 3.1 -6.9 0
    endloop
  endfacet
  facet normal 1 0 0
    outer loop
      vertex 6.1 -6.9 15
      vertex 6.1 -10.403 7.59418
      vertex 6.1 -6.9 0
    endloop
  endfacet
  facet normal 1 0 0
    outer loop
      vertex 6.1 -6.9 15
      vertex 6.1 -10.4266 7.78107
      vertex 6.1 -10.403 7.59418
    endloop
  endfacet
  facet normal 1 0 0
    outer loop
      vertex 6.1 -6.9 15
      vertex 6.1 -10.4734 7.96352
      vertex 6.1 -10.4266 7.78107
    endloop
  endfacet
  facet normal 1 0 0
    outer loop
      vertex 6.1 -6.9 15
      vertex 6.1 -10.5428 8.13867
      vertex 6.1 -10.4734 7.96352
    endloop
  endfacet
  facet normal 1 0 0
    outer loop
      vertex 6.1 -6.9 15
      vertex 6.1 -10.6335 8.30374
      vertex 6.1 -10.5428 8.13867
    endloop
  endfacet
  facet normal 1 0 0
    outer loop
      vertex 6.1 -6.9 15
      vertex 6.1 -10.7442 8.45614
      vertex 6.1 -10.6335 8.30374
    endloop
  endfacet
  facet normal 1 0 0
    outer loop
      vertex 6.1 -6.9 15
      vertex 6.1 -10.8732 8.59345
      vertex 6.1 -10.7442 8.45614
    endloop
  endfacet
  facet normal 1 0 0
    outer loop
      vertex 6.1 -6.9 15
      vertex 6.1 -11.0183 8.71352
      vertex 6.1 -10.8732 8.59345
    endloop
  endfacet
  facet normal 1 0 0
    outer loop
      vertex 6.1 -6.9 15
      vertex 6.1 -11.1774 8.81446
      vertex 6.1 -11.0183 8.71352
    endloop
  endfacet
  facet normal 1 0 0
    outer loop
      vertex 6.1 -6.9 15
      vertex 6.1 -11.3478 8.89466
      vertex 6.1 -11.1774 8.81446
    endloop
  endfacet
  facet normal 1 0 0
    outer loop
      vertex 6.1 -6.9 15
      vertex 6.1 -11.527 8.95287
      vertex 6.1 -11.3478 8.89466
    endloop
  endfacet
  facet normal 1 0 0
    outer loop
      vertex 6.1 -6.9 15
      vertex 6.1 -11.712 8.98817
      vertex 6.1 -11.527 8.95287
    endloop
  endfacet
  facet normal 1 0 0
    outer loop
      vertex 6.1 -6.9 15
      vertex 6.1 -11.9 9
      vertex 6.1 -11.712 8.98817
    endloop
  endfacet
  facet normal 1 -0 0
    outer loop
      vertex 6.1 -16.9 15
      vertex 6.1 -11.9 9
      vertex 6.1 -6.9 15
    endloop
  endfacet
  facet normal 1 0 0
    outer loop
      vertex 6.1 -11.9 9
      vertex 6.1 -16.9 15
      vertex 6.1 -12.088 8.98817
    endloop
  endfacet
  facet normal 1 0 0
    outer loop
      vertex 6.1 -12.088 8.98817
      vertex 6.1 -16.9 15
      vertex 6.1 -12.273 8.95287
    endloop
  endfacet
  facet normal 1 0 0
    outer loop
      vertex 6.1 -12.273 8.95287
      vertex 6.1 -16.9 15
      vertex 6.1 -12.4522 8.89466
    endloop
  endfacet
  facet normal 1 0 0
    outer loop
      vertex 6.1 -12.4522 8.89466
      vertex 6.1 -16.9 15
      vertex 6.1 -12.6226 8.81446
    endloop
  endfacet
  facet normal 1 0 0
    outer loop
      vertex 6.1 -12.6226 8.81446
      vertex 6.1 -16.9 15
      vertex 6.1 -12.7817 8.71352
    endloop
  endfacet
  facet normal 1 0 0
    outer loop
      vertex 6.1 -13.397 7.59418
      vertex 6.1 -16.9 15
      vertex 6.1 -13.397 7.40581
    endloop
  endfacet
  facet normal 1 0 0
    outer loop
      vertex 6.1 -13.3734 7.78107
      vertex 6.1 -16.9 15
      vertex 6.1 -13.397 7.59418
    endloop
  endfacet
  facet normal 1 0 0
    outer loop
      vertex 6.1 -13.3266 7.96352
      vertex 6.1 -16.9 15
      vertex 6.1 -13.3734 7.78107
    endloop
  endfacet
  facet normal 1 0 0
    outer loop
      vertex 6.1 -13.2572 8.13867
      vertex 6.1 -16.9 15
      vertex 6.1 -13.3266 7.96352
    endloop
  endfacet
  facet normal 1 0 0
    outer loop
      vertex 6.1 -13.1665 8.30374
      vertex 6.1 -16.9 15
      vertex 6.1 -13.2572 8.13867
    endloop
  endfacet
  facet normal 1 0 0
    outer loop
      vertex 6.1 -13.0558 8.45614
      vertex 6.1 -16.9 15
      vertex 6.1 -13.1665 8.30374
    endloop
  endfacet
  facet normal 1 0 0
    outer loop
      vertex 6.1 -12.9268 8.59345
      vertex 6.1 -16.9 15
      vertex 6.1 -13.0558 8.45614
    endloop
  endfacet
  facet normal 1 0 0
    outer loop
      vertex 6.1 -12.7817 8.71352
      vertex 6.1 -16.9 15
      vertex 6.1 -12.9268 8.59345
    endloop
  endfacet
  facet normal 1 -0 0
    outer loop
      vertex 6.1 -10.403 7.40581
      vertex 6.1 -6.9 0
      vertex 6.1 -10.403 7.59418
    endloop
  endfacet
  facet normal 1 -0 0
    outer loop
      vertex 6.1 -10.4266 7.21893
      vertex 6.1 -6.9 0
      vertex 6.1 -10.403 7.40581
    endloop
  endfacet
  facet normal 1 -0 0
    outer loop
      vertex 6.1 -10.4734 7.03647
      vertex 6.1 -6.9 0
      vertex 6.1 -10.4266 7.21893
    endloop
  endfacet
  facet normal 1 -0 0
    outer loop
      vertex 6.1 -10.5428 6.86133
      vertex 6.1 -6.9 0
      vertex 6.1 -10.4734 7.03647
    endloop
  endfacet
  facet normal 1 -0 0
    outer loop
      vertex 6.1 -10.6335 6.69626
      vertex 6.1 -6.9 0
      vertex 6.1 -10.5428 6.86133
    endloop
  endfacet
  facet normal 1 -0 0
    outer loop
      vertex 6.1 -10.7442 6.54386
      vertex 6.1 -6.9 0
      vertex 6.1 -10.6335 6.69626
    endloop
  endfacet
  facet normal 1 -0 0
    outer loop
      vertex 6.1 -10.8732 6.40655
      vertex 6.1 -6.9 0
      vertex 6.1 -10.7442 6.54386
    endloop
  endfacet
  facet normal 1 -0 0
    outer loop
      vertex 6.1 -11.0183 6.28647
      vertex 6.1 -6.9 0
      vertex 6.1 -10.8732 6.40655
    endloop
  endfacet
  facet normal 1 -0 0
    outer loop
      vertex 6.1 -11.1774 6.18554
      vertex 6.1 -6.9 0
      vertex 6.1 -11.0183 6.28647
    endloop
  endfacet
  facet normal 1 -0 0
    outer loop
      vertex 6.1 -11.3478 6.10534
      vertex 6.1 -6.9 0
      vertex 6.1 -11.1774 6.18554
    endloop
  endfacet
  facet normal 1 -0 0
    outer loop
      vertex 6.1 -11.527 6.04712
      vertex 6.1 -6.9 0
      vertex 6.1 -11.3478 6.10534
    endloop
  endfacet
  facet normal 1 -0 0
    outer loop
      vertex 6.1 -11.712 6.01183
      vertex 6.1 -6.9 0
      vertex 6.1 -11.527 6.04712
    endloop
  endfacet
  facet normal 1 -0 0
    outer loop
      vertex 6.1 -11.9 6
      vertex 6.1 -6.9 0
      vertex 6.1 -11.712 6.01183
    endloop
  endfacet
  facet normal 1 0 0
    outer loop
      vertex 6.1 -16.9 0
      vertex 6.1 -11.9 6
      vertex 6.1 -12.088 6.01183
    endloop
  endfacet
  facet normal 1 0 0
    outer loop
      vertex 6.1 -16.9 0
      vertex 6.1 -12.088 6.01183
      vertex 6.1 -12.273 6.04712
    endloop
  endfacet
  facet normal 1 0 0
    outer loop
      vertex 6.1 -16.9 0
      vertex 6.1 -12.273 6.04712
      vertex 6.1 -12.4522 6.10534
    endloop
  endfacet
  facet normal 1 0 0
    outer loop
      vertex 6.1 -16.9 0
      vertex 6.1 -12.4522 6.10534
      vertex 6.1 -12.6226 6.18554
    endloop
  endfacet
  facet normal 1 0 0
    outer loop
      vertex 6.1 -16.9 0
      vertex 6.1 -12.6226 6.18554
      vertex 6.1 -12.7817 6.28647
    endloop
  endfacet
  facet normal 1 0 0
    outer loop
      vertex 6.1 -16.9 0
      vertex 6.1 -12.7817 6.28647
      vertex 6.1 -12.9268 6.40655
    endloop
  endfacet
  facet normal 1 0 0
    outer loop
      vertex 6.1 -16.9 0
      vertex 6.1 -13.397 7.40581
      vertex 6.1 -16.9 15
    endloop
  endfacet
  facet normal 1 0 0
    outer loop
      vertex 6.1 -13.397 7.40581
      vertex 6.1 -16.9 0
      vertex 6.1 -13.3734 7.21893
    endloop
  endfacet
  facet normal 1 0 0
    outer loop
      vertex 6.1 -13.3734 7.21893
      vertex 6.1 -16.9 0
      vertex 6.1 -13.3266 7.03647
    endloop
  endfacet
  facet normal 1 0 0
    outer loop
      vertex 6.1 -11.9 6
      vertex 6.1 -16.9 0
      vertex 6.1 -6.9 0
    endloop
  endfacet
  facet normal 1 0 0
    outer loop
      vertex 6.1 -13.0558 6.54386
      vertex 6.1 -16.9 0
      vertex 6.1 -12.9268 6.40655
    endloop
  endfacet
  facet normal 1 0 0
    outer loop
      vertex 6.1 -13.1665 6.69626
      vertex 6.1 -16.9 0
      vertex 6.1 -13.0558 6.54386
    endloop
  endfacet
  facet normal 1 0 0
    outer loop
      vertex 6.1 -13.2572 6.86133
      vertex 6.1 -16.9 0
      vertex 6.1 -13.1665 6.69626
    endloop
  endfacet
  facet normal 1 0 0
    outer loop
      vertex 6.1 -13.3266 7.03647
      vertex 6.1 -16.9 0
      vertex 6.1 -13.2572 6.86133
    endloop
  endfacet
  facet normal 0 -1 0
    outer loop
      vertex 3.1 -16.9 0
      vertex 6.1 -16.9 15
      vertex 3.1 -16.9 15
    endloop
  endfacet
  facet normal 0 -1 -0
    outer loop
      vertex 6.1 -16.9 15
      vertex 3.1 -16.9 0
      vertex 6.1 -16.9 0
    endloop
  endfacet
  facet normal 0 -0.187429 -0.982278
    outer loop
      vertex 3.1 -11.712 8.98817
      vertex 6.1 -11.527 8.95287
      vertex 6.1 -11.712 8.98817
    endloop
  endfacet
  facet normal -0 -0.187429 -0.982278
    outer loop
      vertex 6.1 -11.527 8.95287
      vertex 3.1 -11.712 8.98817
      vertex 3.1 -11.527 8.95287
    endloop
  endfacet
  facet normal 0 -0.0628013 -0.998026
    outer loop
      vertex 3.1 -11.9 9
      vertex 6.1 -11.712 8.98817
      vertex 6.1 -11.9 9
    endloop
  endfacet
  facet normal -0 -0.0628013 -0.998026
    outer loop
      vertex 6.1 -11.712 8.98817
      vertex 3.1 -11.9 9
      vertex 3.1 -11.712 8.98817
    endloop
  endfacet
  facet normal 0 -0.99212 0.125289
    outer loop
      vertex 3.1 -10.4266 7.21893
      vertex 6.1 -10.403 7.40581
      vertex 3.1 -10.403 7.40581
    endloop
  endfacet
  facet normal 0 -0.99212 0.125289
    outer loop
      vertex 6.1 -10.403 7.40581
      vertex 3.1 -10.4266 7.21893
      vertex 6.1 -10.4266 7.21893
    endloop
  endfacet
  facet normal 0 -0.80908 -0.587698
    outer loop
      vertex 3.1 -10.6335 8.30374
      vertex 6.1 -10.7442 8.45614
      vertex 3.1 -10.7442 8.45614
    endloop
  endfacet
  facet normal 0 -0.80908 -0.587698
    outer loop
      vertex 6.1 -10.7442 8.45614
      vertex 3.1 -10.6335 8.30374
      vertex 6.1 -10.6335 8.30374
    endloop
  endfacet
  facet normal 0 -0.637559 0.770402
    outer loop
      vertex 3.1 -10.8732 6.40655
      vertex 6.1 -11.0183 6.28647
      vertex 6.1 -10.8732 6.40655
    endloop
  endfacet
  facet normal 0 -0.637559 0.770402
    outer loop
      vertex 6.1 -11.0183 6.28647
      vertex 3.1 -10.8732 6.40655
      vertex 3.1 -11.0183 6.28647
    endloop
  endfacet
  facet normal 0 -0.535721 -0.844395
    outer loop
      vertex 3.1 -11.1774 8.81446
      vertex 6.1 -11.0183 8.71352
      vertex 6.1 -11.1774 8.81446
    endloop
  endfacet
  facet normal -0 -0.535721 -0.844395
    outer loop
      vertex 6.1 -11.0183 8.71352
      vertex 3.1 -11.1774 8.81446
      vertex 3.1 -11.0183 8.71352
    endloop
  endfacet
  facet normal -0 0.30899 0.951065
    outer loop
      vertex 3.1 -12.273 6.04712
      vertex 6.1 -12.4522 6.10534
      vertex 6.1 -12.273 6.04712
    endloop
  endfacet
  facet normal 0 0.30899 0.951065
    outer loop
      vertex 6.1 -12.4522 6.10534
      vertex 3.1 -12.273 6.04712
      vertex 3.1 -12.4522 6.10534
    endloop
  endfacet
  facet normal -0 0.187378 0.982288
    outer loop
      vertex 3.1 -12.088 6.01183
      vertex 6.1 -12.273 6.04712
      vertex 6.1 -12.088 6.01183
    endloop
  endfacet
  facet normal 0 0.187378 0.982288
    outer loop
      vertex 6.1 -12.273 6.04712
      vertex 3.1 -12.088 6.01183
      vertex 3.1 -12.273 6.04712
    endloop
  endfacet
  facet normal 0 0.968644 0.248452
    outer loop
      vertex 6.1 -13.3266 7.03647
      vertex 3.1 -13.3734 7.21893
      vertex 6.1 -13.3734 7.21893
    endloop
  endfacet
  facet normal 0 0.968644 0.248452
    outer loop
      vertex 3.1 -13.3734 7.21893
      vertex 6.1 -13.3266 7.03647
      vertex 3.1 -13.3266 7.03647
    endloop
  endfacet
  facet normal 0 0.968641 -0.248465
    outer loop
      vertex 6.1 -13.3734 7.78107
      vertex 3.1 -13.3266 7.96352
      vertex 6.1 -13.3266 7.96352
    endloop
  endfacet
  facet normal 0 0.968641 -0.248465
    outer loop
      vertex 3.1 -13.3266 7.96352
      vertex 6.1 -13.3734 7.78107
      vertex 3.1 -13.3734 7.78107
    endloop
  endfacet
  facet normal 0 0.992121 -0.125283
    outer loop
      vertex 6.1 -13.397 7.59418
      vertex 3.1 -13.3734 7.78107
      vertex 6.1 -13.3734 7.78107
    endloop
  endfacet
  facet normal 0 0.992121 -0.125283
    outer loop
      vertex 3.1 -13.3734 7.78107
      vertex 6.1 -13.397 7.59418
      vertex 3.1 -13.397 7.59418
    endloop
  endfacet
  facet normal 0 0.308942 -0.951081
    outer loop
      vertex 3.1 -12.4522 8.89466
      vertex 6.1 -12.273 8.95287
      vertex 6.1 -12.4522 8.89466
    endloop
  endfacet
  facet normal 0 0.308942 -0.951081
    outer loop
      vertex 6.1 -12.273 8.95287
      vertex 3.1 -12.4522 8.89466
      vertex 3.1 -12.273 8.95287
    endloop
  endfacet
  facet normal 0 -0.929673 0.368387
    outer loop
      vertex 3.1 -10.5428 6.86133
      vertex 6.1 -10.4734 7.03647
      vertex 3.1 -10.4734 7.03647
    endloop
  endfacet
  facet normal 0 -0.929673 0.368387
    outer loop
      vertex 6.1 -10.4734 7.03647
      vertex 3.1 -10.5428 6.86133
      vertex 6.1 -10.5428 6.86133
    endloop
  endfacet
  facet normal 0 -0.968644 0.248452
    outer loop
      vertex 3.1 -10.4734 7.03647
      vertex 6.1 -10.4266 7.21893
      vertex 3.1 -10.4266 7.21893
    endloop
  endfacet
  facet normal 0 -0.968644 0.248452
    outer loop
      vertex 6.1 -10.4266 7.21893
      vertex 3.1 -10.4734 7.03647
      vertex 6.1 -10.4734 7.03647
    endloop
  endfacet
  facet normal 0 -0.80908 0.587698
    outer loop
      vertex 3.1 -10.7442 6.54386
      vertex 6.1 -10.6335 6.69626
      vertex 3.1 -10.6335 6.69626
    endloop
  endfacet
  facet normal 0 -0.80908 0.587698
    outer loop
      vertex 6.1 -10.6335 6.69626
      vertex 3.1 -10.7442 6.54386
      vertex 6.1 -10.7442 6.54386
    endloop
  endfacet
  facet normal 0 -0.30899 0.951065
    outer loop
      vertex 3.1 -11.3478 6.10534
      vertex 6.1 -11.527 6.04712
      vertex 6.1 -11.3478 6.10534
    endloop
  endfacet
  facet normal 0 -0.30899 0.951065
    outer loop
      vertex 6.1 -11.527 6.04712
      vertex 3.1 -11.3478 6.10534
      vertex 3.1 -11.527 6.04712
    endloop
  endfacet
  facet normal 0 -0.535683 0.844419
    outer loop
      vertex 3.1 -11.0183 6.28647
      vertex 6.1 -11.1774 6.18554
      vertex 6.1 -11.0183 6.28647
    endloop
  endfacet
  facet normal 0 -0.535683 0.844419
    outer loop
      vertex 6.1 -11.1774 6.18554
      vertex 3.1 -11.0183 6.28647
      vertex 3.1 -11.1774 6.18554
    endloop
  endfacet
  facet normal 0 -0.187378 0.982288
    outer loop
      vertex 3.1 -11.527 6.04712
      vertex 6.1 -11.712 6.01183
      vertex 6.1 -11.527 6.04712
    endloop
  endfacet
  facet normal 0 -0.187378 0.982288
    outer loop
      vertex 6.1 -11.712 6.01183
      vertex 3.1 -11.527 6.04712
      vertex 3.1 -11.712 6.01183
    endloop
  endfacet
  facet normal 0 -0.968641 -0.248465
    outer loop
      vertex 3.1 -10.4266 7.78107
      vertex 6.1 -10.4734 7.96352
      vertex 3.1 -10.4734 7.96352
    endloop
  endfacet
  facet normal 0 -0.968641 -0.248465
    outer loop
      vertex 6.1 -10.4734 7.96352
      vertex 3.1 -10.4266 7.78107
      vertex 6.1 -10.4266 7.78107
    endloop
  endfacet
  facet normal 0 -0.425848 -0.904795
    outer loop
      vertex 3.1 -11.3478 8.89466
      vertex 6.1 -11.1774 8.81446
      vertex 6.1 -11.3478 8.89466
    endloop
  endfacet
  facet normal -0 -0.425848 -0.904795
    outer loop
      vertex 6.1 -11.1774 8.81446
      vertex 3.1 -11.3478 8.89466
      vertex 3.1 -11.1774 8.81446
    endloop
  endfacet
  facet normal -0 0.535683 0.844419
    outer loop
      vertex 3.1 -12.6226 6.18554
      vertex 6.1 -12.7817 6.28647
      vertex 6.1 -12.6226 6.18554
    endloop
  endfacet
  facet normal 0 0.535683 0.844419
    outer loop
      vertex 6.1 -12.7817 6.28647
      vertex 3.1 -12.6226 6.18554
      vertex 3.1 -12.7817 6.28647
    endloop
  endfacet
  facet normal 0 0.728817 0.684709
    outer loop
      vertex 6.1 -12.9268 6.40655
      vertex 3.1 -13.0558 6.54386
      vertex 6.1 -13.0558 6.54386
    endloop
  endfacet
  facet normal 0 0.728817 0.684709
    outer loop
      vertex 3.1 -13.0558 6.54386
      vertex 6.1 -12.9268 6.40655
      vertex 3.1 -12.9268 6.40655
    endloop
  endfacet
  facet normal -0 0.637559 0.770402
    outer loop
      vertex 3.1 -12.7817 6.28647
      vertex 6.1 -12.9268 6.40655
      vertex 6.1 -12.7817 6.28647
    endloop
  endfacet
  facet normal 0 0.637559 0.770402
    outer loop
      vertex 6.1 -12.9268 6.40655
      vertex 3.1 -12.7817 6.28647
      vertex 3.1 -12.9268 6.40655
    endloop
  endfacet
  facet normal 0 0.99212 0.125289
    outer loop
      vertex 6.1 -13.3734 7.21893
      vertex 3.1 -13.397 7.40581
      vertex 6.1 -13.397 7.40581
    endloop
  endfacet
  facet normal 0 0.99212 0.125289
    outer loop
      vertex 3.1 -13.397 7.40581
      vertex 6.1 -13.3734 7.21893
      vertex 3.1 -13.3734 7.21893
    endloop
  endfacet
  facet normal 0 0.929673 0.368387
    outer loop
      vertex 6.1 -13.2572 6.86133
      vertex 3.1 -13.3266 7.03647
      vertex 6.1 -13.3266 7.03647
    endloop
  endfacet
  facet normal 0 0.929673 0.368387
    outer loop
      vertex 3.1 -13.3266 7.03647
      vertex 6.1 -13.2572 6.86133
      vertex 3.1 -13.2572 6.86133
    endloop
  endfacet
  facet normal 0 0.80908 0.587698
    outer loop
      vertex 6.1 -13.0558 6.54386
      vertex 3.1 -13.1665 6.69626
      vertex 6.1 -13.1665 6.69626
    endloop
  endfacet
  facet normal 0 0.80908 0.587698
    outer loop
      vertex 3.1 -13.1665 6.69626
      vertex 6.1 -13.0558 6.54386
      vertex 3.1 -13.0558 6.54386
    endloop
  endfacet
  facet normal 0 0.876414 -0.481558
    outer loop
      vertex 6.1 -13.2572 8.13867
      vertex 3.1 -13.1665 8.30374
      vertex 6.1 -13.1665 8.30374
    endloop
  endfacet
  facet normal 0 0.876414 -0.481558
    outer loop
      vertex 3.1 -13.1665 8.30374
      vertex 6.1 -13.2572 8.13867
      vertex 3.1 -13.2572 8.13867
    endloop
  endfacet
  facet normal 0 0.728817 -0.684709
    outer loop
      vertex 6.1 -13.0558 8.45614
      vertex 3.1 -12.9268 8.59345
      vertex 6.1 -12.9268 8.59345
    endloop
  endfacet
  facet normal 0 0.728817 -0.684709
    outer loop
      vertex 3.1 -12.9268 8.59345
      vertex 6.1 -13.0558 8.45614
      vertex 3.1 -13.0558 8.45614
    endloop
  endfacet
  facet normal 0 0.80908 -0.587698
    outer loop
      vertex 6.1 -13.1665 8.30374
      vertex 3.1 -13.0558 8.45614
      vertex 6.1 -13.0558 8.45614
    endloop
  endfacet
  facet normal 0 0.80908 -0.587698
    outer loop
      vertex 3.1 -13.0558 8.45614
      vertex 6.1 -13.1665 8.30374
      vertex 3.1 -13.1665 8.30374
    endloop
  endfacet
  facet normal 0 0.425848 -0.904795
    outer loop
      vertex 3.1 -12.6226 8.81446
      vertex 6.1 -12.4522 8.89466
      vertex 6.1 -12.6226 8.81446
    endloop
  endfacet
  facet normal 0 0.425848 -0.904795
    outer loop
      vertex 6.1 -12.4522 8.89466
      vertex 3.1 -12.6226 8.81446
      vertex 3.1 -12.4522 8.89466
    endloop
  endfacet
  facet normal 0 0.637528 -0.770428
    outer loop
      vertex 3.1 -12.9268 8.59345
      vertex 6.1 -12.7817 8.71352
      vertex 6.1 -12.9268 8.59345
    endloop
  endfacet
  facet normal 0 0.637528 -0.770428
    outer loop
      vertex 6.1 -12.7817 8.71352
      vertex 3.1 -12.9268 8.59345
      vertex 3.1 -12.7817 8.71352
    endloop
  endfacet
  facet normal 0 0.535721 -0.844395
    outer loop
      vertex 3.1 -12.7817 8.71352
      vertex 6.1 -12.6226 8.81446
      vertex 6.1 -12.7817 8.71352
    endloop
  endfacet
  facet normal 0 0.535721 -0.844395
    outer loop
      vertex 6.1 -12.6226 8.81446
      vertex 3.1 -12.7817 8.71352
      vertex 3.1 -12.6226 8.81446
    endloop
  endfacet
  facet normal 0 0.187429 -0.982278
    outer loop
      vertex 3.1 -12.273 8.95287
      vertex 6.1 -12.088 8.98817
      vertex 6.1 -12.273 8.95287
    endloop
  endfacet
  facet normal 0 0.187429 -0.982278
    outer loop
      vertex 6.1 -12.088 8.98817
      vertex 3.1 -12.273 8.95287
      vertex 3.1 -12.088 8.98817
    endloop
  endfacet
  facet normal 0 -0.876414 0.481558
    outer loop
      vertex 3.1 -10.6335 6.69626
      vertex 6.1 -10.5428 6.86133
      vertex 3.1 -10.5428 6.86133
    endloop
  endfacet
  facet normal 0 -0.876414 0.481558
    outer loop
      vertex 6.1 -10.5428 6.86133
      vertex 3.1 -10.6335 6.69626
      vertex 6.1 -10.6335 6.69626
    endloop
  endfacet
  facet normal 0 -0.425848 0.904795
    outer loop
      vertex 3.1 -11.1774 6.18554
      vertex 6.1 -11.3478 6.10534
      vertex 6.1 -11.1774 6.18554
    endloop
  endfacet
  facet normal 0 -0.425848 0.904795
    outer loop
      vertex 6.1 -11.3478 6.10534
      vertex 3.1 -11.1774 6.18554
      vertex 3.1 -11.3478 6.10534
    endloop
  endfacet
  facet normal 0 -0.0628013 0.998026
    outer loop
      vertex 3.1 -11.712 6.01183
      vertex 6.1 -11.9 6
      vertex 6.1 -11.712 6.01183
    endloop
  endfacet
  facet normal 0 -0.0628013 0.998026
    outer loop
      vertex 6.1 -11.9 6
      vertex 3.1 -11.712 6.01183
      vertex 3.1 -11.9 6
    endloop
  endfacet
  facet normal 0 -1 0
    outer loop
      vertex 3.1 -10.403 7.40581
      vertex 6.1 -10.403 7.59418
      vertex 3.1 -10.403 7.59418
    endloop
  endfacet
  facet normal 0 -1 -0
    outer loop
      vertex 6.1 -10.403 7.59418
      vertex 3.1 -10.403 7.40581
      vertex 6.1 -10.403 7.40581
    endloop
  endfacet
  facet normal 0 -0.92968 -0.368369
    outer loop
      vertex 3.1 -10.4734 7.96352
      vertex 6.1 -10.5428 8.13867
      vertex 3.1 -10.5428 8.13867
    endloop
  endfacet
  facet normal 0 -0.92968 -0.368369
    outer loop
      vertex 6.1 -10.5428 8.13867
      vertex 3.1 -10.4734 7.96352
      vertex 6.1 -10.4734 7.96352
    endloop
  endfacet
  facet normal 0 -0.637528 -0.770428
    outer loop
      vertex 3.1 -11.0183 8.71352
      vertex 6.1 -10.8732 8.59345
      vertex 6.1 -11.0183 8.71352
    endloop
  endfacet
  facet normal -0 -0.637528 -0.770428
    outer loop
      vertex 6.1 -10.8732 8.59345
      vertex 3.1 -11.0183 8.71352
      vertex 3.1 -10.8732 8.59345
    endloop
  endfacet
  facet normal 0 -0.728817 -0.684709
    outer loop
      vertex 3.1 -10.7442 8.45614
      vertex 6.1 -10.8732 8.59345
      vertex 3.1 -10.8732 8.59345
    endloop
  endfacet
  facet normal 0 -0.728817 -0.684709
    outer loop
      vertex 6.1 -10.8732 8.59345
      vertex 3.1 -10.7442 8.45614
      vertex 6.1 -10.7442 8.45614
    endloop
  endfacet
  facet normal 0 -0.308942 -0.951081
    outer loop
      vertex 3.1 -11.527 8.95287
      vertex 6.1 -11.3478 8.89466
      vertex 6.1 -11.527 8.95287
    endloop
  endfacet
  facet normal -0 -0.308942 -0.951081
    outer loop
      vertex 6.1 -11.3478 8.89466
      vertex 3.1 -11.527 8.95287
      vertex 3.1 -11.3478 8.89466
    endloop
  endfacet
  facet normal -0 0.425848 0.904795
    outer loop
      vertex 3.1 -12.4522 6.10534
      vertex 6.1 -12.6226 6.18554
      vertex 6.1 -12.4522 6.10534
    endloop
  endfacet
  facet normal 0 0.425848 0.904795
    outer loop
      vertex 6.1 -12.6226 6.18554
      vertex 3.1 -12.4522 6.10534
      vertex 3.1 -12.6226 6.18554
    endloop
  endfacet
  facet normal 0 1 -0
    outer loop
      vertex 6.1 -13.397 7.40581
      vertex 3.1 -13.397 7.59418
      vertex 6.1 -13.397 7.59418
    endloop
  endfacet
  facet normal 0 1 0
    outer loop
      vertex 3.1 -13.397 7.59418
      vertex 6.1 -13.397 7.40581
      vertex 3.1 -13.397 7.40581
    endloop
  endfacet
  facet normal 0 0.876414 0.481558
    outer loop
      vertex 6.1 -13.1665 6.69626
      vertex 3.1 -13.2572 6.86133
      vertex 6.1 -13.2572 6.86133
    endloop
  endfacet
  facet normal 0 0.876414 0.481558
    outer loop
      vertex 3.1 -13.2572 6.86133
      vertex 6.1 -13.1665 6.69626
      vertex 3.1 -13.1665 6.69626
    endloop
  endfacet
  facet normal 0 0.92968 -0.368369
    outer loop
      vertex 6.1 -13.3266 7.96352
      vertex 3.1 -13.2572 8.13867
      vertex 6.1 -13.2572 8.13867
    endloop
  endfacet
  facet normal 0 0.92968 -0.368369
    outer loop
      vertex 3.1 -13.2572 8.13867
      vertex 6.1 -13.3266 7.96352
      vertex 3.1 -13.3266 7.96352
    endloop
  endfacet
  facet normal 0 0.0628013 -0.998026
    outer loop
      vertex 3.1 -12.088 8.98817
      vertex 6.1 -11.9 9
      vertex 6.1 -12.088 8.98817
    endloop
  endfacet
  facet normal 0 0.0628013 -0.998026
    outer loop
      vertex 6.1 -11.9 9
      vertex 3.1 -12.088 8.98817
      vertex 3.1 -11.9 9
    endloop
  endfacet
  facet normal 0 -0.728817 0.684709
    outer loop
      vertex 3.1 -10.8732 6.40655
      vertex 6.1 -10.7442 6.54386
      vertex 3.1 -10.7442 6.54386
    endloop
  endfacet
  facet normal 0 -0.728817 0.684709
    outer loop
      vertex 6.1 -10.7442 6.54386
      vertex 3.1 -10.8732 6.40655
      vertex 6.1 -10.8732 6.40655
    endloop
  endfacet
  facet normal -0 0.0628013 0.998026
    outer loop
      vertex 3.1 -11.9 6
      vertex 6.1 -12.088 6.01183
      vertex 6.1 -11.9 6
    endloop
  endfacet
  facet normal 0 0.0628013 0.998026
    outer loop
      vertex 6.1 -12.088 6.01183
      vertex 3.1 -11.9 6
      vertex 3.1 -12.088 6.01183
    endloop
  endfacet
  facet normal 0 -0.992121 -0.125283
    outer loop
      vertex 3.1 -10.403 7.59418
      vertex 6.1 -10.4266 7.78107
      vertex 3.1 -10.4266 7.78107
    endloop
  endfacet
  facet normal 0 -0.992121 -0.125283
    outer loop
      vertex 6.1 -10.4266 7.78107
      vertex 3.1 -10.403 7.59418
      vertex 6.1 -10.403 7.59418
    endloop
  endfacet
  facet normal 0 -0.876414 -0.481558
    outer loop
      vertex 3.1 -10.5428 8.13867
      vertex 6.1 -10.6335 8.30374
      vertex 3.1 -10.6335 8.30374
    endloop
  endfacet
  facet normal 0 -0.876414 -0.481558
    outer loop
      vertex 6.1 -10.6335 8.30374
      vertex 3.1 -10.5428 8.13867
      vertex 6.1 -10.5428 8.13867
    endloop
  endfacet
  facet normal -1 0 0
    outer loop
      vertex 5.72205e-07 -43 0
      vertex 5.72205e-07 -16.9 15
      vertex 5.72205e-07 -16.9 0
    endloop
  endfacet
  facet normal -1 -0 0
    outer loop
      vertex 5.72205e-07 -16.9 15
      vertex 5.72205e-07 -43 0
      vertex 5.72205e-07 -43 15
    endloop
  endfacet
  facet normal 0 1 -0
    outer loop
      vertex 6.1 -40 0
      vertex 3 -40 15
      vertex 6.1 -40 15
    endloop
  endfacet
  facet normal 0 1 0
    outer loop
      vertex 3 -40 15
      vertex 6.1 -40 0
      vertex 3 -40 0
    endloop
  endfacet
  facet normal 0 -1 0
    outer loop
      vertex 3 -19.9 0
      vertex 6.1 -19.9 15
      vertex 3 -19.9 15
    endloop
  endfacet
  facet normal 0 -1 -0
    outer loop
      vertex 6.1 -19.9 15
      vertex 3 -19.9 0
      vertex 6.1 -19.9 0
    endloop
  endfacet
  facet normal 1 -0 0
    outer loop
      vertex 3 -40 15
      vertex 3 -19.9 0
      vertex 3 -19.9 15
    endloop
  endfacet
  facet normal 1 0 0
    outer loop
      vertex 3 -19.9 0
      vertex 3 -40 15
      vertex 3 -40 0
    endloop
  endfacet
  facet normal 0 1 -0
    outer loop
      vertex 6.1 -16.9 0
      vertex 5.72205e-07 -16.9 15
      vertex 6.1 -16.9 15
    endloop
  endfacet
  facet normal 0 1 0
    outer loop
      vertex 5.72205e-07 -16.9 15
      vertex 6.1 -16.9 0
      vertex 5.72205e-07 -16.9 0
    endloop
  endfacet
  facet normal 1 -0 0
    outer loop
      vertex 6.1 -19.9 15
      vertex 6.1 -16.9 0
      vertex 6.1 -16.9 15
    endloop
  endfacet
  facet normal 1 0 0
    outer loop
      vertex 6.1 -16.9 0
      vertex 6.1 -19.9 15
      vertex 6.1 -19.9 0
    endloop
  endfacet
endsolid OpenSCAD_Model
