solid OpenSCAD_Model
  facet normal -1 0 0
    outer loop
      vertex 0 100.01 26.7949
      vertex 0 90.6699 26.7949
      vertex 0 100.01 29.2949
    endloop
  endfacet
  facet normal -1 0 0
    outer loop
      vertex 0 0.00999928 0
      vertex 0 90.6699 26.7949
      vertex 0 100.01 26.7949
    endloop
  endfacet
  facet normal -1 0 0
    outer loop
      vertex 0 0.00999928 0
      vertex 0 0 2.5
      vertex 0 90.6699 26.7949
    endloop
  endfacet
  facet normal -1 0 0
    outer loop
      vertex 0 -2.5 2.5
      vertex 0 0 26.7949
      vertex 0 0 2.5
    endloop
  endfacet
  facet normal -1 -0 0
    outer loop
      vertex 0 0 26.7949
      vertex 0 -2.5 2.5
      vertex 0 0 29.2949
    endloop
  endfacet
  facet normal -1 0 0
    outer loop
      vertex 0 -2.5 100
      vertex 0 0 29.2949
      vertex 0 -2.5 2.5
    endloop
  endfacet
  facet normal -1 0 0
    outer loop
      vertex 0 0.00999928 0
      vertex 0 -2.5 2.5
      vertex 0 0 2.5
    endloop
  endfacet
  facet normal -1 0 0
    outer loop
      vertex 0 -12.5 0
      vertex 0 -2.5 2.5
      vertex 0 0.00999928 0
    endloop
  endfacet
  facet normal -1 -0 0
    outer loop
      vertex 0 -2.5 2.5
      vertex 0 -12.5 0
      vertex 0 -12.5 2.5
    endloop
  endfacet
  facet normal -1 0 0
    outer loop
      vertex 0 0 29.2949
      vertex 0 90.6699 26.7949
      vertex 0 0 26.7949
    endloop
  endfacet
  facet normal -1 0 0
    outer loop
      vertex 0 90.6699 26.7949
      vertex 0 0 29.2949
      vertex 0 100.01 29.2949
    endloop
  endfacet
  facet normal -1 0 0
    outer loop
      vertex 0 0 29.2949
      vertex 0 -2.5 100
      vertex 0 0 100
    endloop
  endfacet
  facet normal -0 0 1
    outer loop
      vertex 0 -2.5 2.5
      vertex 15 -12.5 2.5
      vertex 15 -2.5 2.5
    endloop
  endfacet
  facet normal 0 0 1
    outer loop
      vertex 15 -12.5 2.5
      vertex 0 -2.5 2.5
      vertex 0 -12.5 2.5
    endloop
  endfacet
  facet normal 1 -0 0
    outer loop
      vertex 15 -2.5 100
      vertex 15 0 29.2949
      vertex 15 0 100
    endloop
  endfacet
  facet normal 1 0 0
    outer loop
      vertex 15 -2.5 2.5
      vertex 15 0 29.2949
      vertex 15 -2.5 100
    endloop
  endfacet
  facet normal 1 0 0
    outer loop
      vertex 15 0 29.2949
      vertex 15 -2.5 2.5
      vertex 15 0 26.7949
    endloop
  endfacet
  facet normal 1 0 0
    outer loop
      vertex 15 100.01 29.2949
      vertex 15 90.6699 26.7949
      vertex 15 100.01 26.7949
    endloop
  endfacet
  facet normal 1 -0 0
    outer loop
      vertex 15 0 29.2949
      vertex 15 90.6699 26.7949
      vertex 15 100.01 29.2949
    endloop
  endfacet
  facet normal 1 0 0
    outer loop
      vertex 15 90.6699 26.7949
      vertex 15 0 29.2949
      vertex 15 0 26.7949
    endloop
  endfacet
  facet normal 1 -0 0
    outer loop
      vertex 15 90.6699 26.7949
      vertex 15 0.00999928 0
      vertex 15 100.01 26.7949
    endloop
  endfacet
  facet normal 1 -0 0
    outer loop
      vertex 15 0 2.5
      vertex 15 0.00999928 0
      vertex 15 90.6699 26.7949
    endloop
  endfacet
  facet normal 1 0 0
    outer loop
      vertex 15 0 26.7949
      vertex 15 -2.5 2.5
      vertex 15 0 2.5
    endloop
  endfacet
  facet normal 1 0 0
    outer loop
      vertex 15 0 2.5
      vertex 15 -2.5 2.5
      vertex 15 0.00999928 0
    endloop
  endfacet
  facet normal 1 0 0
    outer loop
      vertex 15 -12.5 0
      vertex 15 -2.5 2.5
      vertex 15 -12.5 2.5
    endloop
  endfacet
  facet normal 1 0 0
    outer loop
      vertex 15 -2.5 2.5
      vertex 15 -12.5 0
      vertex 15 0.00999928 0
    endloop
  endfacet
  facet normal 0 -1 0
    outer loop
      vertex 0 -2.5 2.5
      vertex 15 -2.5 100
      vertex 0 -2.5 100
    endloop
  endfacet
  facet normal 0 -1 -0
    outer loop
      vertex 15 -2.5 100
      vertex 0 -2.5 2.5
      vertex 15 -2.5 2.5
    endloop
  endfacet
  facet normal 0 0 -1
    outer loop
      vertex 0 -12.5 0
      vertex 15 0.00999928 0
      vertex 15 -12.5 0
    endloop
  endfacet
  facet normal -0 0 -1
    outer loop
      vertex 15 0.00999928 0
      vertex 0 -12.5 0
      vertex 0 0.00999928 0
    endloop
  endfacet
  facet normal 0 -1 0
    outer loop
      vertex 0 -12.5 0
      vertex 15 -12.5 2.5
      vertex 0 -12.5 2.5
    endloop
  endfacet
  facet normal 0 -1 -0
    outer loop
      vertex 15 -12.5 2.5
      vertex 0 -12.5 0
      vertex 15 -12.5 0
    endloop
  endfacet
  facet normal -0 0 1
    outer loop
      vertex 0 0 100
      vertex 15 -2.5 100
      vertex 15 0 100
    endloop
  endfacet
  facet normal 0 0 1
    outer loop
      vertex 15 -2.5 100
      vertex 0 0 100
      vertex 0 -2.5 100
    endloop
  endfacet
  facet normal 0 1 -0
    outer loop
      vertex 15 0 2.5
      vertex 0 0 26.7949
      vertex 15 0 26.7949
    endloop
  endfacet
  facet normal 0 1 0
    outer loop
      vertex 0 0 26.7949
      vertex 15 0 2.5
      vertex 0 0 2.5
    endloop
  endfacet
  facet normal 0 1 -0
    outer loop
      vertex 15 0 29.2949
      vertex 0 0 100
      vertex 15 0 100
    endloop
  endfacet
  facet normal 0 1 0
    outer loop
      vertex 0 0 100
      vertex 15 0 29.2949
      vertex 0 0 29.2949
    endloop
  endfacet
  facet normal -0 0 1
    outer loop
      vertex 0 100.01 29.2949
      vertex 15 0 29.2949
      vertex 15 100.01 29.2949
    endloop
  endfacet
  facet normal 0 0 1
    outer loop
      vertex 15 0 29.2949
      vertex 0 100.01 29.2949
      vertex 0 0 29.2949
    endloop
  endfacet
  facet normal 0 0 -1
    outer loop
      vertex 0 0 26.7949
      vertex 15 90.6699 26.7949
      vertex 15 0 26.7949
    endloop
  endfacet
  facet normal -0 0 -1
    outer loop
      vertex 15 90.6699 26.7949
      vertex 0 0 26.7949
      vertex 0 90.6699 26.7949
    endloop
  endfacet
  facet normal 0 -0.258819 0.965926
    outer loop
      vertex 0 90.6699 26.7949
      vertex 15 0 2.5
      vertex 15 90.6699 26.7949
    endloop
  endfacet
  facet normal 0 -0.258819 0.965926
    outer loop
      vertex 15 0 2.5
      vertex 0 90.6699 26.7949
      vertex 0 0 2.5
    endloop
  endfacet
  facet normal 0 0.258819 -0.965926
    outer loop
      vertex 0 0.00999928 0
      vertex 15 100.01 26.7949
      vertex 15 0.00999928 0
    endloop
  endfacet
  facet normal 0 0.258819 -0.965926
    outer loop
      vertex 15 100.01 26.7949
      vertex 0 0.00999928 0
      vertex 0 100.01 26.7949
    endloop
  endfacet
  facet normal 0 1 -0
    outer loop
      vertex 15 100.01 26.7949
      vertex 0 100.01 29.2949
      vertex 15 100.01 29.2949
    endloop
  endfacet
  facet normal 0 1 0
    outer loop
      vertex 0 100.01 29.2949
      vertex 15 100.01 26.7949
      vertex 0 100.01 26.7949
    endloop
  endfacet
endsolid OpenSCAD_Model
