solid OpenSCAD_Model
  facet normal -1 0 0
    outer loop
      vertex 0 100.01 17.6327
      vertex 0 85.8218 17.6327
      vertex 0 100.01 20.1327
    endloop
  endfacet
  facet normal -1 0 0
    outer loop
      vertex 0 0.00999928 0
      vertex 0 85.8218 17.6327
      vertex 0 100.01 17.6327
    endloop
  endfacet
  facet normal -1 0 0
    outer loop
      vertex 0 0.00999928 0
      vertex 0 0 2.5
      vertex 0 85.8218 17.6327
    endloop
  endfacet
  facet normal -1 0 0
    outer loop
      vertex 0 -2.5 2.5
      vertex 0 0 17.6327
      vertex 0 0 2.5
    endloop
  endfacet
  facet normal -1 -0 0
    outer loop
      vertex 0 0 17.6327
      vertex 0 -2.5 2.5
      vertex 0 0 20.1327
    endloop
  endfacet
  facet normal -1 0 0
    outer loop
      vertex 0 -2.5 100
      vertex 0 0 20.1327
      vertex 0 -2.5 2.5
    endloop
  endfacet
  facet normal -1 0 0
    outer loop
      vertex 0 0.00999928 0
      vertex 0 -2.5 2.5
      vertex 0 0 2.5
    endloop
  endfacet
  facet normal -1 0 0
    outer loop
      vertex 0 -12.5 0
      vertex 0 -2.5 2.5
      vertex 0 0.00999928 0
    endloop
  endfacet
  facet normal -1 -0 0
    outer loop
      vertex 0 -2.5 2.5
      vertex 0 -12.5 0
      vertex 0 -12.5 2.5
    endloop
  endfacet
  facet normal -1 0 0
    outer loop
      vertex 0 0 20.1327
      vertex 0 85.8218 17.6327
      vertex 0 0 17.6327
    endloop
  endfacet
  facet normal -1 0 0
    outer loop
      vertex 0 85.8218 17.6327
      vertex 0 0 20.1327
      vertex 0 100.01 20.1327
    endloop
  endfacet
  facet normal -1 0 0
    outer loop
      vertex 0 0 20.1327
      vertex 0 -2.5 100
      vertex 0 0 100
    endloop
  endfacet
  facet normal -0 0 1
    outer loop
      vertex 0 -2.5 2.5
      vertex 15 -12.5 2.5
      vertex 15 -2.5 2.5
    endloop
  endfacet
  facet normal 0 0 1
    outer loop
      vertex 15 -12.5 2.5
      vertex 0 -2.5 2.5
      vertex 0 -12.5 2.5
    endloop
  endfacet
  facet normal 1 -0 0
    outer loop
      vertex 15 -2.5 100
      vertex 15 0 20.1327
      vertex 15 0 100
    endloop
  endfacet
  facet normal 1 0 0
    outer loop
      vertex 15 -2.5 2.5
      vertex 15 0 20.1327
      vertex 15 -2.5 100
    endloop
  endfacet
  facet normal 1 0 0
    outer loop
      vertex 15 0 20.1327
      vertex 15 -2.5 2.5
      vertex 15 0 17.6327
    endloop
  endfacet
  facet normal 1 0 0
    outer loop
      vertex 15 100.01 20.1327
      vertex 15 85.8218 17.6327
      vertex 15 100.01 17.6327
    endloop
  endfacet
  facet normal 1 -0 0
    outer loop
      vertex 15 0 20.1327
      vertex 15 85.8218 17.6327
      vertex 15 100.01 20.1327
    endloop
  endfacet
  facet normal 1 0 0
    outer loop
      vertex 15 85.8218 17.6327
      vertex 15 0 20.1327
      vertex 15 0 17.6327
    endloop
  endfacet
  facet normal 1 -0 0
    outer loop
      vertex 15 85.8218 17.6327
      vertex 15 0.00999928 0
      vertex 15 100.01 17.6327
    endloop
  endfacet
  facet normal 1 -0 0
    outer loop
      vertex 15 0 2.5
      vertex 15 0.00999928 0
      vertex 15 85.8218 17.6327
    endloop
  endfacet
  facet normal 1 0 0
    outer loop
      vertex 15 0 17.6327
      vertex 15 -2.5 2.5
      vertex 15 0 2.5
    endloop
  endfacet
  facet normal 1 0 0
    outer loop
      vertex 15 0 2.5
      vertex 15 -2.5 2.5
      vertex 15 0.00999928 0
    endloop
  endfacet
  facet normal 1 0 0
    outer loop
      vertex 15 -12.5 0
      vertex 15 -2.5 2.5
      vertex 15 -12.5 2.5
    endloop
  endfacet
  facet normal 1 0 0
    outer loop
      vertex 15 -2.5 2.5
      vertex 15 -12.5 0
      vertex 15 0.00999928 0
    endloop
  endfacet
  facet normal 0 -1 0
    outer loop
      vertex 0 -2.5 2.5
      vertex 15 -2.5 100
      vertex 0 -2.5 100
    endloop
  endfacet
  facet normal 0 -1 -0
    outer loop
      vertex 15 -2.5 100
      vertex 0 -2.5 2.5
      vertex 15 -2.5 2.5
    endloop
  endfacet
  facet normal 0 0 -1
    outer loop
      vertex 0 -12.5 0
      vertex 15 0.00999928 0
      vertex 15 -12.5 0
    endloop
  endfacet
  facet normal -0 0 -1
    outer loop
      vertex 15 0.00999928 0
      vertex 0 -12.5 0
      vertex 0 0.00999928 0
    endloop
  endfacet
  facet normal 0 -1 0
    outer loop
      vertex 0 -12.5 0
      vertex 15 -12.5 2.5
      vertex 0 -12.5 2.5
    endloop
  endfacet
  facet normal 0 -1 -0
    outer loop
      vertex 15 -12.5 2.5
      vertex 0 -12.5 0
      vertex 15 -12.5 0
    endloop
  endfacet
  facet normal -0 0 1
    outer loop
      vertex 0 0 100
      vertex 15 -2.5 100
      vertex 15 0 100
    endloop
  endfacet
  facet normal 0 0 1
    outer loop
      vertex 15 -2.5 100
      vertex 0 0 100
      vertex 0 -2.5 100
    endloop
  endfacet
  facet normal 0 1 -0
    outer loop
      vertex 15 0 2.5
      vertex 0 0 17.6327
      vertex 15 0 17.6327
    endloop
  endfacet
  facet normal 0 1 0
    outer loop
      vertex 0 0 17.6327
      vertex 15 0 2.5
      vertex 0 0 2.5
    endloop
  endfacet
  facet normal 0 1 -0
    outer loop
      vertex 15 0 20.1327
      vertex 0 0 100
      vertex 15 0 100
    endloop
  endfacet
  facet normal 0 1 0
    outer loop
      vertex 0 0 100
      vertex 15 0 20.1327
      vertex 0 0 20.1327
    endloop
  endfacet
  facet normal -0 0 1
    outer loop
      vertex 0 100.01 20.1327
      vertex 15 0 20.1327
      vertex 15 100.01 20.1327
    endloop
  endfacet
  facet normal 0 0 1
    outer loop
      vertex 15 0 20.1327
      vertex 0 100.01 20.1327
      vertex 0 0 20.1327
    endloop
  endfacet
  facet normal 0 0 -1
    outer loop
      vertex 0 0 17.6327
      vertex 15 85.8218 17.6327
      vertex 15 0 17.6327
    endloop
  endfacet
  facet normal -0 0 -1
    outer loop
      vertex 15 85.8218 17.6327
      vertex 0 0 17.6327
      vertex 0 85.8218 17.6327
    endloop
  endfacet
  facet normal 0 -0.173648 0.984808
    outer loop
      vertex 0 85.8218 17.6327
      vertex 15 0 2.5
      vertex 15 85.8218 17.6327
    endloop
  endfacet
  facet normal 0 -0.173648 0.984808
    outer loop
      vertex 15 0 2.5
      vertex 0 85.8218 17.6327
      vertex 0 0 2.5
    endloop
  endfacet
  facet normal 0 0.173648 -0.984808
    outer loop
      vertex 0 0.00999928 0
      vertex 15 100.01 17.6327
      vertex 15 0.00999928 0
    endloop
  endfacet
  facet normal 0 0.173648 -0.984808
    outer loop
      vertex 15 100.01 17.6327
      vertex 0 0.00999928 0
      vertex 0 100.01 17.6327
    endloop
  endfacet
  facet normal 0 1 -0
    outer loop
      vertex 15 100.01 17.6327
      vertex 0 100.01 20.1327
      vertex 15 100.01 20.1327
    endloop
  endfacet
  facet normal 0 1 0
    outer loop
      vertex 0 100.01 20.1327
      vertex 15 100.01 17.6327
      vertex 0 100.01 17.6327
    endloop
  endfacet
endsolid OpenSCAD_Model
