solid OpenSCAD_Model
  facet normal 1 -0 0
    outer loop
      vertex 1.2 -8.15 -0.91
      vertex 1.2 -1.2 -1.5
      vertex 1.2 -1.2 -0.91
    endloop
  endfacet
  facet normal 1 0 0
    outer loop
      vertex 1.2 -1.2 -1.5
      vertex 1.2 -8.15 -0.91
      vertex 1.2 -8.15 -1.5
    endloop
  endfacet
  facet normal -1 0 0
    outer loop
      vertex 8.15 -8.15 -1.5
      vertex 8.15 -1.2 -0.91
      vertex 8.15 -1.2 -1.5
    endloop
  endfacet
  facet normal -1 -0 0
    outer loop
      vertex 8.15 -1.2 -0.91
      vertex 8.15 -8.15 -1.5
      vertex 8.15 -8.15 -0.91
    endloop
  endfacet
  facet normal 0 0 -1
    outer loop
      vertex 1.2 -8.15 -0.91
      vertex 8.15 -1.2 -0.91
      vertex 8.15 -8.15 -0.91
    endloop
  endfacet
  facet normal -0 0 -1
    outer loop
      vertex 8.15 -1.2 -0.91
      vertex 1.2 -8.15 -0.91
      vertex 1.2 -1.2 -0.91
    endloop
  endfacet
  facet normal 0 -1 0
    outer loop
      vertex 1.2 -1.2 -1.5
      vertex 8.15 -1.2 -0.91
      vertex 1.2 -1.2 -0.91
    endloop
  endfacet
  facet normal 0 -1 -0
    outer loop
      vertex 8.15 -1.2 -0.91
      vertex 1.2 -1.2 -1.5
      vertex 8.15 -1.2 -1.5
    endloop
  endfacet
  facet normal 0 1 -0
    outer loop
      vertex 8.15 -8.15 -1.5
      vertex 1.2 -8.15 -0.91
      vertex 8.15 -8.15 -0.91
    endloop
  endfacet
  facet normal 0 1 0
    outer loop
      vertex 1.2 -8.15 -0.91
      vertex 8.15 -8.15 -1.5
      vertex 1.2 -8.15 -1.5
    endloop
  endfacet
  facet normal 1 -0 0
    outer loop
      vertex 1.2 -16.3 -0.91
      vertex 1.2 -9.35 -1.5
      vertex 1.2 -9.35 -0.91
    endloop
  endfacet
  facet normal 1 0 0
    outer loop
      vertex 1.2 -9.35 -1.5
      vertex 1.2 -16.3 -0.91
      vertex 1.2 -16.3 -1.5
    endloop
  endfacet
  facet normal -1 0 0
    outer loop
      vertex 8.15 -16.3 -1.5
      vertex 8.15 -9.35 -0.91
      vertex 8.15 -9.35 -1.5
    endloop
  endfacet
  facet normal -1 -0 0
    outer loop
      vertex 8.15 -9.35 -0.91
      vertex 8.15 -16.3 -1.5
      vertex 8.15 -16.3 -0.91
    endloop
  endfacet
  facet normal 0 1 -0
    outer loop
      vertex 8.15 -16.3 -1.5
      vertex 1.2 -16.3 -0.91
      vertex 8.15 -16.3 -0.91
    endloop
  endfacet
  facet normal 0 1 0
    outer loop
      vertex 1.2 -16.3 -0.91
      vertex 8.15 -16.3 -1.5
      vertex 1.2 -16.3 -1.5
    endloop
  endfacet
  facet normal 0 0 -1
    outer loop
      vertex 1.2 -16.3 -0.91
      vertex 8.15 -9.35 -0.91
      vertex 8.15 -16.3 -0.91
    endloop
  endfacet
  facet normal -0 0 -1
    outer loop
      vertex 8.15 -9.35 -0.91
      vertex 1.2 -16.3 -0.91
      vertex 1.2 -9.35 -0.91
    endloop
  endfacet
  facet normal 0 -1 0
    outer loop
      vertex 1.2 -9.35 -1.5
      vertex 8.15 -9.35 -0.91
      vertex 1.2 -9.35 -0.91
    endloop
  endfacet
  facet normal 0 -1 -0
    outer loop
      vertex 8.15 -9.35 -0.91
      vertex 1.2 -9.35 -1.5
      vertex 8.15 -9.35 -1.5
    endloop
  endfacet
  facet normal 1 -0 0
    outer loop
      vertex 9.35 -8.15 -0.91
      vertex 9.35 -1.2 -1.5
      vertex 9.35 -1.2 -0.91
    endloop
  endfacet
  facet normal 1 0 0
    outer loop
      vertex 9.35 -1.2 -1.5
      vertex 9.35 -8.15 -0.91
      vertex 9.35 -8.15 -1.5
    endloop
  endfacet
  facet normal -1 0 0
    outer loop
      vertex 16.3 -8.15 -1.5
      vertex 16.3 -1.2 -0.91
      vertex 16.3 -1.2 -1.5
    endloop
  endfacet
  facet normal -1 -0 0
    outer loop
      vertex 16.3 -1.2 -0.91
      vertex 16.3 -8.15 -1.5
      vertex 16.3 -8.15 -0.91
    endloop
  endfacet
  facet normal 0 0 -1
    outer loop
      vertex 9.35 -8.15 -0.91
      vertex 16.3 -1.2 -0.91
      vertex 16.3 -8.15 -0.91
    endloop
  endfacet
  facet normal -0 0 -1
    outer loop
      vertex 16.3 -1.2 -0.91
      vertex 9.35 -8.15 -0.91
      vertex 9.35 -1.2 -0.91
    endloop
  endfacet
  facet normal 0 -1 0
    outer loop
      vertex 9.35 -1.2 -1.5
      vertex 16.3 -1.2 -0.91
      vertex 9.35 -1.2 -0.91
    endloop
  endfacet
  facet normal 0 -1 -0
    outer loop
      vertex 16.3 -1.2 -0.91
      vertex 9.35 -1.2 -1.5
      vertex 16.3 -1.2 -1.5
    endloop
  endfacet
  facet normal 0 1 -0
    outer loop
      vertex 16.3 -8.15 -1.5
      vertex 9.35 -8.15 -0.91
      vertex 16.3 -8.15 -0.91
    endloop
  endfacet
  facet normal 0 1 0
    outer loop
      vertex 9.35 -8.15 -0.91
      vertex 16.3 -8.15 -1.5
      vertex 9.35 -8.15 -1.5
    endloop
  endfacet
  facet normal 1 -0 0
    outer loop
      vertex 9.35 -16.3 -0.91
      vertex 9.35 -9.35 -1.5
      vertex 9.35 -9.35 -0.91
    endloop
  endfacet
  facet normal 1 0 0
    outer loop
      vertex 9.35 -9.35 -1.5
      vertex 9.35 -16.3 -0.91
      vertex 9.35 -16.3 -1.5
    endloop
  endfacet
  facet normal -1 0 0
    outer loop
      vertex 16.3 -16.3 -1.5
      vertex 16.3 -9.35 -0.91
      vertex 16.3 -9.35 -1.5
    endloop
  endfacet
  facet normal -1 -0 0
    outer loop
      vertex 16.3 -9.35 -0.91
      vertex 16.3 -16.3 -1.5
      vertex 16.3 -16.3 -0.91
    endloop
  endfacet
  facet normal 0 1 -0
    outer loop
      vertex 16.3 -16.3 -1.5
      vertex 9.35 -16.3 -0.91
      vertex 16.3 -16.3 -0.91
    endloop
  endfacet
  facet normal 0 1 0
    outer loop
      vertex 9.35 -16.3 -0.91
      vertex 16.3 -16.3 -1.5
      vertex 9.35 -16.3 -1.5
    endloop
  endfacet
  facet normal 0 0 -1
    outer loop
      vertex 9.35 -16.3 -0.91
      vertex 16.3 -9.35 -0.91
      vertex 16.3 -16.3 -0.91
    endloop
  endfacet
  facet normal -0 0 -1
    outer loop
      vertex 16.3 -9.35 -0.91
      vertex 9.35 -16.3 -0.91
      vertex 9.35 -9.35 -0.91
    endloop
  endfacet
  facet normal 0 -1 0
    outer loop
      vertex 9.35 -9.35 -1.5
      vertex 16.3 -9.35 -0.91
      vertex 9.35 -9.35 -0.91
    endloop
  endfacet
  facet normal 0 -1 -0
    outer loop
      vertex 16.3 -9.35 -0.91
      vertex 9.35 -9.35 -1.5
      vertex 16.3 -9.35 -1.5
    endloop
  endfacet
  facet normal -1 0 0
    outer loop
      vertex 0 -17.5 -1.5
      vertex 0 0 0
      vertex 0 0 -1.5
    endloop
  endfacet
  facet normal -1 -0 0
    outer loop
      vertex 0 0 0
      vertex 0 -17.5 -1.5
      vertex 0 -17.5 0
    endloop
  endfacet
  facet normal 0 0 -1
    outer loop
      vertex 1.2 -9.35 -1.5
      vertex 8.15 -8.15 -1.5
      vertex 8.15 -9.35 -1.5
    endloop
  endfacet
  facet normal -0 0 -1
    outer loop
      vertex 8.15 -8.15 -1.5
      vertex 1.2 -9.35 -1.5
      vertex 1.2 -8.15 -1.5
    endloop
  endfacet
  facet normal 0 0 -1
    outer loop
      vertex 9.35 -9.35 -1.5
      vertex 16.3 -8.15 -1.5
      vertex 16.3 -9.35 -1.5
    endloop
  endfacet
  facet normal -0 0 -1
    outer loop
      vertex 16.3 -8.15 -1.5
      vertex 9.35 -9.35 -1.5
      vertex 9.35 -8.15 -1.5
    endloop
  endfacet
  facet normal 0 0 -1
    outer loop
      vertex 16.3 -9.35 -1.5
      vertex 17.5 -17.5 -1.5
      vertex 16.3 -16.3 -1.5
    endloop
  endfacet
  facet normal 0 0 -1
    outer loop
      vertex 17.5 -17.5 -1.5
      vertex 9.35 -16.3 -1.5
      vertex 16.3 -16.3 -1.5
    endloop
  endfacet
  facet normal 0 0 -1
    outer loop
      vertex 8.15 -9.35 -1.5
      vertex 9.35 -9.35 -1.5
      vertex 9.35 -16.3 -1.5
    endloop
  endfacet
  facet normal 0 0 -1
    outer loop
      vertex 9.35 -9.35 -1.5
      vertex 8.15 -9.35 -1.5
      vertex 9.35 -8.15 -1.5
    endloop
  endfacet
  facet normal 0 0 -1
    outer loop
      vertex 8.15 -9.35 -1.5
      vertex 9.35 -16.3 -1.5
      vertex 8.15 -16.3 -1.5
    endloop
  endfacet
  facet normal 0 0 -1
    outer loop
      vertex 17.5 -17.5 -1.5
      vertex 8.15 -16.3 -1.5
      vertex 9.35 -16.3 -1.5
    endloop
  endfacet
  facet normal 0 0 -1
    outer loop
      vertex 0 -17.5 -1.5
      vertex 8.15 -16.3 -1.5
      vertex 17.5 -17.5 -1.5
    endloop
  endfacet
  facet normal 0 0 -1
    outer loop
      vertex 0 -17.5 -1.5
      vertex 1.2 -9.35 -1.5
      vertex 1.2 -16.3 -1.5
    endloop
  endfacet
  facet normal -0 0 -1
    outer loop
      vertex 1.2 -9.35 -1.5
      vertex 0 -17.5 -1.5
      vertex 1.2 -8.15 -1.5
    endloop
  endfacet
  facet normal 0 0 -1
    outer loop
      vertex 0 0 -1.5
      vertex 1.2 -8.15 -1.5
      vertex 0 -17.5 -1.5
    endloop
  endfacet
  facet normal -0 0 -1
    outer loop
      vertex 8.15 -16.3 -1.5
      vertex 0 -17.5 -1.5
      vertex 1.2 -16.3 -1.5
    endloop
  endfacet
  facet normal 0 0 -1
    outer loop
      vertex 17.5 -17.5 -1.5
      vertex 16.3 -9.35 -1.5
      vertex 17.5 0 -1.5
    endloop
  endfacet
  facet normal 0 0 -1
    outer loop
      vertex 16.3 -8.15 -1.5
      vertex 17.5 0 -1.5
      vertex 16.3 -9.35 -1.5
    endloop
  endfacet
  facet normal 0 0 -1
    outer loop
      vertex 16.3 -1.2 -1.5
      vertex 17.5 0 -1.5
      vertex 16.3 -8.15 -1.5
    endloop
  endfacet
  facet normal 0 0 -1
    outer loop
      vertex 9.35 -1.2 -1.5
      vertex 17.5 0 -1.5
      vertex 16.3 -1.2 -1.5
    endloop
  endfacet
  facet normal 0 0 -1
    outer loop
      vertex 8.15 -8.15 -1.5
      vertex 9.35 -8.15 -1.5
      vertex 8.15 -9.35 -1.5
    endloop
  endfacet
  facet normal 0 0 -1
    outer loop
      vertex 9.35 -8.15 -1.5
      vertex 8.15 -8.15 -1.5
      vertex 9.35 -1.2 -1.5
    endloop
  endfacet
  facet normal 0 0 -1
    outer loop
      vertex 8.15 -1.2 -1.5
      vertex 9.35 -1.2 -1.5
      vertex 8.15 -8.15 -1.5
    endloop
  endfacet
  facet normal 0 0 -1
    outer loop
      vertex 8.15 -1.2 -1.5
      vertex 17.5 0 -1.5
      vertex 9.35 -1.2 -1.5
    endloop
  endfacet
  facet normal 0 0 -1
    outer loop
      vertex 0 0 -1.5
      vertex 8.15 -1.2 -1.5
      vertex 1.2 -1.2 -1.5
    endloop
  endfacet
  facet normal 0 0 -1
    outer loop
      vertex 8.15 -1.2 -1.5
      vertex 0 0 -1.5
      vertex 17.5 0 -1.5
    endloop
  endfacet
  facet normal 0 0 -1
    outer loop
      vertex 1.2 -8.15 -1.5
      vertex 0 0 -1.5
      vertex 1.2 -1.2 -1.5
    endloop
  endfacet
  facet normal 1 -0 0
    outer loop
      vertex 17.5 -17.5 0
      vertex 17.5 0 -1.5
      vertex 17.5 0 0
    endloop
  endfacet
  facet normal 1 0 0
    outer loop
      vertex 17.5 0 -1.5
      vertex 17.5 -17.5 0
      vertex 17.5 -17.5 -1.5
    endloop
  endfacet
  facet normal -0 0 1
    outer loop
      vertex 0 0 0
      vertex 17.5 -17.5 0
      vertex 17.5 0 0
    endloop
  endfacet
  facet normal 0 0 1
    outer loop
      vertex 17.5 -17.5 0
      vertex 0 0 0
      vertex 0 -17.5 0
    endloop
  endfacet
  facet normal 0 1 -0
    outer loop
      vertex 17.5 0 -1.5
      vertex 0 0 0
      vertex 17.5 0 0
    endloop
  endfacet
  facet normal 0 1 0
    outer loop
      vertex 0 0 0
      vertex 17.5 0 -1.5
      vertex 0 0 -1.5
    endloop
  endfacet
  facet normal 0 -1 0
    outer loop
      vertex 0 -17.5 -1.5
      vertex 17.5 -17.5 0
      vertex 0 -17.5 0
    endloop
  endfacet
  facet normal 0 -1 -0
    outer loop
      vertex 17.5 -17.5 0
      vertex 0 -17.5 -1.5
      vertex 17.5 -17.5 -1.5
    endloop
  endfacet
endsolid OpenSCAD_Model
