solid OpenSCAD_Model
  facet normal -1 0 0
    outer loop
      vertex 0 0 0
      vertex 0 8.4 2.5
      vertex 0 8.4 0
    endloop
  endfacet
  facet normal -1 -0 0
    outer loop
      vertex 0 8.4 2.5
      vertex 0 0 0
      vertex 0 0 2.5
    endloop
  endfacet
  facet normal 0 0 1
    outer loop
      vertex 7.7 8.4 2.5
      vertex 5.45 6.6 2.5
      vertex 7.7 0 2.5
    endloop
  endfacet
  facet normal 0 0 1
    outer loop
      vertex 7.7 8.4 2.5
      vertex 2.25 6.6 2.5
      vertex 5.45 6.6 2.5
    endloop
  endfacet
  facet normal 0 0 1
    outer loop
      vertex 2.25 6.6 2.5
      vertex 0 8.4 2.5
      vertex 2.25 1.8 2.5
    endloop
  endfacet
  facet normal -0 0 1
    outer loop
      vertex 0 8.4 2.5
      vertex 2.25 6.6 2.5
      vertex 7.7 8.4 2.5
    endloop
  endfacet
  facet normal -0 0 1
    outer loop
      vertex 5.45 1.8 2.5
      vertex 7.7 0 2.5
      vertex 5.45 6.6 2.5
    endloop
  endfacet
  facet normal -0 0 1
    outer loop
      vertex 2.25 1.8 2.5
      vertex 7.7 0 2.5
      vertex 5.45 1.8 2.5
    endloop
  endfacet
  facet normal 0 0 1
    outer loop
      vertex 2.25 1.8 2.5
      vertex 0 0 2.5
      vertex 7.7 0 2.5
    endloop
  endfacet
  facet normal 0 0 1
    outer loop
      vertex 0 0 2.5
      vertex 2.25 1.8 2.5
      vertex 0 8.4 2.5
    endloop
  endfacet
  facet normal 1 -0 0
    outer loop
      vertex 7.7 0 2.5
      vertex 7.7 8.4 0
      vertex 7.7 8.4 2.5
    endloop
  endfacet
  facet normal 1 0 0
    outer loop
      vertex 7.7 8.4 0
      vertex 7.7 0 2.5
      vertex 7.7 0 0
    endloop
  endfacet
  facet normal 0 1 -0
    outer loop
      vertex 7.7 8.4 0
      vertex 0 8.4 2.5
      vertex 7.7 8.4 2.5
    endloop
  endfacet
  facet normal 0 1 0
    outer loop
      vertex 0 8.4 2.5
      vertex 7.7 8.4 0
      vertex 0 8.4 0
    endloop
  endfacet
  facet normal 0 0 -1
    outer loop
      vertex 0 0 0
      vertex 7.7 8.4 0
      vertex 7.7 0 0
    endloop
  endfacet
  facet normal -0 0 -1
    outer loop
      vertex 7.7 8.4 0
      vertex 0 0 0
      vertex 0 8.4 0
    endloop
  endfacet
  facet normal 0 -1 0
    outer loop
      vertex 0 0 0
      vertex 7.7 0 2.5
      vertex 0 0 2.5
    endloop
  endfacet
  facet normal 0 -1 -0
    outer loop
      vertex 7.7 0 2.5
      vertex 0 0 0
      vertex 7.7 0 0
    endloop
  endfacet
  facet normal -1 0 0
    outer loop
      vertex 2.25 1.8 2.5
      vertex 2.25 6.6 5.1
      vertex 2.25 6.6 2.5
    endloop
  endfacet
  facet normal -1 -0 0
    outer loop
      vertex 2.25 6.6 5.1
      vertex 2.25 1.8 2.5
      vertex 2.25 1.8 5.1
    endloop
  endfacet
  facet normal 0 0 -1
    outer loop
      vertex 2.25 6.6 5.1
      vertex 5.45 26.8 5.1
      vertex 5.45 6.6 5.1
    endloop
  endfacet
  facet normal -0 0 -1
    outer loop
      vertex 5.45 26.8 5.1
      vertex 2.25 6.6 5.1
      vertex 2.25 26.8 5.1
    endloop
  endfacet
  facet normal 0 0 -1
    outer loop
      vertex 5.45 6.6 5.1
      vertex 7.7 -3.3 5.1
      vertex 5.45 1.8 5.1
    endloop
  endfacet
  facet normal 0 0 -1
    outer loop
      vertex 7.7 -3.3 5.1
      vertex 2.25 1.8 5.1
      vertex 5.45 1.8 5.1
    endloop
  endfacet
  facet normal 0 0 -1
    outer loop
      vertex 0 -3.3 5.1
      vertex 2.25 6.6 5.1
      vertex 2.25 1.8 5.1
    endloop
  endfacet
  facet normal -0 0 -1
    outer loop
      vertex 2.25 6.6 5.1
      vertex 0 -3.3 5.1
      vertex 2.25 26.8 5.1
    endloop
  endfacet
  facet normal 0 0 -1
    outer loop
      vertex 0 36.7 5.1
      vertex 2.25 26.8 5.1
      vertex 0 -3.3 5.1
    endloop
  endfacet
  facet normal 0 0 -1
    outer loop
      vertex 0 -3.3 5.1
      vertex 2.25 1.8 5.1
      vertex 7.7 -3.3 5.1
    endloop
  endfacet
  facet normal 0 0 -1
    outer loop
      vertex 7.7 -3.3 5.1
      vertex 5.45 6.6 5.1
      vertex 7.7 36.7 5.1
    endloop
  endfacet
  facet normal 0 0 -1
    outer loop
      vertex 5.45 26.8 5.1
      vertex 7.7 36.7 5.1
      vertex 5.45 6.6 5.1
    endloop
  endfacet
  facet normal 0 0 -1
    outer loop
      vertex 5.45 31.6 5.1
      vertex 7.7 36.7 5.1
      vertex 5.45 26.8 5.1
    endloop
  endfacet
  facet normal 0 0 -1
    outer loop
      vertex 2.25 31.6 5.1
      vertex 7.7 36.7 5.1
      vertex 5.45 31.6 5.1
    endloop
  endfacet
  facet normal 0 0 -1
    outer loop
      vertex 2.25 31.6 5.1
      vertex 0 36.7 5.1
      vertex 7.7 36.7 5.1
    endloop
  endfacet
  facet normal 0 0 -1
    outer loop
      vertex 2.25 26.8 5.1
      vertex 0 36.7 5.1
      vertex 2.25 31.6 5.1
    endloop
  endfacet
  facet normal 1 -0 0
    outer loop
      vertex 5.45 1.8 5.1
      vertex 5.45 6.6 2.5
      vertex 5.45 6.6 5.1
    endloop
  endfacet
  facet normal 1 0 0
    outer loop
      vertex 5.45 6.6 2.5
      vertex 5.45 1.8 5.1
      vertex 5.45 1.8 2.5
    endloop
  endfacet
  facet normal 0 1 -0
    outer loop
      vertex 5.45 6.6 2.5
      vertex 2.25 6.6 5.1
      vertex 5.45 6.6 5.1
    endloop
  endfacet
  facet normal 0 1 0
    outer loop
      vertex 2.25 6.6 5.1
      vertex 5.45 6.6 2.5
      vertex 2.25 6.6 2.5
    endloop
  endfacet
  facet normal 0 -1 0
    outer loop
      vertex 2.25 1.8 2.5
      vertex 5.45 1.8 5.1
      vertex 2.25 1.8 5.1
    endloop
  endfacet
  facet normal 0 -1 -0
    outer loop
      vertex 5.45 1.8 5.1
      vertex 2.25 1.8 2.5
      vertex 5.45 1.8 2.5
    endloop
  endfacet
  facet normal -1 0 0
    outer loop
      vertex 0 25 0
      vertex 0 33.4 2.5
      vertex 0 33.4 0
    endloop
  endfacet
  facet normal -1 -0 0
    outer loop
      vertex 0 33.4 2.5
      vertex 0 25 0
      vertex 0 25 2.5
    endloop
  endfacet
  facet normal 0 0 1
    outer loop
      vertex 7.7 33.4 2.5
      vertex 5.45 31.6 2.5
      vertex 7.7 25 2.5
    endloop
  endfacet
  facet normal 0 0 1
    outer loop
      vertex 7.7 33.4 2.5
      vertex 2.25 31.6 2.5
      vertex 5.45 31.6 2.5
    endloop
  endfacet
  facet normal 0 0 1
    outer loop
      vertex 2.25 31.6 2.5
      vertex 0 33.4 2.5
      vertex 2.25 26.8 2.5
    endloop
  endfacet
  facet normal -0 0 1
    outer loop
      vertex 0 33.4 2.5
      vertex 2.25 31.6 2.5
      vertex 7.7 33.4 2.5
    endloop
  endfacet
  facet normal -0 0 1
    outer loop
      vertex 5.45 26.8 2.5
      vertex 7.7 25 2.5
      vertex 5.45 31.6 2.5
    endloop
  endfacet
  facet normal -0 0 1
    outer loop
      vertex 2.25 26.8 2.5
      vertex 7.7 25 2.5
      vertex 5.45 26.8 2.5
    endloop
  endfacet
  facet normal 0 0 1
    outer loop
      vertex 2.25 26.8 2.5
      vertex 0 25 2.5
      vertex 7.7 25 2.5
    endloop
  endfacet
  facet normal 0 0 1
    outer loop
      vertex 0 25 2.5
      vertex 2.25 26.8 2.5
      vertex 0 33.4 2.5
    endloop
  endfacet
  facet normal 1 -0 0
    outer loop
      vertex 7.7 25 2.5
      vertex 7.7 33.4 0
      vertex 7.7 33.4 2.5
    endloop
  endfacet
  facet normal 1 0 0
    outer loop
      vertex 7.7 33.4 0
      vertex 7.7 25 2.5
      vertex 7.7 25 0
    endloop
  endfacet
  facet normal 0 0 -1
    outer loop
      vertex 0 25 0
      vertex 7.7 33.4 0
      vertex 7.7 25 0
    endloop
  endfacet
  facet normal -0 0 -1
    outer loop
      vertex 7.7 33.4 0
      vertex 0 25 0
      vertex 0 33.4 0
    endloop
  endfacet
  facet normal 0 -1 0
    outer loop
      vertex 0 25 0
      vertex 7.7 25 2.5
      vertex 0 25 2.5
    endloop
  endfacet
  facet normal 0 -1 -0
    outer loop
      vertex 7.7 25 2.5
      vertex 0 25 0
      vertex 7.7 25 0
    endloop
  endfacet
  facet normal 0 1 -0
    outer loop
      vertex 7.7 33.4 0
      vertex 0 33.4 2.5
      vertex 7.7 33.4 2.5
    endloop
  endfacet
  facet normal 0 1 0
    outer loop
      vertex 0 33.4 2.5
      vertex 7.7 33.4 0
      vertex 0 33.4 0
    endloop
  endfacet
  facet normal -1 0 0
    outer loop
      vertex 2.25 26.8 2.5
      vertex 2.25 31.6 5.1
      vertex 2.25 31.6 2.5
    endloop
  endfacet
  facet normal -1 -0 0
    outer loop
      vertex 2.25 31.6 5.1
      vertex 2.25 26.8 2.5
      vertex 2.25 26.8 5.1
    endloop
  endfacet
  facet normal 1 -0 0
    outer loop
      vertex 5.45 26.8 5.1
      vertex 5.45 31.6 2.5
      vertex 5.45 31.6 5.1
    endloop
  endfacet
  facet normal 1 0 0
    outer loop
      vertex 5.45 31.6 2.5
      vertex 5.45 26.8 5.1
      vertex 5.45 26.8 2.5
    endloop
  endfacet
  facet normal 0 -1 0
    outer loop
      vertex 2.25 26.8 2.5
      vertex 5.45 26.8 5.1
      vertex 2.25 26.8 5.1
    endloop
  endfacet
  facet normal 0 -1 -0
    outer loop
      vertex 5.45 26.8 5.1
      vertex 2.25 26.8 2.5
      vertex 5.45 26.8 2.5
    endloop
  endfacet
  facet normal 0 1 -0
    outer loop
      vertex 5.45 31.6 2.5
      vertex 2.25 31.6 5.1
      vertex 5.45 31.6 5.1
    endloop
  endfacet
  facet normal 0 1 0
    outer loop
      vertex 2.25 31.6 5.1
      vertex 5.45 31.6 2.5
      vertex 2.25 31.6 2.5
    endloop
  endfacet
  facet normal -1 0 0
    outer loop
      vertex 0 -3.3 5.1
      vertex 0 36.7 10.1
      vertex 0 36.7 5.1
    endloop
  endfacet
  facet normal -1 -0 0
    outer loop
      vertex 0 36.7 10.1
      vertex 0 -3.3 5.1
      vertex 0 -3.3 10.1
    endloop
  endfacet
  facet normal -0 0 1
    outer loop
      vertex 0 36.7 10.1
      vertex 7.7 -3.3 10.1
      vertex 7.7 36.7 10.1
    endloop
  endfacet
  facet normal 0 0 1
    outer loop
      vertex 7.7 -3.3 10.1
      vertex 0 36.7 10.1
      vertex 0 -3.3 10.1
    endloop
  endfacet
  facet normal 1 -0 0
    outer loop
      vertex 7.7 -3.3 10.1
      vertex 7.7 36.7 5.1
      vertex 7.7 36.7 10.1
    endloop
  endfacet
  facet normal 1 0 0
    outer loop
      vertex 7.7 36.7 5.1
      vertex 7.7 -3.3 10.1
      vertex 7.7 -3.3 5.1
    endloop
  endfacet
  facet normal 0 -1 0
    outer loop
      vertex 0 -3.3 5.1
      vertex 7.7 -3.3 10.1
      vertex 0 -3.3 10.1
    endloop
  endfacet
  facet normal 0 -1 -0
    outer loop
      vertex 7.7 -3.3 10.1
      vertex 0 -3.3 5.1
      vertex 7.7 -3.3 5.1
    endloop
  endfacet
  facet normal 0 1 -0
    outer loop
      vertex 7.7 36.7 5.1
      vertex 0 36.7 10.1
      vertex 7.7 36.7 10.1
    endloop
  endfacet
  facet normal 0 1 0
    outer loop
      vertex 0 36.7 10.1
      vertex 7.7 36.7 5.1
      vertex 0 36.7 5.1
    endloop
  endfacet
endsolid OpenSCAD_Model
