solid OpenSCAD_Model
  facet normal -1 0 0
    outer loop
      vertex 0 0 0
      vertex 0 88 50.09
      vertex 0 88 0
    endloop
  endfacet
  facet normal -1 -0 0
    outer loop
      vertex 0 88 50.09
      vertex 0 0 0
      vertex 0 0 50.09
    endloop
  endfacet
  facet normal 0 0 1
    outer loop
      vertex 169.994 85.9987 50
      vertex 168 44 50
      vertex 169.994 2.00127 50
    endloop
  endfacet
  facet normal 0 0 1
    outer loop
      vertex 169.994 85.9987 50
      vertex 167.126 52.3165 50
      vertex 168 44 50
    endloop
  endfacet
  facet normal 0 0 1
    outer loop
      vertex 169.994 85.9987 50
      vertex 164.542 60.2695 50
      vertex 167.126 52.3165 50
    endloop
  endfacet
  facet normal 0 0 1
    outer loop
      vertex 169.994 85.9987 50
      vertex 160.361 67.5114 50
      vertex 164.542 60.2695 50
    endloop
  endfacet
  facet normal 0 0 1
    outer loop
      vertex 169.994 85.9987 50
      vertex 154.765 73.7258 50
      vertex 160.361 67.5114 50
    endloop
  endfacet
  facet normal 0 0 1
    outer loop
      vertex 169.994 85.9987 50
      vertex 148 78.641 50
      vertex 154.765 73.7258 50
    endloop
  endfacet
  facet normal 0 0 1
    outer loop
      vertex 169.994 85.9987 50
      vertex 140.361 82.0423 50
      vertex 148 78.641 50
    endloop
  endfacet
  facet normal 0 0 1
    outer loop
      vertex 169.994 85.9987 50
      vertex 132.181 83.7809 50
      vertex 140.361 82.0423 50
    endloop
  endfacet
  facet normal 0 0 1
    outer loop
      vertex 169.994 85.9987 50
      vertex 123.819 83.7809 50
      vertex 132.181 83.7809 50
    endloop
  endfacet
  facet normal 0 0 1
    outer loop
      vertex 88.8741 52.3165 50
      vertex 84 44 50
      vertex 88 44 50
    endloop
  endfacet
  facet normal 0 0 1
    outer loop
      vertex 83.1259 52.3165 50
      vertex 88.8741 52.3165 50
      vertex 91.4582 60.2695 50
    endloop
  endfacet
  facet normal 0 0 1
    outer loop
      vertex 88.8741 52.3165 50
      vertex 83.1259 52.3165 50
      vertex 84 44 50
    endloop
  endfacet
  facet normal 0 0 1
    outer loop
      vertex 80.5418 60.2695 50
      vertex 91.4582 60.2695 50
      vertex 95.6393 67.5114 50
    endloop
  endfacet
  facet normal 0 0 1
    outer loop
      vertex 91.4582 60.2695 50
      vertex 80.5418 60.2695 50
      vertex 83.1259 52.3165 50
    endloop
  endfacet
  facet normal 0 0 1
    outer loop
      vertex 76.3607 67.5114 50
      vertex 95.6393 67.5114 50
      vertex 101.235 73.7258 50
    endloop
  endfacet
  facet normal 0 0 1
    outer loop
      vertex 70.7652 73.7258 50
      vertex 101.235 73.7258 50
      vertex 108 78.641 50
    endloop
  endfacet
  facet normal 0 0 1
    outer loop
      vertex 95.6393 67.5114 50
      vertex 76.3607 67.5114 50
      vertex 80.5418 60.2695 50
    endloop
  endfacet
  facet normal 0 0 1
    outer loop
      vertex 64 78.641 50
      vertex 108 78.641 50
      vertex 115.639 82.0423 50
    endloop
  endfacet
  facet normal 0 0 1
    outer loop
      vertex 101.235 73.7258 50
      vertex 70.7652 73.7258 50
      vertex 76.3607 67.5114 50
    endloop
  endfacet
  facet normal 0 0 1
    outer loop
      vertex 56.3607 82.0423 50
      vertex 115.639 82.0423 50
      vertex 123.819 83.7809 50
    endloop
  endfacet
  facet normal 0 0 1
    outer loop
      vertex 108 78.641 50
      vertex 64 78.641 50
      vertex 70.7652 73.7258 50
    endloop
  endfacet
  facet normal 0 0 1
    outer loop
      vertex 115.639 82.0423 50
      vertex 56.3607 82.0423 50
      vertex 64 78.641 50
    endloop
  endfacet
  facet normal 0 0 1
    outer loop
      vertex 48.1811 83.7809 50
      vertex 123.819 83.7809 50
      vertex 169.994 85.9987 50
    endloop
  endfacet
  facet normal 0 0 1
    outer loop
      vertex 123.819 83.7809 50
      vertex 48.1811 83.7809 50
      vertex 56.3607 82.0423 50
    endloop
  endfacet
  facet normal -0 0 1
    outer loop
      vertex 2.00566 85.9987 50
      vertex 48.1811 83.7809 50
      vertex 169.994 85.9987 50
    endloop
  endfacet
  facet normal 0 0 1
    outer loop
      vertex 4.8741 52.3165 50
      vertex 2.00566 85.9987 50
      vertex 4 44 50
    endloop
  endfacet
  facet normal 0 0 1
    outer loop
      vertex 7.45818 60.2695 50
      vertex 2.00566 85.9987 50
      vertex 4.8741 52.3165 50
    endloop
  endfacet
  facet normal 0 0 1
    outer loop
      vertex 11.6393 67.5114 50
      vertex 2.00566 85.9987 50
      vertex 7.45818 60.2695 50
    endloop
  endfacet
  facet normal 0 0 1
    outer loop
      vertex 17.2348 73.7258 50
      vertex 2.00566 85.9987 50
      vertex 11.6393 67.5114 50
    endloop
  endfacet
  facet normal 0 0 1
    outer loop
      vertex 24 78.641 50
      vertex 2.00566 85.9987 50
      vertex 17.2348 73.7258 50
    endloop
  endfacet
  facet normal 0 0 1
    outer loop
      vertex 31.6393 82.0423 50
      vertex 2.00566 85.9987 50
      vertex 24 78.641 50
    endloop
  endfacet
  facet normal 0 0 1
    outer loop
      vertex 39.8189 83.7809 50
      vertex 2.00566 85.9987 50
      vertex 31.6393 82.0423 50
    endloop
  endfacet
  facet normal 0 0 1
    outer loop
      vertex 48.1811 83.7809 50
      vertex 2.00566 85.9987 50
      vertex 39.8189 83.7809 50
    endloop
  endfacet
  facet normal -0 0 1
    outer loop
      vertex 167.126 35.6835 50
      vertex 169.994 2.00127 50
      vertex 168 44 50
    endloop
  endfacet
  facet normal -0 0 1
    outer loop
      vertex 164.542 27.7305 50
      vertex 169.994 2.00127 50
      vertex 167.126 35.6835 50
    endloop
  endfacet
  facet normal -0 0 1
    outer loop
      vertex 160.361 20.4886 50
      vertex 169.994 2.00127 50
      vertex 164.542 27.7305 50
    endloop
  endfacet
  facet normal -0 0 1
    outer loop
      vertex 154.765 14.2742 50
      vertex 169.994 2.00127 50
      vertex 160.361 20.4886 50
    endloop
  endfacet
  facet normal -0 0 1
    outer loop
      vertex 148 9.35898 50
      vertex 169.994 2.00127 50
      vertex 154.765 14.2742 50
    endloop
  endfacet
  facet normal -0 0 1
    outer loop
      vertex 140.361 5.95774 50
      vertex 169.994 2.00127 50
      vertex 148 9.35898 50
    endloop
  endfacet
  facet normal -0 0 1
    outer loop
      vertex 132.181 4.21912 50
      vertex 169.994 2.00127 50
      vertex 140.361 5.95774 50
    endloop
  endfacet
  facet normal -0 0 1
    outer loop
      vertex 123.819 4.21912 50
      vertex 169.994 2.00127 50
      vertex 132.181 4.21912 50
    endloop
  endfacet
  facet normal -0 0 1
    outer loop
      vertex 84 44 50
      vertex 88.8741 35.6835 50
      vertex 88 44 50
    endloop
  endfacet
  facet normal 0 0 1
    outer loop
      vertex 83.1259 35.6835 50
      vertex 88.8741 35.6835 50
      vertex 84 44 50
    endloop
  endfacet
  facet normal 0 0 1
    outer loop
      vertex 88.8741 35.6835 50
      vertex 83.1259 35.6835 50
      vertex 91.4582 27.7305 50
    endloop
  endfacet
  facet normal 0 0 1
    outer loop
      vertex 80.5418 27.7305 50
      vertex 91.4582 27.7305 50
      vertex 83.1259 35.6835 50
    endloop
  endfacet
  facet normal 0 0 1
    outer loop
      vertex 91.4582 27.7305 50
      vertex 80.5418 27.7305 50
      vertex 95.6393 20.4886 50
    endloop
  endfacet
  facet normal 0 0 1
    outer loop
      vertex 76.3607 20.4886 50
      vertex 95.6393 20.4886 50
      vertex 80.5418 27.7305 50
    endloop
  endfacet
  facet normal 0 0 1
    outer loop
      vertex 95.6393 20.4886 50
      vertex 76.3607 20.4886 50
      vertex 101.235 14.2742 50
    endloop
  endfacet
  facet normal 0 0 1
    outer loop
      vertex 70.7652 14.2742 50
      vertex 101.235 14.2742 50
      vertex 76.3607 20.4886 50
    endloop
  endfacet
  facet normal 0 0 1
    outer loop
      vertex 101.235 14.2742 50
      vertex 70.7652 14.2742 50
      vertex 108 9.35898 50
    endloop
  endfacet
  facet normal 0 0 1
    outer loop
      vertex 64 9.35898 50
      vertex 108 9.35898 50
      vertex 70.7652 14.2742 50
    endloop
  endfacet
  facet normal 0 0 1
    outer loop
      vertex 108 9.35898 50
      vertex 64 9.35898 50
      vertex 115.639 5.95774 50
    endloop
  endfacet
  facet normal 0 0 1
    outer loop
      vertex 56.3607 5.95774 50
      vertex 115.639 5.95774 50
      vertex 64 9.35898 50
    endloop
  endfacet
  facet normal 0 0 1
    outer loop
      vertex 115.639 5.95774 50
      vertex 56.3607 5.95774 50
      vertex 123.819 4.21912 50
    endloop
  endfacet
  facet normal 0 0 1
    outer loop
      vertex 48.1811 4.21912 50
      vertex 123.819 4.21912 50
      vertex 56.3607 5.95774 50
    endloop
  endfacet
  facet normal 0 0 1
    outer loop
      vertex 123.819 4.21912 50
      vertex 48.1811 4.21912 50
      vertex 169.994 2.00127 50
    endloop
  endfacet
  facet normal 0 0 1
    outer loop
      vertex 2.00566 2.00127 50
      vertex 48.1811 4.21912 50
      vertex 39.8189 4.21912 50
    endloop
  endfacet
  facet normal 0 0 1
    outer loop
      vertex 48.1811 4.21912 50
      vertex 2.00566 2.00127 50
      vertex 169.994 2.00127 50
    endloop
  endfacet
  facet normal 0 0 1
    outer loop
      vertex 31.6393 5.95774 50
      vertex 2.00566 2.00127 50
      vertex 39.8189 4.21912 50
    endloop
  endfacet
  facet normal 0 0 1
    outer loop
      vertex 24 9.35898 50
      vertex 2.00566 2.00127 50
      vertex 31.6393 5.95774 50
    endloop
  endfacet
  facet normal 0 0 1
    outer loop
      vertex 17.2348 14.2742 50
      vertex 2.00566 2.00127 50
      vertex 24 9.35898 50
    endloop
  endfacet
  facet normal 0 0 1
    outer loop
      vertex 11.6393 20.4886 50
      vertex 2.00566 2.00127 50
      vertex 17.2348 14.2742 50
    endloop
  endfacet
  facet normal 0 0 1
    outer loop
      vertex 7.45818 27.7305 50
      vertex 2.00566 2.00127 50
      vertex 11.6393 20.4886 50
    endloop
  endfacet
  facet normal 0 0 1
    outer loop
      vertex 4.8741 35.6835 50
      vertex 2.00566 2.00127 50
      vertex 7.45818 27.7305 50
    endloop
  endfacet
  facet normal 0 0 1
    outer loop
      vertex 4 44 50
      vertex 2.00566 2.00127 50
      vertex 4.8741 35.6835 50
    endloop
  endfacet
  facet normal 0 0 1
    outer loop
      vertex 2.00566 2.00127 50
      vertex 4 44 50
      vertex 2.00566 85.9987 50
    endloop
  endfacet
  facet normal 1 -0 0
    outer loop
      vertex 172 0 50.09
      vertex 172 88 0
      vertex 172 88 50.09
    endloop
  endfacet
  facet normal 1 0 0
    outer loop
      vertex 172 88 0
      vertex 172 0 50.09
      vertex 172 0 0
    endloop
  endfacet
  facet normal 0 1 -0
    outer loop
      vertex 172 88 0
      vertex 0 88 50.09
      vertex 172 88 50.09
    endloop
  endfacet
  facet normal 0 1 0
    outer loop
      vertex 0 88 50.09
      vertex 172 88 0
      vertex 0 88 0
    endloop
  endfacet
  facet normal 0 0 -1
    outer loop
      vertex 172 0 0
      vertex 168 44 0
      vertex 172 88 0
    endloop
  endfacet
  facet normal 0 0 -1
    outer loop
      vertex 172 0 0
      vertex 167.126 35.6835 0
      vertex 168 44 0
    endloop
  endfacet
  facet normal 0 0 -1
    outer loop
      vertex 172 0 0
      vertex 164.542 27.7305 0
      vertex 167.126 35.6835 0
    endloop
  endfacet
  facet normal 0 0 -1
    outer loop
      vertex 172 0 0
      vertex 160.361 20.4886 0
      vertex 164.542 27.7305 0
    endloop
  endfacet
  facet normal 0 0 -1
    outer loop
      vertex 172 0 0
      vertex 154.765 14.2742 0
      vertex 160.361 20.4886 0
    endloop
  endfacet
  facet normal 0 0 -1
    outer loop
      vertex 172 0 0
      vertex 148 9.35898 0
      vertex 154.765 14.2742 0
    endloop
  endfacet
  facet normal 0 0 -1
    outer loop
      vertex 172 0 0
      vertex 140.361 5.95774 0
      vertex 148 9.35898 0
    endloop
  endfacet
  facet normal 0 0 -1
    outer loop
      vertex 172 0 0
      vertex 132.181 4.21912 0
      vertex 140.361 5.95774 0
    endloop
  endfacet
  facet normal 0 0 -1
    outer loop
      vertex 172 0 0
      vertex 123.819 4.21912 0
      vertex 132.181 4.21912 0
    endloop
  endfacet
  facet normal 0 0 -1
    outer loop
      vertex 88.8741 35.6835 0
      vertex 84 44 0
      vertex 88 44 0
    endloop
  endfacet
  facet normal 0 0 -1
    outer loop
      vertex 83.1259 35.6835 0
      vertex 88.8741 35.6835 0
      vertex 91.4582 27.7305 0
    endloop
  endfacet
  facet normal 0 0 -1
    outer loop
      vertex 88.8741 35.6835 0
      vertex 83.1259 35.6835 0
      vertex 84 44 0
    endloop
  endfacet
  facet normal 0 0 -1
    outer loop
      vertex 80.5418 27.7305 0
      vertex 91.4582 27.7305 0
      vertex 95.6393 20.4886 0
    endloop
  endfacet
  facet normal 0 0 -1
    outer loop
      vertex 91.4582 27.7305 0
      vertex 80.5418 27.7305 0
      vertex 83.1259 35.6835 0
    endloop
  endfacet
  facet normal 0 0 -1
    outer loop
      vertex 76.3607 20.4886 0
      vertex 95.6393 20.4886 0
      vertex 101.235 14.2742 0
    endloop
  endfacet
  facet normal 0 0 -1
    outer loop
      vertex 70.7652 14.2742 0
      vertex 101.235 14.2742 0
      vertex 108 9.35898 0
    endloop
  endfacet
  facet normal 0 0 -1
    outer loop
      vertex 95.6393 20.4886 0
      vertex 76.3607 20.4886 0
      vertex 80.5418 27.7305 0
    endloop
  endfacet
  facet normal 0 0 -1
    outer loop
      vertex 64 9.35898 0
      vertex 108 9.35898 0
      vertex 115.639 5.95774 0
    endloop
  endfacet
  facet normal 0 0 -1
    outer loop
      vertex 101.235 14.2742 0
      vertex 70.7652 14.2742 0
      vertex 76.3607 20.4886 0
    endloop
  endfacet
  facet normal 0 0 -1
    outer loop
      vertex 56.3607 5.95774 0
      vertex 115.639 5.95774 0
      vertex 123.819 4.21912 0
    endloop
  endfacet
  facet normal 0 0 -1
    outer loop
      vertex 108 9.35898 0
      vertex 64 9.35898 0
      vertex 70.7652 14.2742 0
    endloop
  endfacet
  facet normal 0 0 -1
    outer loop
      vertex 48.1811 4.21912 0
      vertex 123.819 4.21912 0
      vertex 172 0 0
    endloop
  endfacet
  facet normal 0 0 -1
    outer loop
      vertex 115.639 5.95774 0
      vertex 56.3607 5.95774 0
      vertex 64 9.35898 0
    endloop
  endfacet
  facet normal 0 0 -1
    outer loop
      vertex 123.819 4.21912 0
      vertex 48.1811 4.21912 0
      vertex 56.3607 5.95774 0
    endloop
  endfacet
  facet normal 0 0 -1
    outer loop
      vertex 0 0 0
      vertex 48.1811 4.21912 0
      vertex 172 0 0
    endloop
  endfacet
  facet normal -0 0 -1
    outer loop
      vertex 4.8741 35.6835 0
      vertex 0 0 0
      vertex 4 44 0
    endloop
  endfacet
  facet normal -0 0 -1
    outer loop
      vertex 7.45818 27.7305 0
      vertex 0 0 0
      vertex 4.8741 35.6835 0
    endloop
  endfacet
  facet normal -0 0 -1
    outer loop
      vertex 11.6393 20.4886 0
      vertex 0 0 0
      vertex 7.45818 27.7305 0
    endloop
  endfacet
  facet normal -0 0 -1
    outer loop
      vertex 17.2348 14.2742 0
      vertex 0 0 0
      vertex 11.6393 20.4886 0
    endloop
  endfacet
  facet normal -0 0 -1
    outer loop
      vertex 24 9.35898 0
      vertex 0 0 0
      vertex 17.2348 14.2742 0
    endloop
  endfacet
  facet normal -0 0 -1
    outer loop
      vertex 31.6393 5.95774 0
      vertex 0 0 0
      vertex 24 9.35898 0
    endloop
  endfacet
  facet normal -0 0 -1
    outer loop
      vertex 39.8189 4.21912 0
      vertex 0 0 0
      vertex 31.6393 5.95774 0
    endloop
  endfacet
  facet normal -0 0 -1
    outer loop
      vertex 48.1811 4.21912 0
      vertex 0 0 0
      vertex 39.8189 4.21912 0
    endloop
  endfacet
  facet normal 0 0 -1
    outer loop
      vertex 167.126 52.3165 0
      vertex 172 88 0
      vertex 168 44 0
    endloop
  endfacet
  facet normal 0 0 -1
    outer loop
      vertex 164.542 60.2695 0
      vertex 172 88 0
      vertex 167.126 52.3165 0
    endloop
  endfacet
  facet normal 0 0 -1
    outer loop
      vertex 160.361 67.5114 0
      vertex 172 88 0
      vertex 164.542 60.2695 0
    endloop
  endfacet
  facet normal 0 0 -1
    outer loop
      vertex 154.765 73.7258 0
      vertex 172 88 0
      vertex 160.361 67.5114 0
    endloop
  endfacet
  facet normal 0 0 -1
    outer loop
      vertex 148 78.641 0
      vertex 172 88 0
      vertex 154.765 73.7258 0
    endloop
  endfacet
  facet normal 0 0 -1
    outer loop
      vertex 140.361 82.0423 0
      vertex 172 88 0
      vertex 148 78.641 0
    endloop
  endfacet
  facet normal 0 0 -1
    outer loop
      vertex 132.181 83.7809 0
      vertex 172 88 0
      vertex 140.361 82.0423 0
    endloop
  endfacet
  facet normal 0 0 -1
    outer loop
      vertex 123.819 83.7809 0
      vertex 172 88 0
      vertex 132.181 83.7809 0
    endloop
  endfacet
  facet normal 0 0 -1
    outer loop
      vertex 84 44 0
      vertex 88.8741 52.3165 0
      vertex 88 44 0
    endloop
  endfacet
  facet normal 0 0 -1
    outer loop
      vertex 83.1259 52.3165 0
      vertex 88.8741 52.3165 0
      vertex 84 44 0
    endloop
  endfacet
  facet normal 0 0 -1
    outer loop
      vertex 88.8741 52.3165 0
      vertex 83.1259 52.3165 0
      vertex 91.4582 60.2695 0
    endloop
  endfacet
  facet normal 0 0 -1
    outer loop
      vertex 80.5418 60.2695 0
      vertex 91.4582 60.2695 0
      vertex 83.1259 52.3165 0
    endloop
  endfacet
  facet normal 0 0 -1
    outer loop
      vertex 91.4582 60.2695 0
      vertex 80.5418 60.2695 0
      vertex 95.6393 67.5114 0
    endloop
  endfacet
  facet normal 0 0 -1
    outer loop
      vertex 76.3607 67.5114 0
      vertex 95.6393 67.5114 0
      vertex 80.5418 60.2695 0
    endloop
  endfacet
  facet normal 0 0 -1
    outer loop
      vertex 95.6393 67.5114 0
      vertex 76.3607 67.5114 0
      vertex 101.235 73.7258 0
    endloop
  endfacet
  facet normal 0 0 -1
    outer loop
      vertex 70.7652 73.7258 0
      vertex 101.235 73.7258 0
      vertex 76.3607 67.5114 0
    endloop
  endfacet
  facet normal 0 0 -1
    outer loop
      vertex 101.235 73.7258 0
      vertex 70.7652 73.7258 0
      vertex 108 78.641 0
    endloop
  endfacet
  facet normal 0 0 -1
    outer loop
      vertex 64 78.641 0
      vertex 108 78.641 0
      vertex 70.7652 73.7258 0
    endloop
  endfacet
  facet normal 0 0 -1
    outer loop
      vertex 108 78.641 0
      vertex 64 78.641 0
      vertex 115.639 82.0423 0
    endloop
  endfacet
  facet normal 0 0 -1
    outer loop
      vertex 56.3607 82.0423 0
      vertex 115.639 82.0423 0
      vertex 64 78.641 0
    endloop
  endfacet
  facet normal 0 0 -1
    outer loop
      vertex 115.639 82.0423 0
      vertex 56.3607 82.0423 0
      vertex 123.819 83.7809 0
    endloop
  endfacet
  facet normal 0 0 -1
    outer loop
      vertex 48.1811 83.7809 0
      vertex 123.819 83.7809 0
      vertex 56.3607 82.0423 0
    endloop
  endfacet
  facet normal 0 0 -1
    outer loop
      vertex 123.819 83.7809 0
      vertex 48.1811 83.7809 0
      vertex 172 88 0
    endloop
  endfacet
  facet normal 0 0 -1
    outer loop
      vertex 0 88 0
      vertex 48.1811 83.7809 0
      vertex 39.8189 83.7809 0
    endloop
  endfacet
  facet normal 0 0 -1
    outer loop
      vertex 48.1811 83.7809 0
      vertex 0 88 0
      vertex 172 88 0
    endloop
  endfacet
  facet normal 0 0 -1
    outer loop
      vertex 31.6393 82.0423 0
      vertex 0 88 0
      vertex 39.8189 83.7809 0
    endloop
  endfacet
  facet normal 0 0 -1
    outer loop
      vertex 24 78.641 0
      vertex 0 88 0
      vertex 31.6393 82.0423 0
    endloop
  endfacet
  facet normal 0 0 -1
    outer loop
      vertex 17.2348 73.7258 0
      vertex 0 88 0
      vertex 24 78.641 0
    endloop
  endfacet
  facet normal 0 0 -1
    outer loop
      vertex 11.6393 67.5114 0
      vertex 0 88 0
      vertex 17.2348 73.7258 0
    endloop
  endfacet
  facet normal 0 0 -1
    outer loop
      vertex 7.45818 60.2695 0
      vertex 0 88 0
      vertex 11.6393 67.5114 0
    endloop
  endfacet
  facet normal 0 0 -1
    outer loop
      vertex 4.8741 52.3165 0
      vertex 0 88 0
      vertex 7.45818 60.2695 0
    endloop
  endfacet
  facet normal 0 0 -1
    outer loop
      vertex 4 44 0
      vertex 0 88 0
      vertex 4.8741 52.3165 0
    endloop
  endfacet
  facet normal 0 0 -1
    outer loop
      vertex 0 88 0
      vertex 4 44 0
      vertex 0 0 0
    endloop
  endfacet
  facet normal 0 -1 0
    outer loop
      vertex 0 0 0
      vertex 172 0 50.09
      vertex 0 0 50.09
    endloop
  endfacet
  facet normal 0 -1 -0
    outer loop
      vertex 172 0 50.09
      vertex 0 0 0
      vertex 172 0 0
    endloop
  endfacet
  facet normal -0.994522 -0.104529 0
    outer loop
      vertex 84 44 0
      vertex 83.1259 52.3165 50
      vertex 83.1259 52.3165 0
    endloop
  endfacet
  facet normal -0.994522 -0.104529 0
    outer loop
      vertex 83.1259 52.3165 50
      vertex 84 44 0
      vertex 84 44 50
    endloop
  endfacet
  facet normal 0.207909 -0.978148 0
    outer loop
      vertex 31.6393 82.0423 0
      vertex 39.8189 83.7809 50
      vertex 31.6393 82.0423 50
    endloop
  endfacet
  facet normal 0.207909 -0.978148 0
    outer loop
      vertex 39.8189 83.7809 50
      vertex 31.6393 82.0423 0
      vertex 39.8189 83.7809 0
    endloop
  endfacet
  facet normal -0.207911 0.978148 0
    outer loop
      vertex 56.3607 5.95774 0
      vertex 48.1811 4.21912 50
      vertex 56.3607 5.95774 50
    endloop
  endfacet
  facet normal -0.207911 0.978148 0
    outer loop
      vertex 48.1811 4.21912 50
      vertex 56.3607 5.95774 0
      vertex 48.1811 4.21912 0
    endloop
  endfacet
  facet normal -0.406737 0.913545 0
    outer loop
      vertex 64 9.35898 0
      vertex 56.3607 5.95774 50
      vertex 64 9.35898 50
    endloop
  endfacet
  facet normal -0.406737 0.913545 0
    outer loop
      vertex 56.3607 5.95774 50
      vertex 64 9.35898 0
      vertex 56.3607 5.95774 0
    endloop
  endfacet
  facet normal -0.587785 -0.809017 0
    outer loop
      vertex 64 78.641 0
      vertex 70.7652 73.7258 50
      vertex 64 78.641 50
    endloop
  endfacet
  facet normal -0.587785 -0.809017 -0
    outer loop
      vertex 70.7652 73.7258 50
      vertex 64 78.641 0
      vertex 70.7652 73.7258 0
    endloop
  endfacet
  facet normal 0.743143 -0.669133 0
    outer loop
      vertex 11.6393 67.5114 50
      vertex 17.2348 73.7258 0
      vertex 17.2348 73.7258 50
    endloop
  endfacet
  facet normal 0.743143 -0.669133 0
    outer loop
      vertex 17.2348 73.7258 0
      vertex 11.6393 67.5114 50
      vertex 11.6393 67.5114 0
    endloop
  endfacet
  facet normal 0.587785 -0.809017 0
    outer loop
      vertex 17.2348 73.7258 0
      vertex 24 78.641 50
      vertex 17.2348 73.7258 50
    endloop
  endfacet
  facet normal 0.587785 -0.809017 0
    outer loop
      vertex 24 78.641 50
      vertex 17.2348 73.7258 0
      vertex 24 78.641 0
    endloop
  endfacet
  facet normal -0.866026 -0.499999 0
    outer loop
      vertex 80.5418 60.2695 0
      vertex 76.3607 67.5114 50
      vertex 76.3607 67.5114 0
    endloop
  endfacet
  facet normal -0.866026 -0.499999 0
    outer loop
      vertex 76.3607 67.5114 50
      vertex 80.5418 60.2695 0
      vertex 80.5418 60.2695 50
    endloop
  endfacet
  facet normal -0.951056 -0.309018 0
    outer loop
      vertex 83.1259 52.3165 0
      vertex 80.5418 60.2695 50
      vertex 80.5418 60.2695 0
    endloop
  endfacet
  facet normal -0.951056 -0.309018 0
    outer loop
      vertex 80.5418 60.2695 50
      vertex 83.1259 52.3165 0
      vertex 83.1259 52.3165 50
    endloop
  endfacet
  facet normal -0.743143 -0.669133 0
    outer loop
      vertex 76.3607 67.5114 0
      vertex 70.7652 73.7258 50
      vertex 70.7652 73.7258 0
    endloop
  endfacet
  facet normal -0.743143 -0.669133 0
    outer loop
      vertex 70.7652 73.7258 50
      vertex 76.3607 67.5114 0
      vertex 76.3607 67.5114 50
    endloop
  endfacet
  facet normal -0.207909 -0.978148 0
    outer loop
      vertex 48.1811 83.7809 0
      vertex 56.3607 82.0423 50
      vertex 48.1811 83.7809 50
    endloop
  endfacet
  facet normal -0.207909 -0.978148 -0
    outer loop
      vertex 56.3607 82.0423 50
      vertex 48.1811 83.7809 0
      vertex 56.3607 82.0423 0
    endloop
  endfacet
  facet normal 0 -1 0
    outer loop
      vertex 39.8189 83.7809 0
      vertex 48.1811 83.7809 50
      vertex 39.8189 83.7809 50
    endloop
  endfacet
  facet normal 0 -1 -0
    outer loop
      vertex 48.1811 83.7809 50
      vertex 39.8189 83.7809 0
      vertex 48.1811 83.7809 0
    endloop
  endfacet
  facet normal -0.406743 -0.913543 0
    outer loop
      vertex 56.3607 82.0423 0
      vertex 64 78.641 50
      vertex 56.3607 82.0423 50
    endloop
  endfacet
  facet normal -0.406743 -0.913543 -0
    outer loop
      vertex 64 78.641 50
      vertex 56.3607 82.0423 0
      vertex 64 78.641 0
    endloop
  endfacet
  facet normal 0.951057 -0.309016 0
    outer loop
      vertex 4.8741 52.3165 50
      vertex 7.45818 60.2695 0
      vertex 7.45818 60.2695 50
    endloop
  endfacet
  facet normal 0.951057 -0.309016 0
    outer loop
      vertex 7.45818 60.2695 0
      vertex 4.8741 52.3165 50
      vertex 4.8741 52.3165 0
    endloop
  endfacet
  facet normal 0.866025 -0.500001 0
    outer loop
      vertex 7.45818 60.2695 50
      vertex 11.6393 67.5114 0
      vertex 11.6393 67.5114 50
    endloop
  endfacet
  facet normal 0.866025 -0.500001 0
    outer loop
      vertex 11.6393 67.5114 0
      vertex 7.45818 60.2695 50
      vertex 7.45818 60.2695 0
    endloop
  endfacet
  facet normal 0.994522 -0.104529 0
    outer loop
      vertex 4 44 50
      vertex 4.8741 52.3165 0
      vertex 4.8741 52.3165 50
    endloop
  endfacet
  facet normal 0.994522 -0.104529 0
    outer loop
      vertex 4.8741 52.3165 0
      vertex 4 44 50
      vertex 4 44 0
    endloop
  endfacet
  facet normal 0.406743 -0.913543 0
    outer loop
      vertex 24 78.641 0
      vertex 31.6393 82.0423 50
      vertex 24 78.641 50
    endloop
  endfacet
  facet normal 0.406743 -0.913543 0
    outer loop
      vertex 31.6393 82.0423 50
      vertex 24 78.641 0
      vertex 31.6393 82.0423 0
    endloop
  endfacet
  facet normal -0.994522 0.104529 0
    outer loop
      vertex 83.1259 35.6835 0
      vertex 84 44 50
      vertex 84 44 0
    endloop
  endfacet
  facet normal -0.994522 0.104529 0
    outer loop
      vertex 84 44 50
      vertex 83.1259 35.6835 0
      vertex 83.1259 35.6835 50
    endloop
  endfacet
  facet normal 0.994522 0.104529 0
    outer loop
      vertex 4.8741 35.6835 50
      vertex 4 44 0
      vertex 4 44 50
    endloop
  endfacet
  facet normal 0.994522 0.104529 0
    outer loop
      vertex 4 44 0
      vertex 4.8741 35.6835 50
      vertex 4.8741 35.6835 0
    endloop
  endfacet
  facet normal -0.866026 0.499999 0
    outer loop
      vertex 76.3607 20.4886 0
      vertex 80.5418 27.7305 50
      vertex 80.5418 27.7305 0
    endloop
  endfacet
  facet normal -0.866026 0.499999 0
    outer loop
      vertex 80.5418 27.7305 50
      vertex 76.3607 20.4886 0
      vertex 76.3607 20.4886 50
    endloop
  endfacet
  facet normal 0.207911 0.978148 -0
    outer loop
      vertex 39.8189 4.21912 0
      vertex 31.6393 5.95774 50
      vertex 39.8189 4.21912 50
    endloop
  endfacet
  facet normal 0.207911 0.978148 0
    outer loop
      vertex 31.6393 5.95774 50
      vertex 39.8189 4.21912 0
      vertex 31.6393 5.95774 0
    endloop
  endfacet
  facet normal 0.743143 0.669133 0
    outer loop
      vertex 17.2348 14.2742 50
      vertex 11.6393 20.4886 0
      vertex 11.6393 20.4886 50
    endloop
  endfacet
  facet normal 0.743143 0.669133 0
    outer loop
      vertex 11.6393 20.4886 0
      vertex 17.2348 14.2742 50
      vertex 17.2348 14.2742 0
    endloop
  endfacet
  facet normal -0.587786 0.809016 0
    outer loop
      vertex 70.7652 14.2742 0
      vertex 64 9.35898 50
      vertex 70.7652 14.2742 50
    endloop
  endfacet
  facet normal -0.587786 0.809016 0
    outer loop
      vertex 64 9.35898 50
      vertex 70.7652 14.2742 0
      vertex 64 9.35898 0
    endloop
  endfacet
  facet normal -0.951056 0.309018 0
    outer loop
      vertex 80.5418 27.7305 0
      vertex 83.1259 35.6835 50
      vertex 83.1259 35.6835 0
    endloop
  endfacet
  facet normal -0.951056 0.309018 0
    outer loop
      vertex 83.1259 35.6835 50
      vertex 80.5418 27.7305 0
      vertex 80.5418 27.7305 50
    endloop
  endfacet
  facet normal 0 1 -0
    outer loop
      vertex 48.1811 4.21912 0
      vertex 39.8189 4.21912 50
      vertex 48.1811 4.21912 50
    endloop
  endfacet
  facet normal 0 1 0
    outer loop
      vertex 39.8189 4.21912 50
      vertex 48.1811 4.21912 0
      vertex 39.8189 4.21912 0
    endloop
  endfacet
  facet normal 0.406737 0.913545 -0
    outer loop
      vertex 31.6393 5.95774 0
      vertex 24 9.35898 50
      vertex 31.6393 5.95774 50
    endloop
  endfacet
  facet normal 0.406737 0.913545 0
    outer loop
      vertex 24 9.35898 50
      vertex 31.6393 5.95774 0
      vertex 24 9.35898 0
    endloop
  endfacet
  facet normal 0.587786 0.809016 -0
    outer loop
      vertex 24 9.35898 0
      vertex 17.2348 14.2742 50
      vertex 24 9.35898 50
    endloop
  endfacet
  facet normal 0.587786 0.809016 0
    outer loop
      vertex 17.2348 14.2742 50
      vertex 24 9.35898 0
      vertex 17.2348 14.2742 0
    endloop
  endfacet
  facet normal 0.866025 0.500001 0
    outer loop
      vertex 11.6393 20.4886 50
      vertex 7.45818 27.7305 0
      vertex 7.45818 27.7305 50
    endloop
  endfacet
  facet normal 0.866025 0.500001 0
    outer loop
      vertex 7.45818 27.7305 0
      vertex 11.6393 20.4886 50
      vertex 11.6393 20.4886 0
    endloop
  endfacet
  facet normal 0.951057 0.309016 0
    outer loop
      vertex 7.45818 27.7305 50
      vertex 4.8741 35.6835 0
      vertex 4.8741 35.6835 50
    endloop
  endfacet
  facet normal 0.951057 0.309016 0
    outer loop
      vertex 4.8741 35.6835 0
      vertex 7.45818 27.7305 50
      vertex 7.45818 27.7305 0
    endloop
  endfacet
  facet normal -0.743143 0.669133 0
    outer loop
      vertex 70.7652 14.2742 0
      vertex 76.3607 20.4886 50
      vertex 76.3607 20.4886 0
    endloop
  endfacet
  facet normal -0.743143 0.669133 0
    outer loop
      vertex 76.3607 20.4886 50
      vertex 70.7652 14.2742 0
      vertex 70.7652 14.2742 50
    endloop
  endfacet
  facet normal -0.994523 -0.104517 0
    outer loop
      vertex 168 44 0
      vertex 167.126 52.3165 50
      vertex 167.126 52.3165 0
    endloop
  endfacet
  facet normal -0.994523 -0.104517 0
    outer loop
      vertex 167.126 52.3165 50
      vertex 168 44 0
      vertex 168 44 50
    endloop
  endfacet
  facet normal 0.207899 -0.97815 0
    outer loop
      vertex 115.639 82.0423 0
      vertex 123.819 83.7809 50
      vertex 115.639 82.0423 50
    endloop
  endfacet
  facet normal 0.207899 -0.97815 0
    outer loop
      vertex 123.819 83.7809 50
      vertex 115.639 82.0423 0
      vertex 123.819 83.7809 0
    endloop
  endfacet
  facet normal -0.207901 0.97815 0
    outer loop
      vertex 140.361 5.95774 0
      vertex 132.181 4.21912 50
      vertex 140.361 5.95774 50
    endloop
  endfacet
  facet normal -0.207901 0.97815 0
    outer loop
      vertex 132.181 4.21912 50
      vertex 140.361 5.95774 0
      vertex 132.181 4.21912 0
    endloop
  endfacet
  facet normal -0.40675 0.913539 0
    outer loop
      vertex 148 9.35898 0
      vertex 140.361 5.95774 50
      vertex 148 9.35898 50
    endloop
  endfacet
  facet normal -0.40675 0.913539 0
    outer loop
      vertex 140.361 5.95774 50
      vertex 148 9.35898 0
      vertex 140.361 5.95774 0
    endloop
  endfacet
  facet normal -0.587796 -0.809009 0
    outer loop
      vertex 148 78.641 0
      vertex 154.765 73.7258 50
      vertex 148 78.641 50
    endloop
  endfacet
  facet normal -0.587796 -0.809009 -0
    outer loop
      vertex 154.765 73.7258 50
      vertex 148 78.641 0
      vertex 154.765 73.7258 0
    endloop
  endfacet
  facet normal 0.743131 -0.669146 0
    outer loop
      vertex 95.6393 67.5114 50
      vertex 101.235 73.7258 0
      vertex 101.235 73.7258 50
    endloop
  endfacet
  facet normal 0.743131 -0.669146 0
    outer loop
      vertex 101.235 73.7258 0
      vertex 95.6393 67.5114 50
      vertex 95.6393 67.5114 0
    endloop
  endfacet
  facet normal 0.587796 -0.809009 0
    outer loop
      vertex 101.235 73.7258 0
      vertex 108 78.641 50
      vertex 101.235 73.7258 50
    endloop
  endfacet
  facet normal 0.587796 -0.809009 0
    outer loop
      vertex 108 78.641 50
      vertex 101.235 73.7258 0
      vertex 108 78.641 0
    endloop
  endfacet
  facet normal -0.95106 0.309008 0
    outer loop
      vertex 164.542 27.7305 0
      vertex 167.126 35.6835 50
      vertex 167.126 35.6835 0
    endloop
  endfacet
  facet normal -0.95106 0.309008 0
    outer loop
      vertex 167.126 35.6835 50
      vertex 164.542 27.7305 0
      vertex 164.542 27.7305 50
    endloop
  endfacet
  facet normal -0.866031 -0.49999 0
    outer loop
      vertex 164.542 60.2695 0
      vertex 160.361 67.5114 50
      vertex 160.361 67.5114 0
    endloop
  endfacet
  facet normal -0.866031 -0.49999 0
    outer loop
      vertex 160.361 67.5114 50
      vertex 164.542 60.2695 0
      vertex 164.542 60.2695 50
    endloop
  endfacet
  facet normal -0.95106 -0.309008 0
    outer loop
      vertex 167.126 52.3165 0
      vertex 164.542 60.2695 50
      vertex 164.542 60.2695 0
    endloop
  endfacet
  facet normal -0.95106 -0.309008 0
    outer loop
      vertex 164.542 60.2695 50
      vertex 167.126 52.3165 0
      vertex 167.126 52.3165 50
    endloop
  endfacet
  facet normal -0.743113 -0.669166 0
    outer loop
      vertex 160.361 67.5114 0
      vertex 154.765 73.7258 50
      vertex 154.765 73.7258 0
    endloop
  endfacet
  facet normal -0.743113 -0.669166 0
    outer loop
      vertex 154.765 73.7258 50
      vertex 160.361 67.5114 0
      vertex 160.361 67.5114 50
    endloop
  endfacet
  facet normal -0.207899 -0.97815 0
    outer loop
      vertex 132.181 83.7809 0
      vertex 140.361 82.0423 50
      vertex 132.181 83.7809 50
    endloop
  endfacet
  facet normal -0.207899 -0.97815 -0
    outer loop
      vertex 140.361 82.0423 50
      vertex 132.181 83.7809 0
      vertex 140.361 82.0423 0
    endloop
  endfacet
  facet normal 0 -1 0
    outer loop
      vertex 123.819 83.7809 0
      vertex 132.181 83.7809 50
      vertex 123.819 83.7809 50
    endloop
  endfacet
  facet normal 0 -1 -0
    outer loop
      vertex 132.181 83.7809 50
      vertex 123.819 83.7809 0
      vertex 132.181 83.7809 0
    endloop
  endfacet
  facet normal -0.406756 -0.913537 0
    outer loop
      vertex 140.361 82.0423 0
      vertex 148 78.641 50
      vertex 140.361 82.0423 50
    endloop
  endfacet
  facet normal -0.406756 -0.913537 -0
    outer loop
      vertex 148 78.641 50
      vertex 140.361 82.0423 0
      vertex 148 78.641 0
    endloop
  endfacet
  facet normal 0.951056 -0.309018 0
    outer loop
      vertex 88.8741 52.3165 50
      vertex 91.4582 60.2695 0
      vertex 91.4582 60.2695 50
    endloop
  endfacet
  facet normal 0.951056 -0.309018 0
    outer loop
      vertex 91.4582 60.2695 0
      vertex 88.8741 52.3165 50
      vertex 88.8741 52.3165 0
    endloop
  endfacet
  facet normal 0.866026 -0.499999 0
    outer loop
      vertex 91.4582 60.2695 50
      vertex 95.6393 67.5114 0
      vertex 95.6393 67.5114 50
    endloop
  endfacet
  facet normal 0.866026 -0.499999 0
    outer loop
      vertex 95.6393 67.5114 0
      vertex 91.4582 60.2695 50
      vertex 91.4582 60.2695 0
    endloop
  endfacet
  facet normal 0.994522 -0.104529 0
    outer loop
      vertex 88 44 50
      vertex 88.8741 52.3165 0
      vertex 88.8741 52.3165 50
    endloop
  endfacet
  facet normal 0.994522 -0.104529 0
    outer loop
      vertex 88.8741 52.3165 0
      vertex 88 44 50
      vertex 88 44 0
    endloop
  endfacet
  facet normal 0.406756 -0.913537 0
    outer loop
      vertex 108 78.641 0
      vertex 115.639 82.0423 50
      vertex 108 78.641 50
    endloop
  endfacet
  facet normal 0.406756 -0.913537 0
    outer loop
      vertex 115.639 82.0423 50
      vertex 108 78.641 0
      vertex 115.639 82.0423 0
    endloop
  endfacet
  facet normal -0.994523 0.104517 0
    outer loop
      vertex 167.126 35.6835 0
      vertex 168 44 50
      vertex 168 44 0
    endloop
  endfacet
  facet normal -0.994523 0.104517 0
    outer loop
      vertex 168 44 50
      vertex 167.126 35.6835 0
      vertex 167.126 35.6835 50
    endloop
  endfacet
  facet normal 0.994522 0.104529 0
    outer loop
      vertex 88.8741 35.6835 50
      vertex 88 44 0
      vertex 88 44 50
    endloop
  endfacet
  facet normal 0.994522 0.104529 0
    outer loop
      vertex 88 44 0
      vertex 88.8741 35.6835 50
      vertex 88.8741 35.6835 0
    endloop
  endfacet
  facet normal -0.866031 0.49999 0
    outer loop
      vertex 160.361 20.4886 0
      vertex 164.542 27.7305 50
      vertex 164.542 27.7305 0
    endloop
  endfacet
  facet normal -0.866031 0.49999 0
    outer loop
      vertex 164.542 27.7305 50
      vertex 160.361 20.4886 0
      vertex 160.361 20.4886 50
    endloop
  endfacet
  facet normal 0.743131 0.669146 0
    outer loop
      vertex 101.235 14.2742 50
      vertex 95.6393 20.4886 0
      vertex 95.6393 20.4886 50
    endloop
  endfacet
  facet normal 0.743131 0.669146 0
    outer loop
      vertex 95.6393 20.4886 0
      vertex 101.235 14.2742 50
      vertex 101.235 14.2742 0
    endloop
  endfacet
  facet normal -0.587798 0.809008 0
    outer loop
      vertex 154.765 14.2742 0
      vertex 148 9.35898 50
      vertex 154.765 14.2742 50
    endloop
  endfacet
  facet normal -0.587798 0.809008 0
    outer loop
      vertex 148 9.35898 50
      vertex 154.765 14.2742 0
      vertex 148 9.35898 0
    endloop
  endfacet
  facet normal 0 1 -0
    outer loop
      vertex 132.181 4.21912 0
      vertex 123.819 4.21912 50
      vertex 132.181 4.21912 50
    endloop
  endfacet
  facet normal 0 1 0
    outer loop
      vertex 123.819 4.21912 50
      vertex 132.181 4.21912 0
      vertex 123.819 4.21912 0
    endloop
  endfacet
  facet normal 0.40675 0.913539 -0
    outer loop
      vertex 115.639 5.95774 0
      vertex 108 9.35898 50
      vertex 115.639 5.95774 50
    endloop
  endfacet
  facet normal 0.40675 0.913539 0
    outer loop
      vertex 108 9.35898 50
      vertex 115.639 5.95774 0
      vertex 108 9.35898 0
    endloop
  endfacet
  facet normal 0.207901 0.97815 -0
    outer loop
      vertex 123.819 4.21912 0
      vertex 115.639 5.95774 50
      vertex 123.819 4.21912 50
    endloop
  endfacet
  facet normal 0.207901 0.97815 0
    outer loop
      vertex 115.639 5.95774 50
      vertex 123.819 4.21912 0
      vertex 115.639 5.95774 0
    endloop
  endfacet
  facet normal 0.587798 0.809008 -0
    outer loop
      vertex 108 9.35898 0
      vertex 101.235 14.2742 50
      vertex 108 9.35898 50
    endloop
  endfacet
  facet normal 0.587798 0.809008 0
    outer loop
      vertex 101.235 14.2742 50
      vertex 108 9.35898 0
      vertex 101.235 14.2742 0
    endloop
  endfacet
  facet normal 0.866026 0.499999 0
    outer loop
      vertex 95.6393 20.4886 50
      vertex 91.4582 27.7305 0
      vertex 91.4582 27.7305 50
    endloop
  endfacet
  facet normal 0.866026 0.499999 0
    outer loop
      vertex 91.4582 27.7305 0
      vertex 95.6393 20.4886 50
      vertex 95.6393 20.4886 0
    endloop
  endfacet
  facet normal 0.951056 0.309018 0
    outer loop
      vertex 91.4582 27.7305 50
      vertex 88.8741 35.6835 0
      vertex 88.8741 35.6835 50
    endloop
  endfacet
  facet normal 0.951056 0.309018 0
    outer loop
      vertex 88.8741 35.6835 0
      vertex 91.4582 27.7305 50
      vertex 91.4582 27.7305 0
    endloop
  endfacet
  facet normal -0.743113 0.669166 0
    outer loop
      vertex 154.765 14.2742 0
      vertex 160.361 20.4886 50
      vertex 160.361 20.4886 0
    endloop
  endfacet
  facet normal -0.743113 0.669166 0
    outer loop
      vertex 160.361 20.4886 50
      vertex 154.765 14.2742 0
      vertex 154.765 14.2742 50
    endloop
  endfacet
  facet normal 0 -0.991907 0.126964
    outer loop
      vertex 0 0 50.09
      vertex 143.6 6.4 100.09
      vertex 28.4 6.4 100.09
    endloop
  endfacet
  facet normal 0 -0.991907 0.126964
    outer loop
      vertex 143.6 6.4 100.09
      vertex 0 0 50.09
      vertex 172 0 50.09
    endloop
  endfacet
  facet normal -0.869524 0 0.49389
    outer loop
      vertex 0 88 50.09
      vertex 28.4 6.4 100.09
      vertex 28.4 81.6 100.09
    endloop
  endfacet
  facet normal -0.869524 0 0.49389
    outer loop
      vertex 28.4 6.4 100.09
      vertex 0 88 50.09
      vertex 0 0 50.09
    endloop
  endfacet
  facet normal 0.869524 -0 0.49389
    outer loop
      vertex 143.6 6.4 100.09
      vertex 172 88 50.09
      vertex 143.6 81.6 100.09
    endloop
  endfacet
  facet normal 0.869524 0 0.49389
    outer loop
      vertex 172 88 50.09
      vertex 143.6 6.4 100.09
      vertex 172 0 50.09
    endloop
  endfacet
  facet normal 0 0.991907 0.126964
    outer loop
      vertex 172 88 50.09
      vertex 28.4 81.6 100.09
      vertex 143.6 81.6 100.09
    endloop
  endfacet
  facet normal 0 0.991907 0.126964
    outer loop
      vertex 28.4 81.6 100.09
      vertex 172 88 50.09
      vertex 0 88 50.09
    endloop
  endfacet
  facet normal 0 -1 0
    outer loop
      vertex 28.4 6.4 100.09
      vertex 143.6 6.4 150.09
      vertex 28.4 6.4 150.09
    endloop
  endfacet
  facet normal 0 -1 -0
    outer loop
      vertex 143.6 6.4 150.09
      vertex 28.4 6.4 100.09
      vertex 143.6 6.4 100.09
    endloop
  endfacet
  facet normal 0 0 1
    outer loop
      vertex 143.6 81.6 150.09
      vertex 141.6 79.6 150.09
      vertex 143.6 6.4 150.09
    endloop
  endfacet
  facet normal 0 0 1
    outer loop
      vertex 143.6 81.6 150.09
      vertex 30.4 79.6 150.09
      vertex 141.6 79.6 150.09
    endloop
  endfacet
  facet normal 0 0 1
    outer loop
      vertex 30.4 79.6 150.09
      vertex 28.4 81.6 150.09
      vertex 30.4 8.4 150.09
    endloop
  endfacet
  facet normal -0 0 1
    outer loop
      vertex 28.4 81.6 150.09
      vertex 30.4 79.6 150.09
      vertex 143.6 81.6 150.09
    endloop
  endfacet
  facet normal -0 0 1
    outer loop
      vertex 141.6 8.4 150.09
      vertex 143.6 6.4 150.09
      vertex 141.6 79.6 150.09
    endloop
  endfacet
  facet normal -0 0 1
    outer loop
      vertex 30.4 8.4 150.09
      vertex 143.6 6.4 150.09
      vertex 141.6 8.4 150.09
    endloop
  endfacet
  facet normal 0 0 1
    outer loop
      vertex 30.4 8.4 150.09
      vertex 28.4 6.4 150.09
      vertex 143.6 6.4 150.09
    endloop
  endfacet
  facet normal 0 0 1
    outer loop
      vertex 28.4 6.4 150.09
      vertex 30.4 8.4 150.09
      vertex 28.4 81.6 150.09
    endloop
  endfacet
  facet normal -1 0 0
    outer loop
      vertex 28.4 6.4 100.09
      vertex 28.4 81.6 150.09
      vertex 28.4 81.6 100.09
    endloop
  endfacet
  facet normal -1 -0 0
    outer loop
      vertex 28.4 81.6 150.09
      vertex 28.4 6.4 100.09
      vertex 28.4 6.4 150.09
    endloop
  endfacet
  facet normal 0 1 -0
    outer loop
      vertex 143.6 81.6 100.09
      vertex 28.4 81.6 150.09
      vertex 143.6 81.6 150.09
    endloop
  endfacet
  facet normal 0 1 0
    outer loop
      vertex 28.4 81.6 150.09
      vertex 143.6 81.6 100.09
      vertex 28.4 81.6 100.09
    endloop
  endfacet
  facet normal 1 -0 0
    outer loop
      vertex 143.6 6.4 150.09
      vertex 143.6 81.6 100.09
      vertex 143.6 81.6 150.09
    endloop
  endfacet
  facet normal 1 0 0
    outer loop
      vertex 143.6 81.6 100.09
      vertex 143.6 6.4 150.09
      vertex 143.6 6.4 100.09
    endloop
  endfacet
  facet normal 0 0.991971 -0.126467
    outer loop
      vertex 169.994 2.00127 50
      vertex 30.4 8.4 100.19
      vertex 141.6 8.4 100.19
    endloop
  endfacet
  facet normal 0 0.991971 -0.126467
    outer loop
      vertex 30.4 8.4 100.19
      vertex 169.994 2.00127 50
      vertex 2.00566 2.00127 50
    endloop
  endfacet
  facet normal 0.870369 0 -0.4924
    outer loop
      vertex 30.4 8.4 100.19
      vertex 2.00566 85.9987 50
      vertex 30.4 79.6 100.19
    endloop
  endfacet
  facet normal 0.870369 0 -0.4924
    outer loop
      vertex 2.00566 85.9987 50
      vertex 30.4 8.4 100.19
      vertex 2.00566 2.00127 50
    endloop
  endfacet
  facet normal -0.870372 0 -0.492396
    outer loop
      vertex 169.994 85.9987 50
      vertex 141.6 8.4 100.19
      vertex 141.6 79.6 100.19
    endloop
  endfacet
  facet normal -0.870372 0 -0.492396
    outer loop
      vertex 141.6 8.4 100.19
      vertex 169.994 85.9987 50
      vertex 169.994 2.00127 50
    endloop
  endfacet
  facet normal 0 -0.991971 -0.126466
    outer loop
      vertex 2.00566 85.9987 50
      vertex 141.6 79.6 100.19
      vertex 30.4 79.6 100.19
    endloop
  endfacet
  facet normal 0 -0.991971 -0.126466
    outer loop
      vertex 141.6 79.6 100.19
      vertex 2.00566 85.9987 50
      vertex 169.994 85.9987 50
    endloop
  endfacet
  facet normal 0 1 -0
    outer loop
      vertex 141.6 8.4 100.19
      vertex 30.4 8.4 150.09
      vertex 141.6 8.4 150.09
    endloop
  endfacet
  facet normal 0 1 0
    outer loop
      vertex 30.4 8.4 150.09
      vertex 141.6 8.4 100.19
      vertex 30.4 8.4 100.19
    endloop
  endfacet
  facet normal 1 -0 0
    outer loop
      vertex 30.4 8.4 150.09
      vertex 30.4 79.6 100.19
      vertex 30.4 79.6 150.09
    endloop
  endfacet
  facet normal 1 0 0
    outer loop
      vertex 30.4 79.6 100.19
      vertex 30.4 8.4 150.09
      vertex 30.4 8.4 100.19
    endloop
  endfacet
  facet normal 0 -1 0
    outer loop
      vertex 30.4 79.6 100.19
      vertex 141.6 79.6 150.09
      vertex 30.4 79.6 150.09
    endloop
  endfacet
  facet normal 0 -1 -0
    outer loop
      vertex 141.6 79.6 150.09
      vertex 30.4 79.6 100.19
      vertex 141.6 79.6 100.19
    endloop
  endfacet
  facet normal -1 0 0
    outer loop
      vertex 141.6 8.4 100.19
      vertex 141.6 79.6 150.09
      vertex 141.6 79.6 100.19
    endloop
  endfacet
  facet normal -1 -0 0
    outer loop
      vertex 141.6 79.6 150.09
      vertex 141.6 8.4 100.19
      vertex 141.6 8.4 150.09
    endloop
  endfacet
endsolid OpenSCAD_Model
