solid OpenSCAD_Model
  facet normal -1 0 0
    outer loop
      vertex 0 11 0
      vertex 0 10.5 0.5
      vertex 0 11 5.5
    endloop
  endfacet
  facet normal -1 0 0
    outer loop
      vertex 0 11 0
      vertex 0 0.5 0.5
      vertex 0 10.5 0.5
    endloop
  endfacet
  facet normal -1 0 0
    outer loop
      vertex 0 0 0
      vertex 0 0.5 0.5
      vertex 0 11 0
    endloop
  endfacet
  facet normal -1 0 0
    outer loop
      vertex 0 0 5.5
      vertex 0 0.5 0.5
      vertex 0 0 0
    endloop
  endfacet
  facet normal -1 0 0
    outer loop
      vertex 0 0.5 0.5
      vertex 0 0 5.5
      vertex 0 0.5 5.5
    endloop
  endfacet
  facet normal -1 -0 0
    outer loop
      vertex 0 11 5.5
      vertex 0 10.5 0.5
      vertex 0 10.5 5.5
    endloop
  endfacet
  facet normal -0 0 1
    outer loop
      vertex 0 0.5 5.5
      vertex 200 0 5.5
      vertex 200 0.5 5.5
    endloop
  endfacet
  facet normal 0 0 1
    outer loop
      vertex 200 0 5.5
      vertex 0 0.5 5.5
      vertex 0 0 5.5
    endloop
  endfacet
  facet normal -0 0 1
    outer loop
      vertex 0 11 5.5
      vertex 200 10.5 5.5
      vertex 200 11 5.5
    endloop
  endfacet
  facet normal 0 0 1
    outer loop
      vertex 200 10.5 5.5
      vertex 0 11 5.5
      vertex 0 10.5 5.5
    endloop
  endfacet
  facet normal 1 0 0
    outer loop
      vertex 200 0.5 5.5
      vertex 200 0 5.5
      vertex 200 0.5 0.5
    endloop
  endfacet
  facet normal 1 0 0
    outer loop
      vertex 200 10.5 0.5
      vertex 200 11 5.5
      vertex 200 10.5 5.5
    endloop
  endfacet
  facet normal 1 0 0
    outer loop
      vertex 200 11 5.5
      vertex 200 10.5 0.5
      vertex 200 11 0
    endloop
  endfacet
  facet normal 1 -0 0
    outer loop
      vertex 200 0.5 0.5
      vertex 200 11 0
      vertex 200 10.5 0.5
    endloop
  endfacet
  facet normal 1 0 0
    outer loop
      vertex 200 0.5 0.5
      vertex 200 0 0
      vertex 200 11 0
    endloop
  endfacet
  facet normal 1 0 0
    outer loop
      vertex 200 0 0
      vertex 200 0.5 0.5
      vertex 200 0 5.5
    endloop
  endfacet
  facet normal 0 0 -1
    outer loop
      vertex 0 0 0
      vertex 200 11 0
      vertex 200 0 0
    endloop
  endfacet
  facet normal -0 0 -1
    outer loop
      vertex 200 11 0
      vertex 0 0 0
      vertex 0 11 0
    endloop
  endfacet
  facet normal 0 -1 0
    outer loop
      vertex 0 0 0
      vertex 200 0 5.5
      vertex 0 0 5.5
    endloop
  endfacet
  facet normal 0 -1 -0
    outer loop
      vertex 200 0 5.5
      vertex 0 0 0
      vertex 200 0 0
    endloop
  endfacet
  facet normal 0 1 -0
    outer loop
      vertex 200 11 0
      vertex 0 11 5.5
      vertex 200 11 5.5
    endloop
  endfacet
  facet normal 0 1 0
    outer loop
      vertex 0 11 5.5
      vertex 200 11 0
      vertex 0 11 0
    endloop
  endfacet
  facet normal 0 -1 0
    outer loop
      vertex 0 10.5 0.5
      vertex 200 10.5 5.5
      vertex 0 10.5 5.5
    endloop
  endfacet
  facet normal 0 -1 -0
    outer loop
      vertex 200 10.5 5.5
      vertex 0 10.5 0.5
      vertex 200 10.5 0.5
    endloop
  endfacet
  facet normal -0 0 1
    outer loop
      vertex 0 10.5 0.5
      vertex 200 0.5 0.5
      vertex 200 10.5 0.5
    endloop
  endfacet
  facet normal 0 0 1
    outer loop
      vertex 200 0.5 0.5
      vertex 0 10.5 0.5
      vertex 0 0.5 0.5
    endloop
  endfacet
  facet normal 0 1 -0
    outer loop
      vertex 200 0.5 0.5
      vertex 0 0.5 5.5
      vertex 200 0.5 5.5
    endloop
  endfacet
  facet normal 0 1 0
    outer loop
      vertex 0 0.5 5.5
      vertex 200 0.5 0.5
      vertex 0 0.5 0.5
    endloop
  endfacet
  facet normal -1 0 0
    outer loop
      vertex 0 31 0
      vertex 0 30.5 0.5
      vertex 0 31 5.5
    endloop
  endfacet
  facet normal -1 0 0
    outer loop
      vertex 0 31 0
      vertex 0 20.5 0.5
      vertex 0 30.5 0.5
    endloop
  endfacet
  facet normal -1 0 0
    outer loop
      vertex 0 20 0
      vertex 0 20.5 0.5
      vertex 0 31 0
    endloop
  endfacet
  facet normal -1 0 0
    outer loop
      vertex 0 20 5.5
      vertex 0 20.5 0.5
      vertex 0 20 0
    endloop
  endfacet
  facet normal -1 0 0
    outer loop
      vertex 0 20.5 0.5
      vertex 0 20 5.5
      vertex 0 20.5 5.5
    endloop
  endfacet
  facet normal -1 -0 0
    outer loop
      vertex 0 31 5.5
      vertex 0 30.5 0.5
      vertex 0 30.5 5.5
    endloop
  endfacet
  facet normal -0 0 1
    outer loop
      vertex 0 20.5 5.5
      vertex 200 20 5.5
      vertex 200 20.5 5.5
    endloop
  endfacet
  facet normal 0 0 1
    outer loop
      vertex 200 20 5.5
      vertex 0 20.5 5.5
      vertex 0 20 5.5
    endloop
  endfacet
  facet normal -0 0 1
    outer loop
      vertex 0 31 5.5
      vertex 200 30.5 5.5
      vertex 200 31 5.5
    endloop
  endfacet
  facet normal 0 0 1
    outer loop
      vertex 200 30.5 5.5
      vertex 0 31 5.5
      vertex 0 30.5 5.5
    endloop
  endfacet
  facet normal 1 0 0
    outer loop
      vertex 200 20.5 5.5
      vertex 200 20 5.5
      vertex 200 20.5 0.5
    endloop
  endfacet
  facet normal 1 0 0
    outer loop
      vertex 200 30.5 0.5
      vertex 200 31 5.5
      vertex 200 30.5 5.5
    endloop
  endfacet
  facet normal 1 0 0
    outer loop
      vertex 200 31 5.5
      vertex 200 30.5 0.5
      vertex 200 31 0
    endloop
  endfacet
  facet normal 1 -0 0
    outer loop
      vertex 200 20.5 0.5
      vertex 200 31 0
      vertex 200 30.5 0.5
    endloop
  endfacet
  facet normal 1 0 0
    outer loop
      vertex 200 20.5 0.5
      vertex 200 20 0
      vertex 200 31 0
    endloop
  endfacet
  facet normal 1 0 0
    outer loop
      vertex 200 20 0
      vertex 200 20.5 0.5
      vertex 200 20 5.5
    endloop
  endfacet
  facet normal 0 0 -1
    outer loop
      vertex 0 20 0
      vertex 200 31 0
      vertex 200 20 0
    endloop
  endfacet
  facet normal -0 0 -1
    outer loop
      vertex 200 31 0
      vertex 0 20 0
      vertex 0 31 0
    endloop
  endfacet
  facet normal 0 -1 0
    outer loop
      vertex 0 20 0
      vertex 200 20 5.5
      vertex 0 20 5.5
    endloop
  endfacet
  facet normal 0 -1 -0
    outer loop
      vertex 200 20 5.5
      vertex 0 20 0
      vertex 200 20 0
    endloop
  endfacet
  facet normal 0 1 -0
    outer loop
      vertex 200 31 0
      vertex 0 31 5.5
      vertex 200 31 5.5
    endloop
  endfacet
  facet normal 0 1 0
    outer loop
      vertex 0 31 5.5
      vertex 200 31 0
      vertex 0 31 0
    endloop
  endfacet
  facet normal 0 -1 0
    outer loop
      vertex 0 30.5 0.5
      vertex 200 30.5 5.5
      vertex 0 30.5 5.5
    endloop
  endfacet
  facet normal 0 -1 -0
    outer loop
      vertex 200 30.5 5.5
      vertex 0 30.5 0.5
      vertex 200 30.5 0.5
    endloop
  endfacet
  facet normal -0 0 1
    outer loop
      vertex 0 30.5 0.5
      vertex 200 20.5 0.5
      vertex 200 30.5 0.5
    endloop
  endfacet
  facet normal 0 0 1
    outer loop
      vertex 200 20.5 0.5
      vertex 0 30.5 0.5
      vertex 0 20.5 0.5
    endloop
  endfacet
  facet normal 0 1 -0
    outer loop
      vertex 200 20.5 0.5
      vertex 0 20.5 5.5
      vertex 200 20.5 5.5
    endloop
  endfacet
  facet normal 0 1 0
    outer loop
      vertex 0 20.5 5.5
      vertex 200 20.5 0.5
      vertex 0 20.5 0.5
    endloop
  endfacet
  facet normal -1 0 0
    outer loop
      vertex 0 51 0
      vertex 0 50.5 0.5
      vertex 0 51 5.5
    endloop
  endfacet
  facet normal -1 0 0
    outer loop
      vertex 0 51 0
      vertex 0 40.5 0.5
      vertex 0 50.5 0.5
    endloop
  endfacet
  facet normal -1 0 0
    outer loop
      vertex 0 40 0
      vertex 0 40.5 0.5
      vertex 0 51 0
    endloop
  endfacet
  facet normal -1 0 0
    outer loop
      vertex 0 40 5.5
      vertex 0 40.5 0.5
      vertex 0 40 0
    endloop
  endfacet
  facet normal -1 0 0
    outer loop
      vertex 0 40.5 0.5
      vertex 0 40 5.5
      vertex 0 40.5 5.5
    endloop
  endfacet
  facet normal -1 -0 0
    outer loop
      vertex 0 51 5.5
      vertex 0 50.5 0.5
      vertex 0 50.5 5.5
    endloop
  endfacet
  facet normal -0 0 1
    outer loop
      vertex 0 40.5 5.5
      vertex 160 40 5.5
      vertex 160 40.5 5.5
    endloop
  endfacet
  facet normal 0 0 1
    outer loop
      vertex 160 40 5.5
      vertex 0 40.5 5.5
      vertex 0 40 5.5
    endloop
  endfacet
  facet normal -0 0 1
    outer loop
      vertex 0 51 5.5
      vertex 160 50.5 5.5
      vertex 160 51 5.5
    endloop
  endfacet
  facet normal 0 0 1
    outer loop
      vertex 160 50.5 5.5
      vertex 0 51 5.5
      vertex 0 50.5 5.5
    endloop
  endfacet
  facet normal 1 0 0
    outer loop
      vertex 160 40.5 5.5
      vertex 160 40 5.5
      vertex 160 40.5 0.5
    endloop
  endfacet
  facet normal 1 0 0
    outer loop
      vertex 160 50.5 0.5
      vertex 160 51 5.5
      vertex 160 50.5 5.5
    endloop
  endfacet
  facet normal 1 0 0
    outer loop
      vertex 160 51 5.5
      vertex 160 50.5 0.5
      vertex 160 51 0
    endloop
  endfacet
  facet normal 1 -0 0
    outer loop
      vertex 160 40.5 0.5
      vertex 160 51 0
      vertex 160 50.5 0.5
    endloop
  endfacet
  facet normal 1 0 0
    outer loop
      vertex 160 40.5 0.5
      vertex 160 40 0
      vertex 160 51 0
    endloop
  endfacet
  facet normal 1 0 0
    outer loop
      vertex 160 40 0
      vertex 160 40.5 0.5
      vertex 160 40 5.5
    endloop
  endfacet
  facet normal 0 0 -1
    outer loop
      vertex 0 40 0
      vertex 160 51 0
      vertex 160 40 0
    endloop
  endfacet
  facet normal -0 0 -1
    outer loop
      vertex 160 51 0
      vertex 0 40 0
      vertex 0 51 0
    endloop
  endfacet
  facet normal 0 -1 0
    outer loop
      vertex 0 40 0
      vertex 160 40 5.5
      vertex 0 40 5.5
    endloop
  endfacet
  facet normal 0 -1 -0
    outer loop
      vertex 160 40 5.5
      vertex 0 40 0
      vertex 160 40 0
    endloop
  endfacet
  facet normal 0 1 -0
    outer loop
      vertex 160 51 0
      vertex 0 51 5.5
      vertex 160 51 5.5
    endloop
  endfacet
  facet normal 0 1 0
    outer loop
      vertex 0 51 5.5
      vertex 160 51 0
      vertex 0 51 0
    endloop
  endfacet
  facet normal -0 0 1
    outer loop
      vertex 0 50.5 0.5
      vertex 160 40.5 0.5
      vertex 160 50.5 0.5
    endloop
  endfacet
  facet normal 0 0 1
    outer loop
      vertex 160 40.5 0.5
      vertex 0 50.5 0.5
      vertex 0 40.5 0.5
    endloop
  endfacet
  facet normal 0 1 -0
    outer loop
      vertex 160 40.5 0.5
      vertex 0 40.5 5.5
      vertex 160 40.5 5.5
    endloop
  endfacet
  facet normal 0 1 0
    outer loop
      vertex 0 40.5 5.5
      vertex 160 40.5 0.5
      vertex 0 40.5 0.5
    endloop
  endfacet
  facet normal 0 -1 0
    outer loop
      vertex 0 50.5 0.5
      vertex 160 50.5 5.5
      vertex 0 50.5 5.5
    endloop
  endfacet
  facet normal 0 -1 -0
    outer loop
      vertex 160 50.5 5.5
      vertex 0 50.5 0.5
      vertex 160 50.5 0.5
    endloop
  endfacet
  facet normal -1 0 0
    outer loop
      vertex 0 71 0
      vertex 0 70.5 0.5
      vertex 0 71 5.5
    endloop
  endfacet
  facet normal -1 0 0
    outer loop
      vertex 0 71 0
      vertex 0 60.5 0.5
      vertex 0 70.5 0.5
    endloop
  endfacet
  facet normal -1 0 0
    outer loop
      vertex 0 60 0
      vertex 0 60.5 0.5
      vertex 0 71 0
    endloop
  endfacet
  facet normal -1 0 0
    outer loop
      vertex 0 60 5.5
      vertex 0 60.5 0.5
      vertex 0 60 0
    endloop
  endfacet
  facet normal -1 0 0
    outer loop
      vertex 0 60.5 0.5
      vertex 0 60 5.5
      vertex 0 60.5 5.5
    endloop
  endfacet
  facet normal -1 -0 0
    outer loop
      vertex 0 71 5.5
      vertex 0 70.5 0.5
      vertex 0 70.5 5.5
    endloop
  endfacet
  facet normal -0 0 1
    outer loop
      vertex 0 60.5 5.5
      vertex 160 60 5.5
      vertex 160 60.5 5.5
    endloop
  endfacet
  facet normal 0 0 1
    outer loop
      vertex 160 60 5.5
      vertex 0 60.5 5.5
      vertex 0 60 5.5
    endloop
  endfacet
  facet normal -0 0 1
    outer loop
      vertex 0 71 5.5
      vertex 160 70.5 5.5
      vertex 160 71 5.5
    endloop
  endfacet
  facet normal 0 0 1
    outer loop
      vertex 160 70.5 5.5
      vertex 0 71 5.5
      vertex 0 70.5 5.5
    endloop
  endfacet
  facet normal 1 0 0
    outer loop
      vertex 160 60.5 5.5
      vertex 160 60 5.5
      vertex 160 60.5 0.5
    endloop
  endfacet
  facet normal 1 0 0
    outer loop
      vertex 160 70.5 0.5
      vertex 160 71 5.5
      vertex 160 70.5 5.5
    endloop
  endfacet
  facet normal 1 0 0
    outer loop
      vertex 160 71 5.5
      vertex 160 70.5 0.5
      vertex 160 71 0
    endloop
  endfacet
  facet normal 1 -0 0
    outer loop
      vertex 160 60.5 0.5
      vertex 160 71 0
      vertex 160 70.5 0.5
    endloop
  endfacet
  facet normal 1 0 0
    outer loop
      vertex 160 60.5 0.5
      vertex 160 60 0
      vertex 160 71 0
    endloop
  endfacet
  facet normal 1 0 0
    outer loop
      vertex 160 60 0
      vertex 160 60.5 0.5
      vertex 160 60 5.5
    endloop
  endfacet
  facet normal 0 0 -1
    outer loop
      vertex 0 60 0
      vertex 160 71 0
      vertex 160 60 0
    endloop
  endfacet
  facet normal -0 0 -1
    outer loop
      vertex 160 71 0
      vertex 0 60 0
      vertex 0 71 0
    endloop
  endfacet
  facet normal 0 -1 0
    outer loop
      vertex 0 60 0
      vertex 160 60 5.5
      vertex 0 60 5.5
    endloop
  endfacet
  facet normal 0 -1 -0
    outer loop
      vertex 160 60 5.5
      vertex 0 60 0
      vertex 160 60 0
    endloop
  endfacet
  facet normal 0 1 -0
    outer loop
      vertex 160 71 0
      vertex 0 71 5.5
      vertex 160 71 5.5
    endloop
  endfacet
  facet normal 0 1 0
    outer loop
      vertex 0 71 5.5
      vertex 160 71 0
      vertex 0 71 0
    endloop
  endfacet
  facet normal -0 0 1
    outer loop
      vertex 0 70.5 0.5
      vertex 160 60.5 0.5
      vertex 160 70.5 0.5
    endloop
  endfacet
  facet normal 0 0 1
    outer loop
      vertex 160 60.5 0.5
      vertex 0 70.5 0.5
      vertex 0 60.5 0.5
    endloop
  endfacet
  facet normal 0 1 -0
    outer loop
      vertex 160 60.5 0.5
      vertex 0 60.5 5.5
      vertex 160 60.5 5.5
    endloop
  endfacet
  facet normal 0 1 0
    outer loop
      vertex 0 60.5 5.5
      vertex 160 60.5 0.5
      vertex 0 60.5 0.5
    endloop
  endfacet
  facet normal 0 -1 0
    outer loop
      vertex 0 70.5 0.5
      vertex 160 70.5 5.5
      vertex 0 70.5 5.5
    endloop
  endfacet
  facet normal 0 -1 -0
    outer loop
      vertex 160 70.5 5.5
      vertex 0 70.5 0.5
      vertex 160 70.5 0.5
    endloop
  endfacet
endsolid OpenSCAD_Model
